<?xml version="1.0" encoding="UTF-8"?>
<svg width="509px" height="591px" viewBox="0 0 509 591" version="1.1" xmlns="http://www.w3.org/2000/svg" xmlns:xlink="http://www.w3.org/1999/xlink">
    <!-- Generator: Sketch 64 (93537) - https://sketch.com -->
    <title>Slice</title>
    <desc>Created with Sketch.</desc>
    <g id="Page-1" stroke="none" stroke-width="1" fill="none" fill-rule="evenodd">
        <g id="1b1b_selection4" transform="translate(0.000000, -1.000000)">
            <rect id="Rectangle" stroke="#979797" fill="#E6D9ED" fill-rule="nonzero" x="0.5" y="183.5" width="343" height="254"></rect>
            <rect id="Rectangle" stroke="#979797" fill="#EEDCDC" fill-rule="nonzero" x="170.5" y="349.5" width="41" height="31" rx="8"></rect>
            <rect id="Rectangle" stroke="#979797" fill="#EEDCDC" fill-rule="nonzero" x="123.5" y="349.5" width="46" height="31" rx="8"></rect>
            <rect id="Rectangle" stroke="#979797" fill="#EEDCDC" fill-rule="nonzero" x="164.5" y="242.5" width="46" height="31" rx="8"></rect>
            <rect id="Rectangle" stroke="#979797" fill="#EEDCDC" fill-rule="nonzero" x="212.5" y="354.5" width="5" height="17" rx="2.5"></rect>
            <rect id="Rectangle" stroke="#979797" fill="#EEDCDC" fill-rule="nonzero" x="117.5" y="354.5" width="5" height="17" rx="2.5"></rect>
            <line x1="254.5" y1="254.5" x2="341.5" y2="254.5" id="Line" stroke="#979797" stroke-linecap="square"></line>
            <rect id="Rectangle" stroke="#979797" fill="#D8D8D8" fill-rule="nonzero" x="250.5" y="242.5" width="93" height="12"></rect>
            <rect id="Rectangle" stroke="#979797" fill="#EEDCDC" fill-rule="nonzero" x="212.5" y="249.5" width="5" height="17" rx="2.5"></rect>
            <rect id="Rectangle" stroke="#979797" fill="#EEDCDC" fill-rule="nonzero" x="110.5" y="249.5" width="5" height="17" rx="2.5"></rect>
            <rect id="Rectangle" stroke="#979797" fill="#EEDCDC" fill-rule="nonzero" x="60.5" y="369.5" width="24" height="5" rx="2.5"></rect>
            <rect id="Rectangle" stroke="#979797" fill="#EEDCDC" fill-rule="nonzero" x="59.5" y="323.5" width="24" height="5" rx="2.5"></rect>
            <rect id="Rectangle" stroke="#979797" fill="#EEDCDC" fill-rule="nonzero" x="59.5" y="298.5" width="24" height="5" rx="2.5"></rect>
            <rect id="Rectangle" stroke="#979797" fill="#EEDCDC" fill-rule="nonzero" x="52.5" y="258.5" width="39" height="39" rx="8"></rect>
            <rect id="Rectangle" stroke="#979797" fill="#EEDCDC" fill-rule="nonzero" x="59.5" y="252.5" width="24" height="5" rx="2.5"></rect>
            <rect id="Rectangle" stroke="#979797" fill="#EEDCDC" fill-rule="nonzero" x="52.5" y="329.5" width="39" height="39" rx="8"></rect>
            <ellipse id="Oval" stroke="#979797" fill="#BCDDAB" fill-rule="nonzero" cx="164" cy="311.5" rx="34.5" ry="37"></ellipse>
            <rect id="Rectangle" stroke="#979797" fill="#EEDCDC" fill-rule="nonzero" x="117.5" y="242.5" width="46" height="31" rx="8"></rect>
            <rect id="Rectangle" stroke="#979797" fill="#F5E2C7" fill-rule="nonzero" x="250.5" y="242.5" width="93" height="135"></rect>
            <line x1="261" y1="250" x2="341.5" y2="310.5" id="Line-2" stroke="#979797" stroke-linecap="square"></line>
            <line x1="250" y1="249" x2="342" y2="249" id="Line-2" stroke="#979797" stroke-linecap="square"></line>
            <line x1="261.716158" y1="367.499395" x2="341.5" y2="311.5" id="Line-2" stroke="#979797" stroke-linecap="square"></line>
            <line x1="262" y1="242" x2="261.5" y2="375.5" id="Line-2" stroke="#979797" stroke-linecap="square"></line>
            <line x1="251" y1="368" x2="343" y2="368" id="Line-2" stroke="#979797" stroke-linecap="square"></line>
            <rect id="Rectangle" stroke="#979797" fill="#C0EBE9" fill-rule="nonzero" x="0.5" y="242.5" width="35" height="149"></rect>
            <line x1="0.75" y1="373.25" x2="35.25" y2="373.75" id="Line-3" stroke="#979797" stroke-linecap="square"></line>
            <line x1="0.75" y1="359.25" x2="35.25" y2="359.75" id="Line-3" stroke="#979797" stroke-linecap="square"></line>
            <line x1="0.75" y1="347.25" x2="35.25" y2="347.75" id="Line-3" stroke="#979797" stroke-linecap="square"></line>
            <line x1="0.75" y1="332.25" x2="35.25" y2="332.75" id="Line-3" stroke="#979797" stroke-linecap="square"></line>
            <line x1="0.75" y1="320.25" x2="35.25" y2="320.75" id="Line-3" stroke="#979797" stroke-linecap="square"></line>
            <line x1="0.75" y1="306.25" x2="35.25" y2="306.75" id="Line-3" stroke="#979797" stroke-linecap="square"></line>
            <line x1="0.75" y1="251.25" x2="35.25" y2="251.75" id="Line-3" stroke="#979797" stroke-linecap="square"></line>
            <line x1="1" y1="292" x2="35.5" y2="291.5" id="Line-3" stroke="#979797" stroke-linecap="square"></line>
            <line x1="0.75" y1="277.25" x2="35.25" y2="277.75" id="Line-3" stroke="#979797" stroke-linecap="square"></line>
            <ellipse id="Oval" stroke="#979797" fill="#D8D8D8" fill-rule="nonzero" cx="113" cy="317" rx="9.5" ry="8.5"></ellipse>
            <line x1="0.75" y1="266.25" x2="35.25" y2="266.75" id="Line-3" stroke="#979797" stroke-linecap="square"></line>
            <rect id="Rectangle" stroke="#979797" stroke-width="6" fill="#FFFFFF" fill-rule="nonzero" x="1" y="440" width="227" height="144"></rect>
            <line x1="93.5" y1="441.370968" x2="93.5" y2="463.629032" id="Line-4" stroke="#979797" stroke-linecap="square"></line>
            <rect id="Rectangle" stroke="#979797" fill="#FFFFFF" fill-rule="nonzero" x="107.5" y="447.5" width="29" height="47" rx="8"></rect>
            <ellipse id="Oval" stroke="#979797" fill="#FFFFFF" fill-rule="nonzero" cx="121.5" cy="475" rx="7" ry="10.5"></ellipse>
            <rect id="Rectangle" stroke="#979797" fill="#FFFFFF" fill-rule="nonzero" x="107.5" y="447.5" width="29" height="10" rx="5"></rect>
            <circle id="Oval" stroke="#979797" fill="#D8D8D8" fill-rule="nonzero" cx="42" cy="450" r="2.5"></circle>
            <rect id="Rectangle" stroke="#000000" fill="#D8D8D8" fill-rule="nonzero" x="170.5" y="441.5" width="56" height="142"></rect>
            <line x1="41.5" y1="441.368421" x2="41.5" y2="454.631579" id="Line-2" stroke="#979797" stroke-linecap="square"></line>
            <ellipse id="Oval" stroke="#979797" fill="#D8D8D8" fill-rule="nonzero" cx="214" cy="481" rx="3.5" ry="4.5"></ellipse>
            <rect id="Rectangle" stroke="#979797" fill="#FFFFFF" fill-rule="nonzero" x="3.5" y="441.5" width="78" height="54"></rect>
            <rect id="Rectangle-2" stroke="#979797" fill="#FFFFFF" fill-rule="nonzero" x="14.5" y="455.5" width="54" height="25"></rect>
            <path d="M211,446.5 L184,446.5 C181.928932,446.5 180.053932,447.339466 178.696699,448.696699 C177.339466,450.053932 176.5,451.928932 176.5,454 L176.5,569 C176.5,571.071068 177.339466,572.946068 178.696699,574.303301 C180.053932,575.660534 181.928932,576.5 184,576.5 L211,576.5 C213.071068,576.5 214.946068,575.660534 216.303301,574.303301 C217.660534,572.946068 218.5,571.071068 218.5,569 L218.5,454 C218.5,451.928932 217.660534,450.053932 216.303301,448.696699 C214.946068,447.339466 213.071068,446.5 211,446.5 Z M27.5,437.5 C26.6715729,437.5 25.9215729,437.835786 25.3786797,438.37868 C24.8357864,438.921573 24.5,439.671573 24.5,440.5 C24.5,441.328427 24.8357864,442.078427 25.3786797,442.62132 C25.9215729,443.164214 26.6715729,443.5 27.5,443.5 C28.3284271,443.5 29.0784271,443.164214 29.6213203,442.62132 C30.1642136,442.078427 30.5,441.328427 30.5,440.5 C30.5,439.671573 30.1642136,438.921573 29.6213203,438.37868 C29.0784271,437.835786 28.3284271,437.5 27.5,437.5 Z" id="Rectangle-3" stroke="#979797" fill="#FFFFFF" fill-rule="nonzero"></path>
            <line x1="214.5" y1="441.375" x2="214.5" y2="476.625" id="Line" stroke="#979797" fill="#FFFFFF" fill-rule="nonzero"></line>
            <line x1="199.5" y1="440.380952" x2="199.5" y2="471.619048" id="Line-3" stroke="#979797" stroke-linecap="square"></line>
            <ellipse id="Oval" stroke="#979797" fill="#FFFFFF" fill-rule="nonzero" cx="200" cy="477" rx="3.5" ry="4.5"></ellipse>
            <rect id="Rectangle" stroke="#979797" fill="#FFFFFF" fill-rule="nonzero" x="28.5" y="445.5" width="25" height="7" rx="3.5"></rect>
            <rect id="Rectangle" stroke="#979797" fill="#FFFFFF" fill-rule="nonzero" x="39.5" y="445.5" width="5" height="14" rx="2.5"></rect>
            <rect id="Rectangle" stroke="#979797" fill="#FFFFFF" fill-rule="nonzero" x="88.5" y="463.5" width="10" height="11"></rect>
            <circle id="Oval" stroke="#979797" fill="#D8D8D8" fill-rule="nonzero" cx="94" cy="469" r="4.5"></circle>
            <line x1="89.3846154" y1="468.25" x2="98.615385" y2="468.75" id="Line-5" stroke="#979797" stroke-linecap="square"></line>
            <line x1="92.3571429" y1="463.392857" x2="96.6428571" y2="473.607143" id="Line-6" stroke="#979797" stroke-linecap="square"></line>
            <line x1="92.375" y1="472.636364" x2="94.625" y2="465.363636" id="Line-7" stroke="#979797" stroke-linecap="square"></line>
            <line x1="89.375" y1="470.583333" x2="97.625" y2="466.416667" id="Line-8" stroke="#979797" stroke-linecap="square"></line>
            <rect id="Rectangle" stroke="#979797" fill="#E5DFDF" fill-rule="nonzero" x="346.5" y="183.5" width="162" height="254"></rect>
            <rect id="Rectangle" stroke="#979797" fill="#D8D8D8" fill-rule="nonzero" x="344.5" y="372.5" width="89" height="66"></rect>
            <line x1="350.238095" y1="310.441176" x2="359.761905" y2="324.558824" id="Line" stroke="#979797" stroke-linecap="square"></line>
            <rect id="Rectangle" stroke="#979797" fill="#D8D8D8" fill-rule="nonzero" x="344.5" y="250.5" width="30" height="121"></rect>
            <rect id="Rectangle-2" stroke="#979797" fill="#FFFFFF" fill-rule="nonzero" x="348.5" y="258.5" width="23" height="38" rx="8"></rect>
            <rect id="Rectangle" stroke="#979797" fill="#FFFFFF" fill-rule="nonzero" x="349.5" y="311.5" width="21" height="50" rx="8"></rect>
            <path d="M346.5,303.5 C346.265691,303.5 346.045269,303.590678 345.842817,303.741624 C345.587194,303.932212 345.361497,304.214907 345.169312,304.560841 C344.751425,305.313037 344.5,306.353542 344.5,307.5 C344.5,308.646458 344.751425,309.686963 345.169312,310.439159 C345.361497,310.785093 345.587194,311.067788 345.842817,311.258376 C346.045269,311.409322 346.265691,311.5 346.5,311.5 C346.734309,311.5 346.954731,311.409322 347.157183,311.258376 C347.412806,311.067788 347.638503,310.785093 347.830688,310.439159 C348.248575,309.686963 348.5,308.646458 348.5,307.5 C348.5,306.353542 348.248575,305.313037 347.830688,304.560841 C347.638503,304.214907 347.412806,303.932212 347.157183,303.741624 C346.954731,303.590678 346.734309,303.5 346.5,303.5 Z" id="Oval-2" stroke="#979797" fill="#F7F1F1" fill-rule="nonzero"></path>
            <polygon id="Triangle" stroke="#979797" fill="#FFFFFF" fill-rule="nonzero" points="348.726529 309.878576 346.583893 311.36536 350.710141 325.008152"></polygon>
            <rect id="Rectangle" stroke="#979797" fill="#D8D8D8" fill-rule="nonzero" x="344.5" y="184.5" width="112" height="65"></rect>
            <rect id="Rectangle" stroke="#979797" fill="#D8D8D8" fill-rule="nonzero" x="434.5" y="372.5" width="33" height="66"></rect>
            <rect id="Rectangle" stroke="#979797" fill="#D8D8D8" fill-rule="nonzero" x="411.5" y="199.5" width="10" height="25" rx="5"></rect>
            <rect id="Rectangle" stroke="#979797" fill="#D8D8D8" fill-rule="nonzero" x="399.5" y="196.5" width="34" height="43"></rect>
            <rect id="Rectangle" stroke="#282727" fill="#D8D8D8" fill-rule="nonzero" x="411.5" y="197.5" width="10" height="26"></rect>
            <line x1="412.208333" y1="200.5" x2="421.791667" y2="200.5" id="Line-3" stroke="#131313" stroke-linecap="square"></line>
            <line x1="412.208333" y1="203.5" x2="421.791667" y2="203.5" id="Line-4" stroke="#030202" stroke-linecap="square"></line>
            <line x1="412.208333" y1="206.5" x2="421.791667" y2="206.5" id="Line-5" stroke="#121212" stroke-linecap="square"></line>
            <line x1="412.208333" y1="211.5" x2="421.791667" y2="211.5" id="Line-6" stroke="#131313" stroke-linecap="square"></line>
            <line x1="412.208333" y1="214.5" x2="421.791667" y2="214.5" id="Line-7" stroke="#121212" stroke-linecap="square"></line>
            <line x1="412.208333" y1="217.5" x2="421.791667" y2="217.5" id="Line-8" stroke="#1E1D1D" stroke-linecap="square"></line>
            <line x1="412.208333" y1="219.5" x2="421.791667" y2="219.5" id="Line-9" stroke="#141414" stroke-linecap="square"></line>
            <rect id="Rectangle" stroke="#303030" fill="#D8D8D8" fill-rule="nonzero" x="400.5" y="199.5" width="8" height="34" rx="4"></rect>
            <rect id="Rectangle" stroke="#2F2E2E" fill="#D8D8D8" fill-rule="nonzero" x="424.5" y="199.5" width="7" height="32" rx="3.5"></rect>
            <ellipse id="Oval" stroke="#979797" fill="#000000" fill-rule="nonzero" cx="428.5" cy="207.5" rx="1" ry="3"></ellipse>
            <ellipse id="Oval" stroke="#979797" fill="#000000" fill-rule="nonzero" cx="428.5" cy="223" rx="1" ry="2.5"></ellipse>
            <ellipse id="Oval" stroke="#979797" fill="#020202" fill-rule="nonzero" cx="405" cy="216.5" rx="1.5" ry="3"></ellipse>
            <rect id="Rectangle" stroke="#979797" fill="#BEB0B0" fill-rule="nonzero" x="344.5" y="184.5" width="27" height="26"></rect>
            <line x1="400.222222" y1="206.5" x2="407.777778" y2="206.5" id="Line-10" stroke="#979797" stroke-linecap="square"></line>
            <line x1="400.222222" y1="226.5" x2="407.777778" y2="226.5" id="Line-11" stroke="#979797" stroke-linecap="square"></line>
            <line x1="405.25" y1="200.4375" x2="405.25" y2="213.5625" id="Line-12" stroke="#979797" stroke-linecap="square"></line>
            <line x1="405.25" y1="219.46875" x2="405.25" y2="233.53125" id="Line-13" stroke="#979797" stroke-linecap="square"></line>
            <line x1="400.3" y1="217.5" x2="402.7" y2="217.5" id="Line-14" stroke="#979797" stroke-linecap="square"></line>
            <line x1="407.166667" y1="217.5" x2="407.833333" y2="217.5" id="Line-15" stroke="#979797" stroke-linecap="square"></line>
            <line x1="425.2" y1="207.5" x2="426.8" y2="207.5" id="Line-16" stroke="#979797" stroke-linecap="square"></line>
            <line x1="430.166667" y1="207.5" x2="431.833333" y2="207.5" id="Line-17" stroke="#979797" stroke-linecap="square"></line>
            <line x1="425.2" y1="223.5" x2="426.8" y2="223.5" id="Line-18" stroke="#979797" stroke-linecap="square"></line>
            <line x1="430.2" y1="223.5" x2="431.8" y2="223.5" id="Line-19" stroke="#979797" stroke-linecap="square"></line>
            <line x1="428.5" y1="199.428571" x2="428.5" y2="204.571429" id="Line-20" stroke="#979797" stroke-linecap="square"></line>
            <line x1="428.5" y1="211.384615" x2="428.5" y2="220.615385" id="Line-21" stroke="#979797" stroke-linecap="square"></line>
            <line x1="428.75" y1="226.4" x2="428.5" y2="230" id="Line-22" stroke="#979797" stroke-linecap="square"></line>
            <line x1="425.21875" y1="215.5" x2="431.78125" y2="215.5" id="Line-23" stroke="#979797" stroke-linecap="square"></line>
            <rect id="Rectangle" stroke="#979797" fill="#E6D9ED" fill-rule="nonzero" x="0.5" y="183.5" width="343" height="254"></rect>
            <rect id="Rectangle" stroke="#979797" fill="#EEDCDC" fill-rule="nonzero" x="170.5" y="349.5" width="41" height="31" rx="8"></rect>
            <rect id="Rectangle" stroke="#979797" fill="#EEDCDC" fill-rule="nonzero" x="123.5" y="349.5" width="46" height="31" rx="8"></rect>
            <rect id="Rectangle" stroke="#979797" fill="#EEDCDC" fill-rule="nonzero" x="164.5" y="242.5" width="46" height="31" rx="8"></rect>
            <rect id="Rectangle" stroke="#979797" fill="#EEDCDC" fill-rule="nonzero" x="212.5" y="354.5" width="5" height="17" rx="2.5"></rect>
            <rect id="Rectangle" stroke="#979797" fill="#EEDCDC" fill-rule="nonzero" x="117.5" y="354.5" width="5" height="17" rx="2.5"></rect>
            <line x1="254.5" y1="254.5" x2="341.5" y2="254.5" id="Line" stroke="#979797" stroke-linecap="square"></line>
            <rect id="Rectangle" stroke="#979797" fill="#D8D8D8" fill-rule="nonzero" x="250.5" y="242.5" width="93" height="12"></rect>
            <rect id="Rectangle" stroke="#979797" fill="#EEDCDC" fill-rule="nonzero" x="212.5" y="249.5" width="5" height="17" rx="2.5"></rect>
            <rect id="Rectangle" stroke="#979797" fill="#EEDCDC" fill-rule="nonzero" x="110.5" y="249.5" width="5" height="17" rx="2.5"></rect>
            <rect id="Rectangle" stroke="#979797" fill="#EEDCDC" fill-rule="nonzero" x="60.5" y="369.5" width="24" height="5" rx="2.5"></rect>
            <rect id="Rectangle" stroke="#979797" fill="#EEDCDC" fill-rule="nonzero" x="59.5" y="323.5" width="24" height="5" rx="2.5"></rect>
            <rect id="Rectangle" stroke="#979797" fill="#EEDCDC" fill-rule="nonzero" x="59.5" y="298.5" width="24" height="5" rx="2.5"></rect>
            <rect id="Rectangle" stroke="#979797" fill="#EEDCDC" fill-rule="nonzero" x="52.5" y="258.5" width="39" height="39" rx="8"></rect>
            <rect id="Rectangle" stroke="#979797" fill="#EEDCDC" fill-rule="nonzero" x="59.5" y="252.5" width="24" height="5" rx="2.5"></rect>
            <rect id="Rectangle" stroke="#979797" fill="#EEDCDC" fill-rule="nonzero" x="52.5" y="329.5" width="39" height="39" rx="8"></rect>
            <ellipse id="Oval" stroke="#979797" fill="#BCDDAB" fill-rule="nonzero" cx="164" cy="311.5" rx="34.5" ry="37"></ellipse>
            <rect id="Rectangle" stroke="#979797" fill="#EEDCDC" fill-rule="nonzero" x="117.5" y="242.5" width="46" height="31" rx="8"></rect>
            <rect id="Rectangle" stroke="#979797" fill="#F5E2C7" fill-rule="nonzero" x="250.5" y="242.5" width="93" height="135"></rect>
            <line x1="261" y1="250" x2="341.5" y2="310.5" id="Line-2" stroke="#979797" stroke-linecap="square"></line>
            <line x1="250" y1="249" x2="342" y2="249" id="Line-2" stroke="#979797" stroke-linecap="square"></line>
            <line x1="261.716158" y1="367.499395" x2="341.5" y2="311.5" id="Line-2" stroke="#979797" stroke-linecap="square"></line>
            <line x1="262" y1="242" x2="261.5" y2="375.5" id="Line-2" stroke="#979797" stroke-linecap="square"></line>
            <line x1="251" y1="368" x2="343" y2="368" id="Line-2" stroke="#979797" stroke-linecap="square"></line>
            <rect id="Rectangle" stroke="#979797" fill="#C0EBE9" fill-rule="nonzero" x="0.5" y="242.5" width="35" height="149"></rect>
            <line x1="0.75" y1="373.25" x2="35.25" y2="373.75" id="Line-3" stroke="#979797" stroke-linecap="square"></line>
            <line x1="0.75" y1="359.25" x2="35.25" y2="359.75" id="Line-3" stroke="#979797" stroke-linecap="square"></line>
            <line x1="0.75" y1="347.25" x2="35.25" y2="347.75" id="Line-3" stroke="#979797" stroke-linecap="square"></line>
            <line x1="0.75" y1="332.25" x2="35.25" y2="332.75" id="Line-3" stroke="#979797" stroke-linecap="square"></line>
            <line x1="0.75" y1="320.25" x2="35.25" y2="320.75" id="Line-3" stroke="#979797" stroke-linecap="square"></line>
            <line x1="0.75" y1="306.25" x2="35.25" y2="306.75" id="Line-3" stroke="#979797" stroke-linecap="square"></line>
            <line x1="0.75" y1="251.25" x2="35.25" y2="251.75" id="Line-3" stroke="#979797" stroke-linecap="square"></line>
            <line x1="1" y1="292" x2="35.5" y2="291.5" id="Line-3" stroke="#979797" stroke-linecap="square"></line>
            <line x1="0.75" y1="277.25" x2="35.25" y2="277.75" id="Line-3" stroke="#979797" stroke-linecap="square"></line>
            <ellipse id="Oval" stroke="#979797" fill="#D8D8D8" fill-rule="nonzero" cx="113" cy="317" rx="9.5" ry="8.5"></ellipse>
            <line x1="0.75" y1="266.25" x2="35.25" y2="266.75" id="Line-3" stroke="#979797" stroke-linecap="square"></line>
            <rect id="Rectangle" stroke="#979797" stroke-width="6" fill="#FFFFFF" fill-rule="nonzero" x="1" y="440" width="227" height="144"></rect>
            <line x1="93.5" y1="441.370968" x2="93.5" y2="463.629032" id="Line-4" stroke="#979797" stroke-linecap="square"></line>
            <rect id="Rectangle" stroke="#979797" fill="#FFFFFF" fill-rule="nonzero" x="107.5" y="447.5" width="29" height="47" rx="8"></rect>
            <ellipse id="Oval" stroke="#979797" fill="#FFFFFF" fill-rule="nonzero" cx="121.5" cy="475" rx="7" ry="10.5"></ellipse>
            <rect id="Rectangle" stroke="#979797" fill="#FFFFFF" fill-rule="nonzero" x="107.5" y="447.5" width="29" height="10" rx="5"></rect>
            <circle id="Oval" stroke="#979797" fill="#D8D8D8" fill-rule="nonzero" cx="42" cy="450" r="2.5"></circle>
            <rect id="Rectangle" stroke="#000000" fill="#D8D8D8" fill-rule="nonzero" x="170.5" y="441.5" width="56" height="142"></rect>
            <line x1="41.5" y1="441.368421" x2="41.5" y2="454.631579" id="Line-2" stroke="#979797" stroke-linecap="square"></line>
            <ellipse id="Oval" stroke="#979797" fill="#D8D8D8" fill-rule="nonzero" cx="214" cy="481" rx="3.5" ry="4.5"></ellipse>
            <rect id="Rectangle" stroke="#979797" fill="#FFFFFF" fill-rule="nonzero" x="3.5" y="441.5" width="78" height="54"></rect>
            <rect id="Rectangle-2" stroke="#979797" fill="#FFFFFF" fill-rule="nonzero" x="14.5" y="455.5" width="54" height="25"></rect>
            <path d="M211,446.5 L184,446.5 C181.928932,446.5 180.053932,447.339466 178.696699,448.696699 C177.339466,450.053932 176.5,451.928932 176.5,454 L176.5,569 C176.5,571.071068 177.339466,572.946068 178.696699,574.303301 C180.053932,575.660534 181.928932,576.5 184,576.5 L211,576.5 C213.071068,576.5 214.946068,575.660534 216.303301,574.303301 C217.660534,572.946068 218.5,571.071068 218.5,569 L218.5,454 C218.5,451.928932 217.660534,450.053932 216.303301,448.696699 C214.946068,447.339466 213.071068,446.5 211,446.5 Z M27.5,437.5 C26.6715729,437.5 25.9215729,437.835786 25.3786797,438.37868 C24.8357864,438.921573 24.5,439.671573 24.5,440.5 C24.5,441.328427 24.8357864,442.078427 25.3786797,442.62132 C25.9215729,443.164214 26.6715729,443.5 27.5,443.5 C28.3284271,443.5 29.0784271,443.164214 29.6213203,442.62132 C30.1642136,442.078427 30.5,441.328427 30.5,440.5 C30.5,439.671573 30.1642136,438.921573 29.6213203,438.37868 C29.0784271,437.835786 28.3284271,437.5 27.5,437.5 Z" id="Rectangle-3" stroke="#979797" fill="#FFFFFF" fill-rule="nonzero"></path>
            <line x1="214.5" y1="441.375" x2="214.5" y2="476.625" id="Line" stroke="#979797" fill="#FFFFFF" fill-rule="nonzero"></line>
            <line x1="199.5" y1="440.380952" x2="199.5" y2="471.619048" id="Line-3" stroke="#979797" stroke-linecap="square"></line>
            <ellipse id="Oval" stroke="#979797" fill="#FFFFFF" fill-rule="nonzero" cx="200" cy="477" rx="3.5" ry="4.5"></ellipse>
            <rect id="Rectangle" stroke="#979797" fill="#FFFFFF" fill-rule="nonzero" x="28.5" y="445.5" width="25" height="7" rx="3.5"></rect>
            <rect id="Rectangle" stroke="#979797" fill="#FFFFFF" fill-rule="nonzero" x="39.5" y="445.5" width="5" height="14" rx="2.5"></rect>
            <rect id="Rectangle" stroke="#979797" fill="#FFFFFF" fill-rule="nonzero" x="88.5" y="463.5" width="10" height="11"></rect>
            <circle id="Oval" stroke="#979797" fill="#D8D8D8" fill-rule="nonzero" cx="94" cy="469" r="4.5"></circle>
            <line x1="89.3846154" y1="468.25" x2="98.615385" y2="468.75" id="Line-5" stroke="#979797" stroke-linecap="square"></line>
            <line x1="92.3571429" y1="463.392857" x2="96.6428571" y2="473.607143" id="Line-6" stroke="#979797" stroke-linecap="square"></line>
            <line x1="92.375" y1="472.636364" x2="94.625" y2="465.363636" id="Line-7" stroke="#979797" stroke-linecap="square"></line>
            <line x1="89.375" y1="470.583333" x2="97.625" y2="466.416667" id="Line-8" stroke="#979797" stroke-linecap="square"></line>
            <rect id="Rectangle" stroke="#979797" fill="#E5DFDF" fill-rule="nonzero" x="346.5" y="183.5" width="162" height="254"></rect>
            <rect id="Rectangle" stroke="#979797" fill="#D8D8D8" fill-rule="nonzero" x="344.5" y="372.5" width="89" height="66"></rect>
            <line x1="350.238095" y1="310.441176" x2="359.761905" y2="324.558824" id="Line" stroke="#979797" stroke-linecap="square"></line>
            <rect id="Rectangle" stroke="#979797" fill="#D8D8D8" fill-rule="nonzero" x="344.5" y="250.5" width="30" height="121"></rect>
            <rect id="Rectangle-2" stroke="#979797" fill="#FFFFFF" fill-rule="nonzero" x="348.5" y="258.5" width="23" height="38" rx="8"></rect>
            <rect id="Rectangle" stroke="#979797" fill="#FFFFFF" fill-rule="nonzero" x="349.5" y="311.5" width="21" height="50" rx="8"></rect>
            <path d="M346.5,303.5 C346.265691,303.5 346.045269,303.590678 345.842817,303.741624 C345.587194,303.932212 345.361497,304.214907 345.169312,304.560841 C344.751425,305.313037 344.5,306.353542 344.5,307.5 C344.5,308.646458 344.751425,309.686963 345.169312,310.439159 C345.361497,310.785093 345.587194,311.067788 345.842817,311.258376 C346.045269,311.409322 346.265691,311.5 346.5,311.5 C346.734309,311.5 346.954731,311.409322 347.157183,311.258376 C347.412806,311.067788 347.638503,310.785093 347.830688,310.439159 C348.248575,309.686963 348.5,308.646458 348.5,307.5 C348.5,306.353542 348.248575,305.313037 347.830688,304.560841 C347.638503,304.214907 347.412806,303.932212 347.157183,303.741624 C346.954731,303.590678 346.734309,303.5 346.5,303.5 Z" id="Oval-2" stroke="#979797" fill="#F7F1F1" fill-rule="nonzero"></path>
            <polygon id="Triangle" stroke="#979797" fill="#FFFFFF" fill-rule="nonzero" points="348.726529 309.878576 346.583893 311.36536 350.710141 325.008152"></polygon>
            <rect id="Rectangle" stroke="#979797" fill="#D8D8D8" fill-rule="nonzero" x="344.5" y="184.5" width="112" height="65"></rect>
            <rect id="Rectangle" stroke="#979797" fill="#D8D8D8" fill-rule="nonzero" x="434.5" y="372.5" width="33" height="66"></rect>
            <rect id="Rectangle" stroke="#979797" fill="#D8D8D8" fill-rule="nonzero" x="411.5" y="199.5" width="10" height="25" rx="5"></rect>
            <rect id="Rectangle" stroke="#979797" fill="#D8D8D8" fill-rule="nonzero" x="399.5" y="196.5" width="34" height="43"></rect>
            <rect id="Rectangle" stroke="#282727" fill="#D8D8D8" fill-rule="nonzero" x="411.5" y="197.5" width="10" height="26"></rect>
            <line x1="412.208333" y1="200.5" x2="421.791667" y2="200.5" id="Line-3" stroke="#131313" stroke-linecap="square"></line>
            <line x1="412.208333" y1="203.5" x2="421.791667" y2="203.5" id="Line-4" stroke="#030202" stroke-linecap="square"></line>
            <line x1="412.208333" y1="206.5" x2="421.791667" y2="206.5" id="Line-5" stroke="#121212" stroke-linecap="square"></line>
            <line x1="412.208333" y1="211.5" x2="421.791667" y2="211.5" id="Line-6" stroke="#131313" stroke-linecap="square"></line>
            <line x1="412.208333" y1="214.5" x2="421.791667" y2="214.5" id="Line-7" stroke="#121212" stroke-linecap="square"></line>
            <line x1="412.208333" y1="217.5" x2="421.791667" y2="217.5" id="Line-8" stroke="#1E1D1D" stroke-linecap="square"></line>
            <line x1="412.208333" y1="219.5" x2="421.791667" y2="219.5" id="Line-9" stroke="#141414" stroke-linecap="square"></line>
            <rect id="Rectangle" stroke="#303030" fill="#D8D8D8" fill-rule="nonzero" x="400.5" y="199.5" width="8" height="34" rx="4"></rect>
            <rect id="Rectangle" stroke="#2F2E2E" fill="#D8D8D8" fill-rule="nonzero" x="424.5" y="199.5" width="7" height="32" rx="3.5"></rect>
            <ellipse id="Oval" stroke="#979797" fill="#000000" fill-rule="nonzero" cx="428.5" cy="207.5" rx="1" ry="3"></ellipse>
            <ellipse id="Oval" stroke="#979797" fill="#000000" fill-rule="nonzero" cx="428.5" cy="223" rx="1" ry="2.5"></ellipse>
            <ellipse id="Oval" stroke="#979797" fill="#020202" fill-rule="nonzero" cx="405" cy="216.5" rx="1.5" ry="3"></ellipse>
            <rect id="Rectangle" stroke="#979797" fill="#BEB0B0" fill-rule="nonzero" x="344.5" y="184.5" width="27" height="26"></rect>
            <line x1="400.222222" y1="206.5" x2="407.777778" y2="206.5" id="Line-10" stroke="#979797" stroke-linecap="square"></line>
            <line x1="400.222222" y1="226.5" x2="407.777778" y2="226.5" id="Line-11" stroke="#979797" stroke-linecap="square"></line>
            <line x1="405.25" y1="200.4375" x2="405.25" y2="213.5625" id="Line-12" stroke="#979797" stroke-linecap="square"></line>
            <line x1="405.25" y1="219.46875" x2="405.25" y2="233.53125" id="Line-13" stroke="#979797" stroke-linecap="square"></line>
            <line x1="400.3" y1="217.5" x2="402.7" y2="217.5" id="Line-14" stroke="#979797" stroke-linecap="square"></line>
            <line x1="407.166667" y1="217.5" x2="407.833333" y2="217.5" id="Line-15" stroke="#979797" stroke-linecap="square"></line>
            <line x1="425.2" y1="207.5" x2="426.8" y2="207.5" id="Line-16" stroke="#979797" stroke-linecap="square"></line>
            <line x1="430.166667" y1="207.5" x2="431.833333" y2="207.5" id="Line-17" stroke="#979797" stroke-linecap="square"></line>
            <line x1="425.2" y1="223.5" x2="426.8" y2="223.5" id="Line-18" stroke="#979797" stroke-linecap="square"></line>
            <line x1="430.2" y1="223.5" x2="431.8" y2="223.5" id="Line-19" stroke="#979797" stroke-linecap="square"></line>
            <line x1="428.5" y1="199.428571" x2="428.5" y2="204.571429" id="Line-20" stroke="#979797" stroke-linecap="square"></line>
            <line x1="428.5" y1="211.384615" x2="428.5" y2="220.615385" id="Line-21" stroke="#979797" stroke-linecap="square"></line>
            <line x1="428.75" y1="226.4" x2="428.5" y2="230" id="Line-22" stroke="#979797" stroke-linecap="square"></line>
            <line x1="425.21875" y1="215.5" x2="431.78125" y2="215.5" id="Line-23" stroke="#979797" stroke-linecap="square"></line>
            <rect id="Rectangle" stroke="#979797" stroke-width="5" fill="#DBD9F6" fill-rule="nonzero" x="0.5" y="0.5" width="247" height="182"></rect>
            <rect id="Rectangle" stroke="#979797" fill="#7CCF96" fill-rule="nonzero" x="28.5" y="23.5" width="77" height="124"></rect>
            <rect id="Rectangle" stroke="#979797" fill="#F7F7F7" fill-rule="nonzero" x="44.5" y="34.5" width="45" height="16"></rect>
            <rect id="Rectangle" stroke="#979797" fill="#7DB4F1" fill-rule="nonzero" x="28.5" y="63.5" width="77" height="84"></rect>
            <rect id="Rectangle" stroke="#979797" fill="#FFFFFF" fill-rule="nonzero" x="118.5" y="23.5" width="104" height="19"></rect>
            <circle id="Oval" stroke="#979797" fill="#FFFFFF" fill-rule="nonzero" cx="171" cy="67" r="15.5"></circle>
        </g>
        <path d="M26,539.065365 L20.1493622,550.073288 L7.16133311,551.825754 L16.556258,560.329415 L14.3283146,572.391472 L26,566.693601 L37.6716854,572.391472 L35.443742,560.329415 L44.8386669,551.825754 L31.8506378,550.073288 L26,539.065365 Z" id="Star" stroke="#979797" fill="#FFFFFF"></path>
        <path d="M386,384.051499 L379.559051,395.967436 L365.273408,397.862755 L375.606449,407.059135 L373.154614,420.111362 L386,413.94538 L398.845386,420.111362 L396.393551,407.059135 L406.726592,397.862755 L392.440949,395.967436 L386,384.051499 Z" id="Star" stroke="#979797" fill="#F2E5E5"></path>
        <path d="M161.5,286.129776 L154.631663,300.046546 L139.273596,302.278204 L150.386798,313.110898 L147.763327,328.406909 L161.5,321.185112 L175.236673,328.406909 L172.613202,313.110898 L183.726404,302.278204 L168.368337,300.046546 L161.5,286.129776 Z" id="Star" stroke="#979797" fill="#E3E8D1"></path>
        <path d="M66,78.1297757 L58.3969319,93.5352745 L41.3959546,96.0056611 L53.6979773,107.997169 L50.7938637,124.929451 L66,116.935112 L81.2061363,124.929451 L78.3020227,107.997169 L90.6040454,96.0056611 L73.6030681,93.5352745 L66,78.1297757 Z" id="Star" stroke="#979797" fill="#CAEAE7"></path>
    </g>
</svg>