<?xml version="1.0" encoding="UTF-8"?>
<svg width="509px" height="583px" viewBox="0 0 509 583" version="1.1" xmlns="http://www.w3.org/2000/svg" xmlns:xlink="http://www.w3.org/1999/xlink">
    <!-- Generator: Sketch 64 (93537) - https://sketch.com -->
    <title>Slice</title>
    <desc>Created with Sketch.</desc>
    <g id="Page-1" stroke="none" stroke-width="1" fill="none" fill-rule="evenodd">
        <g id="1b1b_selection3" transform="translate(0.000000, -1.000000)">
            <rect id="Rectangle" stroke="#979797" fill="#E6D9ED" fill-rule="nonzero" x="0.5" y="182.5" width="343" height="254"></rect>
            <rect id="Rectangle" stroke="#979797" fill="#EEDCDC" fill-rule="nonzero" x="170.5" y="348.5" width="41" height="31" rx="8"></rect>
            <rect id="Rectangle" stroke="#979797" fill="#EEDCDC" fill-rule="nonzero" x="123.5" y="348.5" width="46" height="31" rx="8"></rect>
            <rect id="Rectangle" stroke="#979797" fill="#EEDCDC" fill-rule="nonzero" x="164.5" y="241.5" width="46" height="31" rx="8"></rect>
            <rect id="Rectangle" stroke="#979797" fill="#EEDCDC" fill-rule="nonzero" x="212.5" y="353.5" width="5" height="17" rx="2.5"></rect>
            <rect id="Rectangle" stroke="#979797" fill="#EEDCDC" fill-rule="nonzero" x="117.5" y="353.5" width="5" height="17" rx="2.5"></rect>
            <line x1="254.5" y1="253.5" x2="341.5" y2="253.5" id="Line" stroke="#979797" stroke-linecap="square"></line>
            <rect id="Rectangle" stroke="#979797" fill="#D8D8D8" fill-rule="nonzero" x="250.5" y="241.5" width="93" height="12"></rect>
            <rect id="Rectangle" stroke="#979797" fill="#EEDCDC" fill-rule="nonzero" x="212.5" y="248.5" width="5" height="17" rx="2.5"></rect>
            <rect id="Rectangle" stroke="#979797" fill="#EEDCDC" fill-rule="nonzero" x="110.5" y="248.5" width="5" height="17" rx="2.5"></rect>
            <rect id="Rectangle" stroke="#979797" fill="#EEDCDC" fill-rule="nonzero" x="60.5" y="368.5" width="24" height="5" rx="2.5"></rect>
            <rect id="Rectangle" stroke="#979797" fill="#EEDCDC" fill-rule="nonzero" x="59.5" y="322.5" width="24" height="5" rx="2.5"></rect>
            <rect id="Rectangle" stroke="#979797" fill="#EEDCDC" fill-rule="nonzero" x="59.5" y="297.5" width="24" height="5" rx="2.5"></rect>
            <rect id="Rectangle" stroke="#979797" fill="#EEDCDC" fill-rule="nonzero" x="52.5" y="257.5" width="39" height="39" rx="8"></rect>
            <rect id="Rectangle" stroke="#979797" fill="#EEDCDC" fill-rule="nonzero" x="59.5" y="251.5" width="24" height="5" rx="2.5"></rect>
            <rect id="Rectangle" stroke="#979797" fill="#EEDCDC" fill-rule="nonzero" x="52.5" y="328.5" width="39" height="39" rx="8"></rect>
            <ellipse id="Oval" stroke="#979797" fill="#BCDDAB" fill-rule="nonzero" cx="164" cy="310.5" rx="34.5" ry="37"></ellipse>
            <rect id="Rectangle" stroke="#979797" fill="#EEDCDC" fill-rule="nonzero" x="117.5" y="241.5" width="46" height="31" rx="8"></rect>
            <rect id="Rectangle" stroke="#979797" fill="#F5E2C7" fill-rule="nonzero" x="250.5" y="241.5" width="93" height="135"></rect>
            <line x1="261" y1="249" x2="341.5" y2="309.5" id="Line-2" stroke="#979797" stroke-linecap="square"></line>
            <line x1="250" y1="248" x2="342" y2="248" id="Line-2" stroke="#979797" stroke-linecap="square"></line>
            <line x1="261.716158" y1="366.499395" x2="341.5" y2="310.5" id="Line-2" stroke="#979797" stroke-linecap="square"></line>
            <line x1="262" y1="241" x2="261.5" y2="374.5" id="Line-2" stroke="#979797" stroke-linecap="square"></line>
            <line x1="251" y1="367" x2="343" y2="367" id="Line-2" stroke="#979797" stroke-linecap="square"></line>
            <rect id="Rectangle" stroke="#979797" fill="#C0EBE9" fill-rule="nonzero" x="0.5" y="241.5" width="35" height="149"></rect>
            <line x1="0.75" y1="372.25" x2="35.25" y2="372.75" id="Line-3" stroke="#979797" stroke-linecap="square"></line>
            <line x1="0.75" y1="358.25" x2="35.25" y2="358.75" id="Line-3" stroke="#979797" stroke-linecap="square"></line>
            <line x1="0.75" y1="346.25" x2="35.25" y2="346.75" id="Line-3" stroke="#979797" stroke-linecap="square"></line>
            <line x1="0.75" y1="331.25" x2="35.25" y2="331.75" id="Line-3" stroke="#979797" stroke-linecap="square"></line>
            <line x1="0.75" y1="319.25" x2="35.25" y2="319.75" id="Line-3" stroke="#979797" stroke-linecap="square"></line>
            <line x1="0.75" y1="305.25" x2="35.25" y2="305.75" id="Line-3" stroke="#979797" stroke-linecap="square"></line>
            <line x1="0.75" y1="250.25" x2="35.25" y2="250.75" id="Line-3" stroke="#979797" stroke-linecap="square"></line>
            <line x1="1" y1="291" x2="35.5" y2="290.5" id="Line-3" stroke="#979797" stroke-linecap="square"></line>
            <line x1="0.75" y1="276.25" x2="35.25" y2="276.75" id="Line-3" stroke="#979797" stroke-linecap="square"></line>
            <ellipse id="Oval" stroke="#979797" fill="#D8D8D8" fill-rule="nonzero" cx="113" cy="316" rx="9.5" ry="8.5"></ellipse>
            <line x1="0.75" y1="265.25" x2="35.25" y2="265.75" id="Line-3" stroke="#979797" stroke-linecap="square"></line>
            <rect id="Rectangle" stroke="#979797" stroke-width="6" fill="#FFFFFF" fill-rule="nonzero" x="1" y="439" width="227" height="144"></rect>
            <line x1="93.5" y1="440.370968" x2="93.5" y2="462.629032" id="Line-4" stroke="#979797" stroke-linecap="square"></line>
            <rect id="Rectangle" stroke="#979797" fill="#FFFFFF" fill-rule="nonzero" x="107.5" y="446.5" width="29" height="47" rx="8"></rect>
            <ellipse id="Oval" stroke="#979797" fill="#FFFFFF" fill-rule="nonzero" cx="121.5" cy="474" rx="7" ry="10.5"></ellipse>
            <rect id="Rectangle" stroke="#979797" fill="#FFFFFF" fill-rule="nonzero" x="107.5" y="446.5" width="29" height="10" rx="5"></rect>
            <circle id="Oval" stroke="#979797" fill="#D8D8D8" fill-rule="nonzero" cx="42" cy="449" r="2.5"></circle>
            <rect id="Rectangle" stroke="#000000" fill="#D8D8D8" fill-rule="nonzero" x="170.5" y="440.5" width="56" height="142"></rect>
            <line x1="41.5" y1="440.368421" x2="41.5" y2="453.631579" id="Line-2" stroke="#979797" stroke-linecap="square"></line>
            <ellipse id="Oval" stroke="#979797" fill="#D8D8D8" fill-rule="nonzero" cx="214" cy="480" rx="3.5" ry="4.5"></ellipse>
            <rect id="Rectangle" stroke="#979797" fill="#FFFFFF" fill-rule="nonzero" x="3.5" y="440.5" width="78" height="54"></rect>
            <rect id="Rectangle-2" stroke="#979797" fill="#FFFFFF" fill-rule="nonzero" x="14.5" y="454.5" width="54" height="25"></rect>
            <path d="M211,445.5 L184,445.5 C181.928932,445.5 180.053932,446.339466 178.696699,447.696699 C177.339466,449.053932 176.5,450.928932 176.5,453 L176.5,568 C176.5,570.071068 177.339466,571.946068 178.696699,573.303301 C180.053932,574.660534 181.928932,575.5 184,575.5 L211,575.5 C213.071068,575.5 214.946068,574.660534 216.303301,573.303301 C217.660534,571.946068 218.5,570.071068 218.5,568 L218.5,453 C218.5,450.928932 217.660534,449.053932 216.303301,447.696699 C214.946068,446.339466 213.071068,445.5 211,445.5 Z M27.5,436.5 C26.6715729,436.5 25.9215729,436.835786 25.3786797,437.37868 C24.8357864,437.921573 24.5,438.671573 24.5,439.5 C24.5,440.328427 24.8357864,441.078427 25.3786797,441.62132 C25.9215729,442.164214 26.6715729,442.5 27.5,442.5 C28.3284271,442.5 29.0784271,442.164214 29.6213203,441.62132 C30.1642136,441.078427 30.5,440.328427 30.5,439.5 C30.5,438.671573 30.1642136,437.921573 29.6213203,437.37868 C29.0784271,436.835786 28.3284271,436.5 27.5,436.5 Z" id="Rectangle-3" stroke="#979797" fill="#FFFFFF" fill-rule="nonzero"></path>
            <line x1="214.5" y1="440.375" x2="214.5" y2="475.625" id="Line" stroke="#979797" fill="#FFFFFF" fill-rule="nonzero"></line>
            <line x1="199.5" y1="439.380952" x2="199.5" y2="470.619048" id="Line-3" stroke="#979797" stroke-linecap="square"></line>
            <ellipse id="Oval" stroke="#979797" fill="#FFFFFF" fill-rule="nonzero" cx="200" cy="476" rx="3.5" ry="4.5"></ellipse>
            <rect id="Rectangle" stroke="#979797" fill="#FFFFFF" fill-rule="nonzero" x="28.5" y="444.5" width="25" height="7" rx="3.5"></rect>
            <rect id="Rectangle" stroke="#979797" fill="#FFFFFF" fill-rule="nonzero" x="39.5" y="444.5" width="5" height="14" rx="2.5"></rect>
            <rect id="Rectangle" stroke="#979797" fill="#FFFFFF" fill-rule="nonzero" x="88.5" y="462.5" width="10" height="11"></rect>
            <circle id="Oval" stroke="#979797" fill="#D8D8D8" fill-rule="nonzero" cx="94" cy="468" r="4.5"></circle>
            <line x1="89.3846154" y1="467.25" x2="98.6153846" y2="467.75" id="Line-5" stroke="#979797" stroke-linecap="square"></line>
            <line x1="92.3571429" y1="462.392857" x2="96.6428571" y2="472.607143" id="Line-6" stroke="#979797" stroke-linecap="square"></line>
            <line x1="92.375" y1="471.636364" x2="94.625" y2="464.363636" id="Line-7" stroke="#979797" stroke-linecap="square"></line>
            <line x1="89.375" y1="469.583333" x2="97.625" y2="465.416667" id="Line-8" stroke="#979797" stroke-linecap="square"></line>
            <rect id="Rectangle" stroke="#979797" fill="#E5DFDF" fill-rule="nonzero" x="346.5" y="182.5" width="162" height="254"></rect>
            <rect id="Rectangle" stroke="#979797" fill="#D8D8D8" fill-rule="nonzero" x="344.5" y="371.5" width="89" height="66"></rect>
            <line x1="350.238095" y1="309.441176" x2="359.761905" y2="323.558824" id="Line" stroke="#979797" stroke-linecap="square"></line>
            <rect id="Rectangle" stroke="#979797" fill="#D8D8D8" fill-rule="nonzero" x="344.5" y="249.5" width="30" height="121"></rect>
            <rect id="Rectangle-2" stroke="#979797" fill="#FFFFFF" fill-rule="nonzero" x="348.5" y="257.5" width="23" height="38" rx="8"></rect>
            <rect id="Rectangle" stroke="#979797" fill="#FFFFFF" fill-rule="nonzero" x="349.5" y="310.5" width="21" height="50" rx="8"></rect>
            <path d="M346.5,302.5 C346.265691,302.5 346.045269,302.590678 345.842817,302.741624 C345.587194,302.932212 345.361497,303.214907 345.169312,303.560841 C344.751425,304.313037 344.5,305.353542 344.5,306.5 C344.5,307.646458 344.751425,308.686963 345.169312,309.439159 C345.361497,309.785093 345.587194,310.067788 345.842817,310.258376 C346.045269,310.409322 346.265691,310.5 346.5,310.5 C346.734309,310.5 346.954731,310.409322 347.157183,310.258376 C347.412806,310.067788 347.638503,309.785093 347.830688,309.439159 C348.248575,308.686963 348.5,307.646458 348.5,306.5 C348.5,305.353542 348.248575,304.313037 347.830688,303.560841 C347.638503,303.214907 347.412806,302.932212 347.157183,302.741624 C346.954731,302.590678 346.734309,302.5 346.5,302.5 Z" id="Oval-2" stroke="#979797" fill="#F7F1F1" fill-rule="nonzero"></path>
            <polygon id="Triangle" stroke="#979797" fill="#FFFFFF" fill-rule="nonzero" points="348.726529 308.878576 346.583893 310.36536 350.710141 324.008152"></polygon>
            <rect id="Rectangle" stroke="#979797" fill="#D8D8D8" fill-rule="nonzero" x="344.5" y="183.5" width="112" height="65"></rect>
            <rect id="Rectangle" stroke="#979797" fill="#D8D8D8" fill-rule="nonzero" x="434.5" y="371.5" width="33" height="66"></rect>
            <rect id="Rectangle" stroke="#979797" fill="#D8D8D8" fill-rule="nonzero" x="411.5" y="198.5" width="10" height="25" rx="5"></rect>
            <rect id="Rectangle" stroke="#979797" fill="#D8D8D8" fill-rule="nonzero" x="399.5" y="195.5" width="34" height="43"></rect>
            <rect id="Rectangle" stroke="#282727" fill="#D8D8D8" fill-rule="nonzero" x="411.5" y="196.5" width="10" height="26"></rect>
            <line x1="412.208333" y1="199.5" x2="421.791667" y2="199.5" id="Line-3" stroke="#131313" stroke-linecap="square"></line>
            <line x1="412.208333" y1="202.5" x2="421.791667" y2="202.5" id="Line-4" stroke="#030202" stroke-linecap="square"></line>
            <line x1="412.208333" y1="205.5" x2="421.791667" y2="205.5" id="Line-5" stroke="#121212" stroke-linecap="square"></line>
            <line x1="412.208333" y1="210.5" x2="421.791667" y2="210.5" id="Line-6" stroke="#131313" stroke-linecap="square"></line>
            <line x1="412.208333" y1="213.5" x2="421.791667" y2="213.5" id="Line-7" stroke="#121212" stroke-linecap="square"></line>
            <line x1="412.208333" y1="216.5" x2="421.791667" y2="216.5" id="Line-8" stroke="#1E1D1D" stroke-linecap="square"></line>
            <line x1="412.208333" y1="218.5" x2="421.791667" y2="218.5" id="Line-9" stroke="#141414" stroke-linecap="square"></line>
            <rect id="Rectangle" stroke="#303030" fill="#D8D8D8" fill-rule="nonzero" x="400.5" y="198.5" width="8" height="34" rx="4"></rect>
            <rect id="Rectangle" stroke="#2F2E2E" fill="#D8D8D8" fill-rule="nonzero" x="424.5" y="198.5" width="7" height="32" rx="3.5"></rect>
            <ellipse id="Oval" stroke="#979797" fill="#000000" fill-rule="nonzero" cx="428.5" cy="206.5" rx="1" ry="3"></ellipse>
            <ellipse id="Oval" stroke="#979797" fill="#000000" fill-rule="nonzero" cx="428.5" cy="222" rx="1" ry="2.5"></ellipse>
            <ellipse id="Oval" stroke="#979797" fill="#020202" fill-rule="nonzero" cx="405" cy="215.5" rx="1.5" ry="3"></ellipse>
            <rect id="Rectangle" stroke="#979797" fill="#BEB0B0" fill-rule="nonzero" x="344.5" y="183.5" width="27" height="26"></rect>
            <line x1="400.222222" y1="205.5" x2="407.777778" y2="205.5" id="Line-10" stroke="#979797" stroke-linecap="square"></line>
            <line x1="400.222222" y1="225.5" x2="407.777778" y2="225.5" id="Line-11" stroke="#979797" stroke-linecap="square"></line>
            <line x1="405.25" y1="199.4375" x2="405.25" y2="212.5625" id="Line-12" stroke="#979797" stroke-linecap="square"></line>
            <line x1="405.25" y1="218.46875" x2="405.25" y2="232.53125" id="Line-13" stroke="#979797" stroke-linecap="square"></line>
            <line x1="400.3" y1="216.5" x2="402.7" y2="216.5" id="Line-14" stroke="#979797" stroke-linecap="square"></line>
            <line x1="407.166667" y1="216.5" x2="407.833333" y2="216.5" id="Line-15" stroke="#979797" stroke-linecap="square"></line>
            <line x1="425.2" y1="206.5" x2="426.8" y2="206.5" id="Line-16" stroke="#979797" stroke-linecap="square"></line>
            <line x1="430.166667" y1="206.5" x2="431.833333" y2="206.5" id="Line-17" stroke="#979797" stroke-linecap="square"></line>
            <line x1="425.2" y1="222.5" x2="426.8" y2="222.5" id="Line-18" stroke="#979797" stroke-linecap="square"></line>
            <line x1="430.2" y1="222.5" x2="431.8" y2="222.5" id="Line-19" stroke="#979797" stroke-linecap="square"></line>
            <line x1="428.5" y1="198.428571" x2="428.5" y2="203.571429" id="Line-20" stroke="#979797" stroke-linecap="square"></line>
            <line x1="428.5" y1="210.384615" x2="428.5" y2="219.615385" id="Line-21" stroke="#979797" stroke-linecap="square"></line>
            <line x1="428.75" y1="225.4" x2="428.5" y2="229" id="Line-22" stroke="#979797" stroke-linecap="square"></line>
            <line x1="425.21875" y1="214.5" x2="431.78125" y2="214.5" id="Line-23" stroke="#979797" stroke-linecap="square"></line>
            <rect id="Rectangle" stroke="#979797" fill="#E6D9ED" fill-rule="nonzero" x="0.5" y="182.5" width="343" height="254"></rect>
            <rect id="Rectangle" stroke="#979797" fill="#EEDCDC" fill-rule="nonzero" x="170.5" y="348.5" width="41" height="31" rx="8"></rect>
            <rect id="Rectangle" stroke="#979797" fill="#EEDCDC" fill-rule="nonzero" x="123.5" y="348.5" width="46" height="31" rx="8"></rect>
            <rect id="Rectangle" stroke="#979797" fill="#EEDCDC" fill-rule="nonzero" x="164.5" y="241.5" width="46" height="31" rx="8"></rect>
            <rect id="Rectangle" stroke="#979797" fill="#EEDCDC" fill-rule="nonzero" x="212.5" y="353.5" width="5" height="17" rx="2.5"></rect>
            <rect id="Rectangle" stroke="#979797" fill="#EEDCDC" fill-rule="nonzero" x="117.5" y="353.5" width="5" height="17" rx="2.5"></rect>
            <line x1="254.5" y1="253.5" x2="341.5" y2="253.5" id="Line" stroke="#979797" stroke-linecap="square"></line>
            <rect id="Rectangle" stroke="#979797" fill="#D8D8D8" fill-rule="nonzero" x="250.5" y="241.5" width="93" height="12"></rect>
            <rect id="Rectangle" stroke="#979797" fill="#EEDCDC" fill-rule="nonzero" x="212.5" y="248.5" width="5" height="17" rx="2.5"></rect>
            <rect id="Rectangle" stroke="#979797" fill="#EEDCDC" fill-rule="nonzero" x="110.5" y="248.5" width="5" height="17" rx="2.5"></rect>
            <rect id="Rectangle" stroke="#979797" fill="#EEDCDC" fill-rule="nonzero" x="60.5" y="368.5" width="24" height="5" rx="2.5"></rect>
            <rect id="Rectangle" stroke="#979797" fill="#EEDCDC" fill-rule="nonzero" x="59.5" y="322.5" width="24" height="5" rx="2.5"></rect>
            <rect id="Rectangle" stroke="#979797" fill="#EEDCDC" fill-rule="nonzero" x="59.5" y="297.5" width="24" height="5" rx="2.5"></rect>
            <rect id="Rectangle" stroke="#979797" fill="#EEDCDC" fill-rule="nonzero" x="52.5" y="257.5" width="39" height="39" rx="8"></rect>
            <rect id="Rectangle" stroke="#979797" fill="#EEDCDC" fill-rule="nonzero" x="59.5" y="251.5" width="24" height="5" rx="2.5"></rect>
            <rect id="Rectangle" stroke="#979797" fill="#EEDCDC" fill-rule="nonzero" x="52.5" y="328.5" width="39" height="39" rx="8"></rect>
            <ellipse id="Oval" stroke="#979797" fill="#BCDDAB" fill-rule="nonzero" cx="164" cy="310.5" rx="34.5" ry="37"></ellipse>
            <rect id="Rectangle" stroke="#979797" fill="#EEDCDC" fill-rule="nonzero" x="117.5" y="241.5" width="46" height="31" rx="8"></rect>
            <rect id="Rectangle" stroke="#979797" fill="#F5E2C7" fill-rule="nonzero" x="250.5" y="241.5" width="93" height="135"></rect>
            <line x1="261" y1="249" x2="341.5" y2="309.5" id="Line-2" stroke="#979797" stroke-linecap="square"></line>
            <line x1="250" y1="248" x2="342" y2="248" id="Line-2" stroke="#979797" stroke-linecap="square"></line>
            <line x1="261.716158" y1="366.499395" x2="341.5" y2="310.5" id="Line-2" stroke="#979797" stroke-linecap="square"></line>
            <line x1="262" y1="241" x2="261.5" y2="374.5" id="Line-2" stroke="#979797" stroke-linecap="square"></line>
            <line x1="251" y1="367" x2="343" y2="367" id="Line-2" stroke="#979797" stroke-linecap="square"></line>
            <rect id="Rectangle" stroke="#979797" fill="#C0EBE9" fill-rule="nonzero" x="0.5" y="241.5" width="35" height="149"></rect>
            <line x1="0.75" y1="372.25" x2="35.25" y2="372.75" id="Line-3" stroke="#979797" stroke-linecap="square"></line>
            <line x1="0.75" y1="358.25" x2="35.25" y2="358.75" id="Line-3" stroke="#979797" stroke-linecap="square"></line>
            <line x1="0.75" y1="346.25" x2="35.25" y2="346.75" id="Line-3" stroke="#979797" stroke-linecap="square"></line>
            <line x1="0.75" y1="331.25" x2="35.25" y2="331.75" id="Line-3" stroke="#979797" stroke-linecap="square"></line>
            <line x1="0.75" y1="319.25" x2="35.25" y2="319.75" id="Line-3" stroke="#979797" stroke-linecap="square"></line>
            <line x1="0.75" y1="305.25" x2="35.25" y2="305.75" id="Line-3" stroke="#979797" stroke-linecap="square"></line>
            <line x1="0.75" y1="250.25" x2="35.25" y2="250.75" id="Line-3" stroke="#979797" stroke-linecap="square"></line>
            <line x1="1" y1="291" x2="35.5" y2="290.5" id="Line-3" stroke="#979797" stroke-linecap="square"></line>
            <line x1="0.75" y1="276.25" x2="35.25" y2="276.75" id="Line-3" stroke="#979797" stroke-linecap="square"></line>
            <ellipse id="Oval" stroke="#979797" fill="#D8D8D8" fill-rule="nonzero" cx="113" cy="316" rx="9.5" ry="8.5"></ellipse>
            <line x1="0.75" y1="265.25" x2="35.25" y2="265.75" id="Line-3" stroke="#979797" stroke-linecap="square"></line>
            <rect id="Rectangle" stroke="#979797" stroke-width="6" fill="#FFFFFF" fill-rule="nonzero" x="1" y="439" width="227" height="144"></rect>
            <line x1="93.5" y1="440.370968" x2="93.5" y2="462.629032" id="Line-4" stroke="#979797" stroke-linecap="square"></line>
            <rect id="Rectangle" stroke="#979797" fill="#FFFFFF" fill-rule="nonzero" x="107.5" y="446.5" width="29" height="47" rx="8"></rect>
            <ellipse id="Oval" stroke="#979797" fill="#FFFFFF" fill-rule="nonzero" cx="121.5" cy="474" rx="7" ry="10.5"></ellipse>
            <rect id="Rectangle" stroke="#979797" fill="#FFFFFF" fill-rule="nonzero" x="107.5" y="446.5" width="29" height="10" rx="5"></rect>
            <circle id="Oval" stroke="#979797" fill="#D8D8D8" fill-rule="nonzero" cx="42" cy="449" r="2.5"></circle>
            <rect id="Rectangle" stroke="#000000" fill="#D8D8D8" fill-rule="nonzero" x="170.5" y="440.5" width="56" height="142"></rect>
            <line x1="41.5" y1="440.368421" x2="41.5" y2="453.631579" id="Line-2" stroke="#979797" stroke-linecap="square"></line>
            <ellipse id="Oval" stroke="#979797" fill="#D8D8D8" fill-rule="nonzero" cx="214" cy="480" rx="3.5" ry="4.5"></ellipse>
            <rect id="Rectangle" stroke="#979797" fill="#FFFFFF" fill-rule="nonzero" x="3.5" y="440.5" width="78" height="54"></rect>
            <rect id="Rectangle-2" stroke="#979797" fill="#FFFFFF" fill-rule="nonzero" x="14.5" y="454.5" width="54" height="25"></rect>
            <path d="M211,445.5 L184,445.5 C181.928932,445.5 180.053932,446.339466 178.696699,447.696699 C177.339466,449.053932 176.5,450.928932 176.5,453 L176.5,568 C176.5,570.071068 177.339466,571.946068 178.696699,573.303301 C180.053932,574.660534 181.928932,575.5 184,575.5 L211,575.5 C213.071068,575.5 214.946068,574.660534 216.303301,573.303301 C217.660534,571.946068 218.5,570.071068 218.5,568 L218.5,453 C218.5,450.928932 217.660534,449.053932 216.303301,447.696699 C214.946068,446.339466 213.071068,445.5 211,445.5 Z M27.5,436.5 C26.6715729,436.5 25.9215729,436.835786 25.3786797,437.37868 C24.8357864,437.921573 24.5,438.671573 24.5,439.5 C24.5,440.328427 24.8357864,441.078427 25.3786797,441.62132 C25.9215729,442.164214 26.6715729,442.5 27.5,442.5 C28.3284271,442.5 29.0784271,442.164214 29.6213203,441.62132 C30.1642136,441.078427 30.5,440.328427 30.5,439.5 C30.5,438.671573 30.1642136,437.921573 29.6213203,437.37868 C29.0784271,436.835786 28.3284271,436.5 27.5,436.5 Z" id="Rectangle-3" stroke="#979797" fill="#FFFFFF" fill-rule="nonzero"></path>
            <line x1="214.5" y1="440.375" x2="214.5" y2="475.625" id="Line" stroke="#979797" fill="#FFFFFF" fill-rule="nonzero"></line>
            <line x1="199.5" y1="439.380952" x2="199.5" y2="470.619048" id="Line-3" stroke="#979797" stroke-linecap="square"></line>
            <ellipse id="Oval" stroke="#979797" fill="#FFFFFF" fill-rule="nonzero" cx="200" cy="476" rx="3.5" ry="4.5"></ellipse>
            <rect id="Rectangle" stroke="#979797" fill="#FFFFFF" fill-rule="nonzero" x="28.5" y="444.5" width="25" height="7" rx="3.5"></rect>
            <rect id="Rectangle" stroke="#979797" fill="#FFFFFF" fill-rule="nonzero" x="39.5" y="444.5" width="5" height="14" rx="2.5"></rect>
            <rect id="Rectangle" stroke="#979797" fill="#FFFFFF" fill-rule="nonzero" x="88.5" y="462.5" width="10" height="11"></rect>
            <circle id="Oval" stroke="#979797" fill="#D8D8D8" fill-rule="nonzero" cx="94" cy="468" r="4.5"></circle>
            <line x1="89.3846154" y1="467.25" x2="98.6153846" y2="467.75" id="Line-5" stroke="#979797" stroke-linecap="square"></line>
            <line x1="92.3571429" y1="462.392857" x2="96.6428571" y2="472.607143" id="Line-6" stroke="#979797" stroke-linecap="square"></line>
            <line x1="92.375" y1="471.636364" x2="94.625" y2="464.363636" id="Line-7" stroke="#979797" stroke-linecap="square"></line>
            <line x1="89.375" y1="469.583333" x2="97.625" y2="465.416667" id="Line-8" stroke="#979797" stroke-linecap="square"></line>
            <rect id="Rectangle" stroke="#979797" fill="#E5DFDF" fill-rule="nonzero" x="346.5" y="182.5" width="162" height="254"></rect>
            <rect id="Rectangle" stroke="#979797" fill="#D8D8D8" fill-rule="nonzero" x="344.5" y="371.5" width="89" height="66"></rect>
            <line x1="350.238095" y1="309.441176" x2="359.761905" y2="323.558824" id="Line" stroke="#979797" stroke-linecap="square"></line>
            <rect id="Rectangle" stroke="#979797" fill="#D8D8D8" fill-rule="nonzero" x="344.5" y="249.5" width="30" height="121"></rect>
            <rect id="Rectangle-2" stroke="#979797" fill="#FFFFFF" fill-rule="nonzero" x="348.5" y="257.5" width="23" height="38" rx="8"></rect>
            <rect id="Rectangle" stroke="#979797" fill="#FFFFFF" fill-rule="nonzero" x="349.5" y="310.5" width="21" height="50" rx="8"></rect>
            <path d="M346.5,302.5 C346.265691,302.5 346.045269,302.590678 345.842817,302.741624 C345.587194,302.932212 345.361497,303.214907 345.169312,303.560841 C344.751425,304.313037 344.5,305.353542 344.5,306.5 C344.5,307.646458 344.751425,308.686963 345.169312,309.439159 C345.361497,309.785093 345.587194,310.067788 345.842817,310.258376 C346.045269,310.409322 346.265691,310.5 346.5,310.5 C346.734309,310.5 346.954731,310.409322 347.157183,310.258376 C347.412806,310.067788 347.638503,309.785093 347.830688,309.439159 C348.248575,308.686963 348.5,307.646458 348.5,306.5 C348.5,305.353542 348.248575,304.313037 347.830688,303.560841 C347.638503,303.214907 347.412806,302.932212 347.157183,302.741624 C346.954731,302.590678 346.734309,302.5 346.5,302.5 Z" id="Oval-2" stroke="#979797" fill="#F7F1F1" fill-rule="nonzero"></path>
            <polygon id="Triangle" stroke="#979797" fill="#FFFFFF" fill-rule="nonzero" points="348.726529 308.878576 346.583893 310.36536 350.710141 324.008152"></polygon>
            <rect id="Rectangle" stroke="#979797" fill="#D8D8D8" fill-rule="nonzero" x="344.5" y="183.5" width="112" height="65"></rect>
            <rect id="Rectangle" stroke="#979797" fill="#D8D8D8" fill-rule="nonzero" x="434.5" y="371.5" width="33" height="66"></rect>
            <rect id="Rectangle" stroke="#979797" fill="#D8D8D8" fill-rule="nonzero" x="411.5" y="198.5" width="10" height="25" rx="5"></rect>
            <rect id="Rectangle" stroke="#979797" fill="#D8D8D8" fill-rule="nonzero" x="399.5" y="195.5" width="34" height="43"></rect>
            <rect id="Rectangle" stroke="#282727" fill="#D8D8D8" fill-rule="nonzero" x="411.5" y="196.5" width="10" height="26"></rect>
            <line x1="412.208333" y1="199.5" x2="421.791667" y2="199.5" id="Line-3" stroke="#131313" stroke-linecap="square"></line>
            <line x1="412.208333" y1="202.5" x2="421.791667" y2="202.5" id="Line-4" stroke="#030202" stroke-linecap="square"></line>
            <line x1="412.208333" y1="205.5" x2="421.791667" y2="205.5" id="Line-5" stroke="#121212" stroke-linecap="square"></line>
            <line x1="412.208333" y1="210.5" x2="421.791667" y2="210.5" id="Line-6" stroke="#131313" stroke-linecap="square"></line>
            <line x1="412.208333" y1="213.5" x2="421.791667" y2="213.5" id="Line-7" stroke="#121212" stroke-linecap="square"></line>
            <line x1="412.208333" y1="216.5" x2="421.791667" y2="216.5" id="Line-8" stroke="#1E1D1D" stroke-linecap="square"></line>
            <line x1="412.208333" y1="218.5" x2="421.791667" y2="218.5" id="Line-9" stroke="#141414" stroke-linecap="square"></line>
            <rect id="Rectangle" stroke="#303030" fill="#D8D8D8" fill-rule="nonzero" x="400.5" y="198.5" width="8" height="34" rx="4"></rect>
            <rect id="Rectangle" stroke="#2F2E2E" fill="#D8D8D8" fill-rule="nonzero" x="424.5" y="198.5" width="7" height="32" rx="3.5"></rect>
            <ellipse id="Oval" stroke="#979797" fill="#000000" fill-rule="nonzero" cx="428.5" cy="206.5" rx="1" ry="3"></ellipse>
            <ellipse id="Oval" stroke="#979797" fill="#000000" fill-rule="nonzero" cx="428.5" cy="222" rx="1" ry="2.5"></ellipse>
            <ellipse id="Oval" stroke="#979797" fill="#020202" fill-rule="nonzero" cx="405" cy="215.5" rx="1.5" ry="3"></ellipse>
            <rect id="Rectangle" stroke="#979797" fill="#BEB0B0" fill-rule="nonzero" x="344.5" y="183.5" width="27" height="26"></rect>
            <line x1="400.222222" y1="205.5" x2="407.777778" y2="205.5" id="Line-10" stroke="#979797" stroke-linecap="square"></line>
            <line x1="400.222222" y1="225.5" x2="407.777778" y2="225.5" id="Line-11" stroke="#979797" stroke-linecap="square"></line>
            <line x1="405.25" y1="199.4375" x2="405.25" y2="212.5625" id="Line-12" stroke="#979797" stroke-linecap="square"></line>
            <line x1="405.25" y1="218.46875" x2="405.25" y2="232.53125" id="Line-13" stroke="#979797" stroke-linecap="square"></line>
            <line x1="400.3" y1="216.5" x2="402.7" y2="216.5" id="Line-14" stroke="#979797" stroke-linecap="square"></line>
            <line x1="407.166667" y1="216.5" x2="407.833333" y2="216.5" id="Line-15" stroke="#979797" stroke-linecap="square"></line>
            <line x1="425.2" y1="206.5" x2="426.8" y2="206.5" id="Line-16" stroke="#979797" stroke-linecap="square"></line>
            <line x1="430.166667" y1="206.5" x2="431.833333" y2="206.5" id="Line-17" stroke="#979797" stroke-linecap="square"></line>
            <line x1="425.2" y1="222.5" x2="426.8" y2="222.5" id="Line-18" stroke="#979797" stroke-linecap="square"></line>
            <line x1="430.2" y1="222.5" x2="431.8" y2="222.5" id="Line-19" stroke="#979797" stroke-linecap="square"></line>
            <line x1="428.5" y1="198.428571" x2="428.5" y2="203.571429" id="Line-20" stroke="#979797" stroke-linecap="square"></line>
            <line x1="428.5" y1="210.384615" x2="428.5" y2="219.615385" id="Line-21" stroke="#979797" stroke-linecap="square"></line>
            <line x1="428.75" y1="225.4" x2="428.5" y2="229" id="Line-22" stroke="#979797" stroke-linecap="square"></line>
            <line x1="425.21875" y1="214.5" x2="431.78125" y2="214.5" id="Line-23" stroke="#979797" stroke-linecap="square"></line>
            <rect id="Rectangle" stroke="#979797" stroke-width="5" fill="#F3E8B1" fill-rule="nonzero" x="2.5" y="0.5" width="247" height="182"></rect>
            <rect id="Rectangle" stroke="#979797" fill="#CBF4D8" fill-rule="nonzero" x="25.5" y="20.5" width="77" height="124"></rect>
            <rect id="Rectangle" stroke="#979797" fill="#F7F7F7" fill-rule="nonzero" x="41.5" y="31.5" width="45" height="16"></rect>
            <rect id="Rectangle" stroke="#979797" fill="#F1B37D" fill-rule="nonzero" x="25.5" y="60.5" width="77" height="84"></rect>
            <rect id="Rectangle" stroke="#979797" fill="#FFFFFF" fill-rule="nonzero" x="115.5" y="20.5" width="104" height="19"></rect>
            <circle id="Oval" stroke="#979797" fill="#FFFFFF" fill-rule="nonzero" cx="168" cy="64" r="15.5"></circle>
        </g>
        <path d="M389,384.051499 L382.559051,395.967436 L368.273408,397.862755 L378.606449,407.059135 L376.154614,420.111362 L389,413.94538 L401.845386,420.111362 L399.393551,407.059135 L409.726592,397.862755 L395.440949,395.967436 L389,384.051499 Z" id="Star" stroke="#979797" fill="#F2E5E5"></path>
        <path d="M29,539.065365 L23.1493622,550.073288 L10.1613331,551.825754 L19.556258,560.329415 L17.3283146,572.391472 L29,566.693601 L40.6716854,572.391472 L38.443742,560.329415 L47.8386669,551.825754 L34.8506378,550.073288 L29,539.065365 Z" id="Star" stroke="#979797" fill="#FFFFFF"></path>
        <path d="M64,74.1297757 L56.3969319,89.5352745 L39.3959546,92.0056611 L51.6979773,103.997169 L48.7938637,120.929451 L64,112.935112 L79.2061363,120.929451 L76.3020227,103.997169 L88.6040454,92.0056611 L71.6030681,89.5352745 L64,74.1297757 Z" id="Star" stroke="#979797" fill="#E9EACA"></path>
        <path d="M164.5,286.129776 L157.631663,300.046546 L142.273596,302.278204 L153.386798,313.110898 L150.763327,328.406909 L164.5,321.185112 L178.236673,328.406909 L175.613202,313.110898 L186.726404,302.278204 L171.368337,300.046546 L164.5,286.129776 Z" id="Star" stroke="#979797" fill="#E3E8D1"></path>
    </g>
</svg>