<?xml version="1.0" encoding="UTF-8"?>
<svg width="633px" height="624px" viewBox="0 0 633 624" version="1.1" xmlns="http://www.w3.org/2000/svg" xmlns:xlink="http://www.w3.org/1999/xlink">
    <!-- Generator: Sketch 64 (93537) - https://sketch.com -->
    <title>Slice</title>
    <desc>Created with Sketch.</desc>
    <g id="Page-1" stroke="none" stroke-width="1" fill="none" fill-rule="evenodd">
        <g id="2b2b_selection3" transform="translate(0.000000, 10.000000)">
            <g id="Group" transform="translate(0.000000, 125.000000)" stroke="#979797">
                <rect id="Rectangle" fill="#E6D9ED" fill-rule="nonzero" x="0.5" y="0.5" width="435" height="297"></rect>
                <rect id="Rectangle" fill="#EEDCDC" fill-rule="nonzero" x="216.5" y="194.5" width="52" height="36" rx="8"></rect>
                <rect id="Rectangle" fill="#EEDCDC" fill-rule="nonzero" x="156.5" y="194.5" width="59" height="36" rx="8"></rect>
                <rect id="Rectangle" fill="#EEDCDC" fill-rule="nonzero" x="208.5" y="69.5" width="59" height="36" rx="8"></rect>
                <rect id="Rectangle" fill="#EEDCDC" fill-rule="nonzero" x="268.5" y="200.5" width="7" height="20" rx="3.5"></rect>
                <rect id="Rectangle" fill="#EEDCDC" fill-rule="nonzero" x="148.5" y="200.5" width="7" height="20" rx="3.5"></rect>
                <line x1="322.636364" y1="83.5" x2="433.363636" y2="83.5" id="Line" stroke-linecap="square"></line>
                <rect id="Rectangle" fill="#D8D8D8" fill-rule="nonzero" x="317.5" y="69.5" width="118" height="14"></rect>
                <rect id="Rectangle" fill="#EEDCDC" fill-rule="nonzero" x="268.5" y="77.5" width="7" height="20" rx="3.5"></rect>
                <rect id="Rectangle" fill="#EEDCDC" fill-rule="nonzero" x="139.5" y="77.5" width="7" height="20" rx="3.5"></rect>
                <rect id="Rectangle" fill="#EEDCDC" fill-rule="nonzero" x="76.5" y="217.5" width="31" height="6" rx="3"></rect>
                <rect id="Rectangle" fill="#EEDCDC" fill-rule="nonzero" x="75.5" y="164.5" width="31" height="6" rx="3"></rect>
                <rect id="Rectangle" fill="#EEDCDC" fill-rule="nonzero" x="75.5" y="134.5" width="31" height="6" rx="3"></rect>
                <rect id="Rectangle" fill="#EEDCDC" fill-rule="nonzero" x="66.5" y="88.5" width="50" height="46" rx="8"></rect>
                <rect id="Rectangle" fill="#EEDCDC" fill-rule="nonzero" x="75.5" y="81.5" width="31" height="6" rx="3"></rect>
                <rect id="Rectangle" fill="#EEDCDC" fill-rule="nonzero" x="66.5" y="170.5" width="50" height="46" rx="8"></rect>
                <ellipse id="Oval" fill="#BCDDAB" fill-rule="nonzero" cx="207.5" cy="150" rx="44" ry="43.5"></ellipse>
                <rect id="Rectangle" fill="#EEDCDC" fill-rule="nonzero" x="148.5" y="69.5" width="59" height="36" rx="8"></rect>
                <rect id="Rectangle" fill="#F5E2C7" fill-rule="nonzero" x="317.5" y="69.5" width="118" height="158"></rect>
                <line x1="331" y1="78" x2="433.364198" y2="148.418033" id="Line-2" stroke-linecap="square"></line>
                <line x1="316.634409" y1="77.5" x2="433.365591" y2="77.5" id="Line-2" stroke-linecap="square"></line>
                <line x1="332" y1="216.244699" x2="432.727101" y2="150.420848" id="Line-2" stroke-linecap="square"></line>
                <line x1="332.25" y1="69" x2="331.5" y2="225.414179" id="Line-2" stroke-linecap="square"></line>
                <line x1="317.634409" y1="216.5" x2="434.365591" y2="216.5" id="Line-2" stroke-linecap="square"></line>
                <rect id="Rectangle" fill="#C0EBE9" fill-rule="nonzero" x="0.5" y="69.5" width="45" height="174"></rect>
                <line x1="1" y1="222" x2="44.3714286" y2="222.5" id="Line-3" stroke-linecap="square"></line>
                <line x1="1" y1="206" x2="44.3714286" y2="206.5" id="Line-3" stroke-linecap="square"></line>
                <line x1="1" y1="192" x2="44.3714286" y2="192.5" id="Line-3" stroke-linecap="square"></line>
                <line x1="1" y1="174" x2="44.3714286" y2="174.5" id="Line-3" stroke-linecap="square"></line>
                <line x1="1" y1="160" x2="44.3714286" y2="160.5" id="Line-3" stroke-linecap="square"></line>
                <line x1="1" y1="144" x2="44.3714286" y2="144.5" id="Line-3" stroke-linecap="square"></line>
                <line x1="1" y1="80" x2="44.3714286" y2="80.5" id="Line-3" stroke-linecap="square"></line>
                <line x1="1" y1="127" x2="44.3714286" y2="126.5" id="Line-3" stroke-linecap="square"></line>
                <line x1="1" y1="110" x2="44.3714286" y2="110.5" id="Line-3" stroke-linecap="square"></line>
                <ellipse id="Oval" fill="#D8D8D8" fill-rule="nonzero" cx="143.5" cy="156.5" rx="12" ry="10"></ellipse>
                <line x1="1" y1="97" x2="44.3714286" y2="97.5" id="Line-3" stroke-linecap="square"></line>
            </g>
            <rect id="Rectangle" stroke="#979797" stroke-width="5" fill="#C5CFCE" fill-rule="nonzero" x="438.5" y="277.5" width="190" height="140"></rect>
            <rect id="Rectangle" stroke="#979797" fill="#DCDAD5" fill-rule="nonzero" x="456.5" y="291.5" width="59" height="96"></rect>
            <rect id="Rectangle" stroke="#979797" fill="#F7F7F7" fill-rule="nonzero" x="467.5" y="299.5" width="35" height="12"></rect>
            <rect id="Rectangle" stroke="#979797" fill="#A2ABAD" fill-rule="nonzero" x="456.5" y="322.5" width="59" height="65"></rect>
            <rect id="Rectangle" stroke="#979797" fill="#FFFFFF" fill-rule="nonzero" x="525.5" y="291.5" width="80" height="14"></rect>
            <ellipse id="Oval" stroke="#979797" fill="#FFFFFF" fill-rule="nonzero" cx="566.5" cy="325" rx="12" ry="12.5"></ellipse>
            <rect id="Rectangle" stroke="#979797" stroke-width="5" fill="#DBD9F6" fill-rule="nonzero" x="435.5" y="127.5" width="193" height="144"></rect>
            <rect id="Rectangle" stroke="#979797" fill="#7CCF96" fill-rule="nonzero" x="453.5" y="143.5" width="61" height="98"></rect>
            <rect id="Rectangle" stroke="#979797" fill="#F7F7F7" fill-rule="nonzero" x="466.5" y="151.5" width="35" height="13"></rect>
            <rect id="Rectangle" stroke="#979797" fill="#7DB4F1" fill-rule="nonzero" x="453.5" y="174.5" width="61" height="67"></rect>
            <rect id="Rectangle" stroke="#979797" fill="#FFFFFF" fill-rule="nonzero" x="525.5" y="143.5" width="82" height="14"></rect>
            <ellipse id="Oval" stroke="#979797" fill="#FFFFFF" fill-rule="nonzero" cx="567" cy="177.5" rx="12.5" ry="12"></ellipse>
            <rect id="Rectangle" stroke="#979797" fill="#E5DFDF" fill-rule="nonzero" x="0.5" y="425.5" width="227" height="166"></rect>
            <rect id="Rectangle" stroke="#979797" fill="#D8D8D8" fill-rule="nonzero" x="0.5" y="548.5" width="125" height="43"></rect>
            <line x1="9.3095238" y1="507.294118" x2="21.6904762" y2="516.705882" id="Line" stroke="#979797" stroke-linecap="square"></line>
            <rect id="Rectangle" stroke="#979797" fill="#D8D8D8" fill-rule="nonzero" x="0.5" y="469.5" width="43" height="78"></rect>
            <rect id="Rectangle-2" stroke="#979797" fill="#FFFFFF" fill-rule="nonzero" x="5.5" y="474.5" width="33" height="25" rx="8"></rect>
            <rect id="Rectangle" stroke="#979797" fill="#FFFFFF" fill-rule="nonzero" x="7.5" y="508.5" width="29" height="33" rx="8"></rect>
            <path d="M5.5,502.5 C4.6618195,502.5 3.9006214,502.786794 3.350522,503.258308 C2.8304944,503.704046 2.5,504.317248 2.5,505 C2.5,505.682752 2.8304944,506.295954 3.350522,506.741692 C3.9006214,507.213206 4.6618195,507.5 5.5,507.5 C6.3381805,507.5 7.0993786,507.213206 7.649478,506.741692 C8.1695056,506.295954 8.5,505.682752 8.5,505 C8.5,504.317248 8.1695056,503.704046 7.649478,503.258308 C7.0993786,502.786794 6.3381805,502.5 5.5,502.5 Z" id="Oval-2" stroke="#979797" fill="#F7F1F1" fill-rule="nonzero"></path>
            <polygon id="Triangle" stroke="#979797" fill="#FFFFFF" fill-rule="nonzero" points="8.811499 506.64019 5.7651373 507.649088 11.6317619 516.906783"></polygon>
            <rect id="Rectangle" stroke="#979797" fill="#D8D8D8" fill-rule="nonzero" x="0.5" y="425.5" width="157" height="43"></rect>
            <rect id="Rectangle" stroke="#979797" fill="#D8D8D8" fill-rule="nonzero" x="126.5" y="548.5" width="46" height="43"></rect>
            <rect id="Rectangle" stroke="#979797" fill="#D8D8D8" fill-rule="nonzero" x="94.5" y="435.5" width="14" height="16" rx="7"></rect>
            <rect id="Rectangle" stroke="#979797" fill="#D8D8D8" fill-rule="nonzero" x="77.5" y="432.5" width="48" height="28"></rect>
            <rect id="Rectangle" stroke="#282727" fill="#D8D8D8" fill-rule="nonzero" x="94.5" y="434.5" width="14" height="16"></rect>
            <line x1="94.3125" y1="436.25" x2="108.6875" y2="436.25" id="Line-3" stroke="#131313" stroke-linecap="square"></line>
            <line x1="94.3125" y1="438.25" x2="108.6875" y2="438.25" id="Line-4" stroke="#030202" stroke-linecap="square"></line>
            <line x1="94.3125" y1="440.25" x2="108.6875" y2="440.25" id="Line-5" stroke="#121212" stroke-linecap="square"></line>
            <line x1="94.3125" y1="442.5" x2="108.6875" y2="442.5" id="Line-6" stroke="#131313" stroke-linecap="square"></line>
            <line x1="94.3125" y1="445.25" x2="108.6875" y2="445.25" id="Line-7" stroke="#121212" stroke-linecap="square"></line>
            <line x1="94.3125" y1="446.5" x2="108.6875" y2="446.5" id="Line-8" stroke="#1E1D1D" stroke-linecap="square"></line>
            <line x1="94.3125" y1="449.25" x2="108.6875" y2="449.25" id="Line-9" stroke="#141414" stroke-linecap="square"></line>
            <rect id="Rectangle" stroke="#303030" fill="#D8D8D8" fill-rule="nonzero" x="79.5" y="435.5" width="11" height="22" rx="5.5"></rect>
            <rect id="Rectangle" stroke="#2F2E2E" fill="#D8D8D8" fill-rule="nonzero" x="112.5" y="435.5" width="11" height="20" rx="5.5"></rect>
            <circle id="Oval" stroke="#979797" fill="#000000" fill-rule="nonzero" cx="118" cy="440" r="1.5"></circle>
            <circle id="Oval" stroke="#979797" fill="#000000" fill-rule="nonzero" cx="118" cy="451" r="1.5"></circle>
            <ellipse id="Oval" stroke="#979797" fill="#020202" fill-rule="nonzero" cx="85" cy="446.5" rx="2.5" ry="2"></ellipse>
            <rect id="Rectangle" stroke="#979797" fill="#BEB0B0" fill-rule="nonzero" x="0.5" y="425.5" width="38" height="17"></rect>
            <line x1="79.3055556" y1="440.25" x2="89.694444" y2="440.25" id="Line-10" stroke="#979797" stroke-linecap="square"></line>
            <line x1="79.3055556" y1="452.5" x2="89.694444" y2="452.5" id="Line-11" stroke="#979797" stroke-linecap="square"></line>
            <line x1="84.5" y1="436.28125" x2="84.5" y2="444.71875" id="Line-12" stroke="#979797" stroke-linecap="square"></line>
            <line x1="84.5" y1="449.28125" x2="84.5" y2="457.71875" id="Line-13" stroke="#979797" stroke-linecap="square"></line>
            <line x1="79.3" y1="446.5" x2="81.7" y2="446.5" id="Line-14" stroke="#979797" stroke-linecap="square"></line>
            <line x1="88.333333" y1="446.5" x2="89.666667" y2="446.5" id="Line-15" stroke="#979797" stroke-linecap="square"></line>
            <line x1="113.3" y1="440.5" x2="115.7" y2="440.5" id="Line-16" stroke="#979797" stroke-linecap="square"></line>
            <line x1="120.333333" y1="440.5" x2="123.666667" y2="440.5" id="Line-17" stroke="#979797" stroke-linecap="square"></line>
            <line x1="113.3" y1="451.25" x2="115.7" y2="451.25" id="Line-18" stroke="#979797" stroke-linecap="square"></line>
            <line x1="120.3" y1="451.25" x2="122.7" y2="451.25" id="Line-19" stroke="#979797" stroke-linecap="square"></line>
            <line x1="117.5" y1="435.285714" x2="117.5" y2="438.714286" id="Line-20" stroke="#979797" stroke-linecap="square"></line>
            <line x1="117.5" y1="442.307692" x2="117.5" y2="449.692308" id="Line-21" stroke="#979797" stroke-linecap="square"></line>
            <line x1="117.75" y1="453.3" x2="117.5" y2="456" id="Line-22" stroke="#979797" stroke-linecap="square"></line>
            <line x1="113.3125" y1="445.5" x2="122.6875" y2="445.5" id="Line-23" stroke="#979797" stroke-linecap="square"></line>
            <rect id="Rectangle" stroke="#979797" fill="#FAF0CA" fill-rule="nonzero" x="228.5" y="423.5" width="207" height="183"></rect>
            <rect id="Rectangle" stroke="#979797" fill="#896F6F" fill-rule="nonzero" x="228.5" y="528.5" width="38" height="78"></rect>
            <rect id="Rectangle" stroke="#979797" fill="#A78080" fill-rule="nonzero" x="267.5" y="574.5" width="79" height="32"></rect>
            <rect id="Rectangle" stroke="#979797" fill-opacity="0.8" fill="#766666" fill-rule="nonzero" x="347.5" y="574.5" width="79" height="32"></rect>
            <rect id="Rectangle" stroke="#979797" fill="#D8D8D8" fill-rule="nonzero" x="274.5" y="486.5" width="7" height="31" rx="3.5"></rect>
            <rect id="Rectangle" stroke="#979797" fill="#5D4949" fill-rule="nonzero" x="228.5" y="423.5" width="169" height="40"></rect>
            <rect id="Rectangle" stroke="#979797" fill="#D8D8D8" fill-rule="nonzero" x="282.5" y="475.5" width="72" height="53" rx="8"></rect>
            <rect id="Rectangle" stroke="#979797" fill="#D8D8D8" fill-rule="nonzero" x="355.5" y="486.5" width="6" height="31" rx="3"></rect>
            <rect id="Rectangle" stroke="#979797" stroke-width="6" fill="#FFFFFF" fill-rule="nonzero" x="436" y="3" width="188" height="119"></rect>
            <line x1="512.5" y1="3.3064516" x2="512.5" y2="21.6935484" id="Line-4" stroke="#979797" stroke-linecap="square"></line>
            <rect id="Rectangle" stroke="#979797" fill="#FFFFFF" fill-rule="nonzero" x="524.5" y="9.5" width="24" height="39" rx="8"></rect>
            <ellipse id="Oval" stroke="#979797" fill="#FFFFFF" fill-rule="nonzero" cx="536" cy="31.5" rx="5.5" ry="9"></ellipse>
            <rect id="Rectangle" stroke="#979797" fill="#FFFFFF" fill-rule="nonzero" x="524.5" y="9.5" width="24" height="7" rx="3.5"></rect>
            <ellipse id="Oval" stroke="#979797" fill="#D8D8D8" fill-rule="nonzero" cx="469.5" cy="11" rx="2" ry="1.5"></ellipse>
            <rect id="Rectangle" stroke="#000000" fill="#D8D8D8" fill-rule="nonzero" x="576.5" y="3.5" width="47" height="119"></rect>
            <line x1="469.5" y1="3.3157895" x2="469.5" y2="14.6842105" id="Line-2" stroke="#979797" stroke-linecap="square"></line>
            <ellipse id="Oval" stroke="#979797" fill="#D8D8D8" fill-rule="nonzero" cx="613" cy="37" rx="2.5" ry="3.5"></ellipse>
            <rect id="Rectangle" stroke="#979797" fill="#FFFFFF" fill-rule="nonzero" x="437.5" y="3.5" width="65" height="45"></rect>
            <rect id="Rectangle-2" stroke="#979797" fill="#FFFFFF" fill-rule="nonzero" x="447.5" y="15.5" width="44" height="21"></rect>
            <path d="M609,8.5 L589,8.5 C586.928932,8.5 585.053932,9.3394661 583.696699,10.6966991 C582.339466,12.0539322 581.5,13.9289322 581.5,16 L581.5,109 C581.5,111.071068 582.339466,112.946068 583.696699,114.303301 C585.053932,115.660534 586.928932,116.5 589,116.5 L609,116.5 C611.071068,116.5 612.946068,115.660534 614.303301,114.303301 C615.660534,112.946068 616.5,111.071068 616.5,109 L616.5,16 C616.5,13.9289322 615.660534,12.0539322 614.303301,10.6966991 C612.946068,9.3394661 611.071068,8.5 609,8.5 Z M457,0.5 C456.309644,0.5 455.684644,0.779822 455.232233,1.232233 C454.779822,1.6846441 454.5,2.3096441 454.5,3 C454.5,3.6903559 454.779822,4.3153559 455.232233,4.767767 C455.684644,5.220178 456.309644,5.5 457,5.5 C457.690356,5.5 458.315356,5.220178 458.767767,4.767767 C459.220178,4.3153559 459.5,3.6903559 459.5,3 C459.5,2.3096441 459.220178,1.6846441 458.767767,1.232233 C458.315356,0.779822 457.690356,0.5 457,0.5 Z" id="Rectangle-3" stroke="#979797" fill="#FFFFFF" fill-rule="nonzero"></path>
            <line x1="613.5" y1="3.3125" x2="613.5" y2="32.6875" id="Line" stroke="#979797" fill="#FFFFFF" fill-rule="nonzero"></line>
            <line x1="601.25" y1="3.3095238" x2="601.25" y2="28.6904762" id="Line-3" stroke="#979797" stroke-linecap="square"></line>
            <ellipse id="Oval" stroke="#979797" fill="#FFFFFF" fill-rule="nonzero" cx="601" cy="33" rx="2.5" ry="3.5"></ellipse>
            <rect id="Rectangle" stroke="#979797" fill="#FFFFFF" fill-rule="nonzero" x="458.5" y="6.5" width="21" height="6" rx="3"></rect>
            <rect id="Rectangle" stroke="#979797" fill="#FFFFFF" fill-rule="nonzero" x="467.5" y="7.5" width="4" height="11" rx="2"></rect>
            <rect id="Rectangle" stroke="#979797" fill="#FFFFFF" fill-rule="nonzero" x="508.5" y="22.5" width="8" height="8"></rect>
            <ellipse id="Oval" stroke="#979797" fill="#D8D8D8" fill-rule="nonzero" cx="513" cy="26.5" rx="3.5" ry="4"></ellipse>
            <line x1="509.307692" y1="26.25" x2="516.692308" y2="26.75" id="Line-5" stroke="#979797" stroke-linecap="square"></line>
            <line x1="511.357143" y1="22.3214286" x2="515.642857" y2="30.6785714" id="Line-6" stroke="#979797" stroke-linecap="square"></line>
            <line x1="512.25" y1="29.6818182" x2="513.75" y2="23.3181818" id="Line-7" stroke="#979797" stroke-linecap="square"></line>
            <line x1="509.333333" y1="27.6666667" x2="516.666667" y2="24.3333333" id="Line-8" stroke="#979797" stroke-linecap="square"></line>
            <rect id="Rectangle" stroke="#979797" stroke-width="6" fill="#FFFFFF" fill-rule="nonzero" x="436" y="6" width="190" height="116"></rect>
            <line x1="512.5" y1="3.3064516" x2="512.5" y2="21.6935484" id="Line-4" stroke="#979797" stroke-linecap="square"></line>
            <rect id="Rectangle" stroke="#979797" fill="#FFFFFF" fill-rule="nonzero" x="524.5" y="9.5" width="24" height="39" rx="8"></rect>
            <ellipse id="Oval" stroke="#979797" fill="#FFFFFF" fill-rule="nonzero" cx="536" cy="31.5" rx="5.5" ry="9"></ellipse>
            <rect id="Rectangle" stroke="#000000" fill="#D8D8D8" fill-rule="nonzero" x="576.5" y="3.5" width="47" height="119"></rect>
            <ellipse id="Oval" stroke="#979797" fill="#D8D8D8" fill-rule="nonzero" cx="613" cy="37" rx="2.5" ry="3.5"></ellipse>
            <rect id="Rectangle" stroke="#979797" fill="#FFFFFF" fill-rule="nonzero" x="437.5" y="3.5" width="65" height="45"></rect>
            <path d="M609,8.5 L589,8.5 C586.928932,8.5 585.053932,9.3394661 583.696699,10.6966991 C582.339466,12.0539322 581.5,13.9289322 581.5,16 L581.5,109 C581.5,111.071068 582.339466,112.946068 583.696699,114.303301 C585.053932,115.660534 586.928932,116.5 589,116.5 L609,116.5 C611.071068,116.5 612.946068,115.660534 614.303301,114.303301 C615.660534,112.946068 616.5,111.071068 616.5,109 L616.5,16 C616.5,13.9289322 615.660534,12.0539322 614.303301,10.6966991 C612.946068,9.3394661 611.071068,8.5 609,8.5 Z M457,0.5 C456.309644,0.5 455.684644,0.779822 455.232233,1.232233 C454.779822,1.6846441 454.5,2.3096441 454.5,3 C454.5,3.6903559 454.779822,4.3153559 455.232233,4.767767 C455.684644,5.220178 456.309644,5.5 457,5.5 C457.690356,5.5 458.315356,5.220178 458.767767,4.767767 C459.220178,4.3153559 459.5,3.6903559 459.5,3 C459.5,2.3096441 459.220178,1.6846441 458.767767,1.232233 C458.315356,0.779822 457.690356,0.5 457,0.5 Z" id="Rectangle-3" stroke="#979797" fill="#FFFFFF" fill-rule="nonzero"></path>
            <line x1="613.5" y1="3.3125" x2="613.5" y2="32.6875" id="Line" stroke="#979797" fill="#FFFFFF" fill-rule="nonzero"></line>
            <line x1="601.25" y1="3.3095238" x2="601.25" y2="28.6904762" id="Line-3" stroke="#979797" stroke-linecap="square"></line>
            <ellipse id="Oval" stroke="#979797" fill="#FFFFFF" fill-rule="nonzero" cx="601" cy="33" rx="2.5" ry="3.5"></ellipse>
            <rect id="Rectangle" stroke="#979797" fill="#FFFFFF" fill-rule="nonzero" x="508.5" y="22.5" width="8" height="8"></rect>
            <ellipse id="Oval" stroke="#979797" fill="#D8D8D8" fill-rule="nonzero" cx="513" cy="26.5" rx="3.5" ry="4"></ellipse>
            <line x1="509.307692" y1="26.25" x2="516.692308" y2="26.75" id="Line-5" stroke="#979797" stroke-linecap="square"></line>
            <line x1="511.357143" y1="22.3214286" x2="515.642857" y2="30.6785714" id="Line-6" stroke="#979797" stroke-linecap="square"></line>
            <line x1="512.25" y1="29.6818182" x2="513.75" y2="23.3181818" id="Line-7" stroke="#979797" stroke-linecap="square"></line>
            <line x1="509.333333" y1="27.6666667" x2="516.666667" y2="24.3333333" id="Line-8" stroke="#979797" stroke-linecap="square"></line>
            <rect id="Rectangle-2" stroke="#979797" fill="#FFFFFF" fill-rule="nonzero" x="445.5" y="20.5" width="44" height="21"></rect>
            <rect id="Rectangle" stroke="#979797" fill="#FFFFFF" fill-rule="nonzero" x="466.5" y="15.5" width="4" height="11" rx="2"></rect>
            <rect id="Rectangle" stroke="#979797" stroke-width="6" fill="#FFFFFF" fill-rule="nonzero" x="445" y="421" width="188" height="119"></rect>
            <line x1="521.5" y1="421.306452" x2="521.5" y2="439.693548" id="Line-4" stroke="#979797" stroke-linecap="square"></line>
            <rect id="Rectangle" stroke="#979797" fill="#FFFFFF" fill-rule="nonzero" x="533.5" y="427.5" width="24" height="39" rx="8"></rect>
            <ellipse id="Oval" stroke="#979797" fill="#FFFFFF" fill-rule="nonzero" cx="545" cy="449.5" rx="5.5" ry="9"></ellipse>
            <rect id="Rectangle" stroke="#979797" fill="#FFFFFF" fill-rule="nonzero" x="531.5" y="428.5" width="24" height="7" rx="3.5"></rect>
            <ellipse id="Oval" stroke="#979797" fill="#D8D8D8" fill-rule="nonzero" cx="476.5" cy="430" rx="2" ry="1.5"></ellipse>
            <rect id="Rectangle" stroke="#000000" fill="#D8D8D8" fill-rule="nonzero" x="585.5" y="421.5" width="47" height="119"></rect>
            <line x1="476.5" y1="422.315789" x2="476.5" y2="433.684211" id="Line-2" stroke="#979797" stroke-linecap="square"></line>
            <ellipse id="Oval" stroke="#979797" fill="#D8D8D8" fill-rule="nonzero" cx="622" cy="455" rx="2.5" ry="3.5"></ellipse>
            <rect id="Rectangle" stroke="#979797" fill="#FFFFFF" fill-rule="nonzero" x="446.5" y="421.5" width="65" height="45"></rect>
            <rect id="Rectangle-2" stroke="#979797" fill="#FFFFFF" fill-rule="nonzero" x="456.5" y="433.5" width="44" height="21"></rect>
            <path d="M618,426.5 L598,426.5 C595.928932,426.5 594.053932,427.339466 592.696699,428.696699 C591.339466,430.053932 590.5,431.928932 590.5,434 L590.5,527 C590.5,529.071068 591.339466,530.946068 592.696699,532.303301 C594.053932,533.660534 595.928932,534.5 598,534.5 L618,534.5 C620.071068,534.5 621.946068,533.660534 623.303301,532.303301 C624.660534,530.946068 625.5,529.071068 625.5,527 L625.5,434 C625.5,431.928932 624.660534,430.053932 623.303301,428.696699 C621.946068,427.339466 620.071068,426.5 618,426.5 Z M466,418.5 C465.309644,418.5 464.684644,418.779822 464.232233,419.232233 C463.779822,419.684644 463.5,420.309644 463.5,421 C463.5,421.690356 463.779822,422.315356 464.232233,422.767767 C464.684644,423.220178 465.309644,423.5 466,423.5 C466.690356,423.5 467.315356,423.220178 467.767767,422.767767 C468.220178,422.315356 468.5,421.690356 468.5,421 C468.5,420.309644 468.220178,419.684644 467.767767,419.232233 C467.315356,418.779822 466.690356,418.5 466,418.5 Z" id="Rectangle-3" stroke="#979797" fill="#FFFFFF" fill-rule="nonzero"></path>
            <line x1="622.5" y1="421.3125" x2="622.5" y2="450.6875" id="Line" stroke="#979797" fill="#FFFFFF" fill-rule="nonzero"></line>
            <line x1="610.25" y1="421.309524" x2="610.25" y2="446.690476" id="Line-3" stroke="#979797" stroke-linecap="square"></line>
            <ellipse id="Oval" stroke="#979797" fill="#FFFFFF" fill-rule="nonzero" cx="610" cy="451" rx="2.5" ry="3.5"></ellipse>
            <rect id="Rectangle" stroke="#979797" fill="#FFFFFF" fill-rule="nonzero" x="465.5" y="425.5" width="21" height="6" rx="3"></rect>
            <rect id="Rectangle" stroke="#979797" fill="#FFFFFF" fill-rule="nonzero" x="474.5" y="426.5" width="4" height="11" rx="2"></rect>
            <rect id="Rectangle" stroke="#979797" fill="#FFFFFF" fill-rule="nonzero" x="517.5" y="440.5" width="8" height="8"></rect>
            <ellipse id="Oval" stroke="#979797" fill="#D8D8D8" fill-rule="nonzero" cx="522" cy="444.5" rx="3.5" ry="4"></ellipse>
            <line x1="518.307692" y1="444.25" x2="525.692308" y2="444.75" id="Line-5" stroke="#979797" stroke-linecap="square"></line>
            <line x1="520.357143" y1="440.321429" x2="524.642857" y2="448.678571" id="Line-6" stroke="#979797" stroke-linecap="square"></line>
            <line x1="521.25" y1="447.681818" x2="522.75" y2="441.318182" id="Line-7" stroke="#979797" stroke-linecap="square"></line>
            <line x1="518.333333" y1="445.666667" x2="525.666667" y2="442.333333" id="Line-8" stroke="#979797" stroke-linecap="square"></line>
            <rect id="Rectangle" stroke="#979797" stroke-width="6" fill="#FFFFFF" fill-rule="nonzero" x="438" y="421" width="188" height="119"></rect>
            <line x1="521.5" y1="421.306452" x2="521.5" y2="439.693548" id="Line-4" stroke="#979797" stroke-linecap="square"></line>
            <rect id="Rectangle" stroke="#979797" fill="#FFFFFF" fill-rule="nonzero" x="533.5" y="427.5" width="24" height="39" rx="8"></rect>
            <ellipse id="Oval" stroke="#979797" fill="#FFFFFF" fill-rule="nonzero" cx="545" cy="449.5" rx="5.5" ry="9"></ellipse>
            <rect id="Rectangle" stroke="#000000" fill="#D8D8D8" fill-rule="nonzero" x="585.5" y="421.5" width="43" height="116"></rect>
            <ellipse id="Oval" stroke="#979797" fill="#D8D8D8" fill-rule="nonzero" cx="622" cy="455" rx="2.5" ry="3.5"></ellipse>
            <rect id="Rectangle" stroke="#979797" fill="#FFFFFF" fill-rule="nonzero" x="446.5" y="421.5" width="65" height="45"></rect>
            <path d="M618,426.5 L598,426.5 C595.928932,426.5 594.053932,427.339466 592.696699,428.696699 C591.339466,430.053932 590.5,431.928932 590.5,434 L590.5,527 C590.5,529.071068 591.339466,530.946068 592.696699,532.303301 C594.053932,533.660534 595.928932,534.5 598,534.5 L618,534.5 C620.071068,534.5 621.946068,533.660534 623.303301,532.303301 C624.660534,530.946068 625.5,529.071068 625.5,527 L625.5,434 C625.5,431.928932 624.660534,430.053932 623.303301,428.696699 C621.946068,427.339466 620.071068,426.5 618,426.5 Z M466,418.5 C465.309644,418.5 464.684644,418.779822 464.232233,419.232233 C463.779822,419.684644 463.5,420.309644 463.5,421 C463.5,421.690356 463.779822,422.315356 464.232233,422.767767 C464.684644,423.220178 465.309644,423.5 466,423.5 C466.690356,423.5 467.315356,423.220178 467.767767,422.767767 C468.220178,422.315356 468.5,421.690356 468.5,421 C468.5,420.309644 468.220178,419.684644 467.767767,419.232233 C467.315356,418.779822 466.690356,418.5 466,418.5 Z" id="Rectangle-3" stroke="#979797" fill="#FFFFFF" fill-rule="nonzero"></path>
            <line x1="622.5" y1="421.3125" x2="622.5" y2="450.6875" id="Line" stroke="#979797" fill="#FFFFFF" fill-rule="nonzero"></line>
            <line x1="610.25" y1="421.309524" x2="610.25" y2="446.690476" id="Line-3" stroke="#979797" stroke-linecap="square"></line>
            <ellipse id="Oval" stroke="#979797" fill="#FFFFFF" fill-rule="nonzero" cx="610" cy="451" rx="2.5" ry="3.5"></ellipse>
            <rect id="Rectangle" stroke="#979797" fill="#FFFFFF" fill-rule="nonzero" x="517.5" y="440.5" width="8" height="8"></rect>
            <ellipse id="Oval" stroke="#979797" fill="#D8D8D8" fill-rule="nonzero" cx="522" cy="444.5" rx="3.5" ry="4"></ellipse>
            <line x1="518.307692" y1="444.25" x2="525.692308" y2="444.75" id="Line-5" stroke="#979797" stroke-linecap="square"></line>
            <line x1="520.357143" y1="440.321429" x2="524.642857" y2="448.678571" id="Line-6" stroke="#979797" stroke-linecap="square"></line>
            <line x1="521.25" y1="447.681818" x2="522.75" y2="441.318182" id="Line-7" stroke="#979797" stroke-linecap="square"></line>
            <line x1="518.333333" y1="445.666667" x2="525.666667" y2="442.333333" id="Line-8" stroke="#979797" stroke-linecap="square"></line>
            <rect id="Rectangle-2" stroke="#979797" fill="#FFFFFF" fill-rule="nonzero" x="454.5" y="438.5" width="44" height="21"></rect>
            <rect id="Rectangle" stroke="#979797" fill="#FFFFFF" fill-rule="nonzero" x="475.5" y="433.5" width="4" height="11" rx="2"></rect>
        </g>
        <polygon id="Star" stroke="#979797" fill="#88A89F" fill-rule="nonzero" points="488.604045 341 481.000977 356.405499 464 358.875885 476.302023 370.867393 473.397909 387.799675 488.604045 379.805336 503.810182 387.799675 500.906068 370.867393 513.208091 358.875885 496.207113 356.405499"></polygon>
        <polygon id="Star" stroke="#979797" fill="#CAEAE7" fill-rule="nonzero" points="482.604045 194 475.000977 209.405499 458 211.875885 470.302023 223.867393 467.397909 240.799675 482.604045 232.805336 497.810182 240.799675 494.906068 223.867393 507.208091 211.875885 490.207113 209.405499"></polygon>
        <path d="M317,492.993872 L310.547797,504.078003 L296.339265,505.828442 L306.612334,514.318375 L304.163342,526.424245 L317,520.70258 L329.836658,526.424245 L327.387666,514.318375 L337.660735,505.828442 L323.452203,504.078003 L317,492.993872 Z" id="Star" stroke="#979797" fill="#E1D494"></path>
        <polygon id="Star" stroke="#979797" fill="#FFFFFF" fill-rule="nonzero" points="463.838667 512 457.988029 523.007923 445 524.760389 454.394925 533.26405 452.166982 545.326107 463.838667 539.628236 475.510352 545.326107 473.282409 533.26405 482.677334 524.760389 469.689305 523.007923"></polygon>
        <polygon id="Star" stroke="#979797" fill="#FFFFFF" fill-rule="nonzero" points="463.838667 93 457.988029 104.007923 445 105.760389 454.394925 114.26405 452.166982 126.326107 463.838667 120.628236 475.510352 126.326107 473.282409 114.26405 482.677334 105.760389 469.689305 104.007923"></polygon>
        <polygon id="Star" stroke="#979797" fill="#E3E8D1" fill-rule="nonzero" points="208.226404 262 201.358067 275.91677 186 278.148428 197.113202 288.981122 194.489731 304.277133 208.226404 297.055336 221.963077 304.277133 219.339606 288.981122 230.452808 278.148428 215.094741 275.91677"></polygon>
        <polygon id="Star" stroke="#979797" fill="#F2E5E5" fill-rule="nonzero" points="151.726592 562 145.285643 573.915937 131 575.811256 141.333041 585.007636 138.881206 598.059863 151.726592 591.893881 164.571978 598.059863 162.120143 585.007636 172.453184 575.811256 158.167541 573.915937"></polygon>
    </g>
</svg>