<?xml version="1.0" encoding="UTF-8"?>
<svg width="673px" height="653px" viewBox="0 0 673 653" version="1.1" xmlns="http://www.w3.org/2000/svg" xmlns:xlink="http://www.w3.org/1999/xlink">
    <!-- Generator: Sketch 64 (93537) - https://sketch.com -->
    <title>Slice</title>
    <desc>Created with Sketch.</desc>
    <g id="Page-1" stroke="none" stroke-width="1" fill="none" fill-rule="evenodd">
        <g id="2b2b_selection2" transform="translate(49.000000, 0.000000)">
            <g id="Group" transform="translate(188.000000, 168.000000)" stroke="#979797">
                <rect id="Rectangle" fill="#E6D9ED" fill-rule="nonzero" x="0.5" y="0.5" width="435" height="297"></rect>
                <rect id="Rectangle" fill="#EEDCDC" fill-rule="nonzero" x="216.5" y="194.5" width="52" height="36" rx="8"></rect>
                <rect id="Rectangle" fill="#EEDCDC" fill-rule="nonzero" x="156.5" y="194.5" width="59" height="36" rx="8"></rect>
                <rect id="Rectangle" fill="#EEDCDC" fill-rule="nonzero" x="208.5" y="69.5" width="59" height="36" rx="8"></rect>
                <rect id="Rectangle" fill="#EEDCDC" fill-rule="nonzero" x="268.5" y="200.5" width="7" height="20" rx="3.5"></rect>
                <rect id="Rectangle" fill="#EEDCDC" fill-rule="nonzero" x="148.5" y="200.5" width="7" height="20" rx="3.5"></rect>
                <line x1="322.636364" y1="83.5" x2="433.363636" y2="83.5" id="Line" stroke-linecap="square"></line>
                <rect id="Rectangle" fill="#D8D8D8" fill-rule="nonzero" x="317.5" y="69.5" width="118" height="14"></rect>
                <rect id="Rectangle" fill="#EEDCDC" fill-rule="nonzero" x="268.5" y="77.5" width="7" height="20" rx="3.5"></rect>
                <rect id="Rectangle" fill="#EEDCDC" fill-rule="nonzero" x="139.5" y="77.5" width="7" height="20" rx="3.5"></rect>
                <rect id="Rectangle" fill="#EEDCDC" fill-rule="nonzero" x="76.5" y="217.5" width="31" height="6" rx="3"></rect>
                <rect id="Rectangle" fill="#EEDCDC" fill-rule="nonzero" x="75.5" y="164.5" width="31" height="6" rx="3"></rect>
                <rect id="Rectangle" fill="#EEDCDC" fill-rule="nonzero" x="75.5" y="134.5" width="31" height="6" rx="3"></rect>
                <rect id="Rectangle" fill="#EEDCDC" fill-rule="nonzero" x="66.5" y="88.5" width="50" height="46" rx="8"></rect>
                <rect id="Rectangle" fill="#EEDCDC" fill-rule="nonzero" x="75.5" y="81.5" width="31" height="6" rx="3"></rect>
                <rect id="Rectangle" fill="#EEDCDC" fill-rule="nonzero" x="66.5" y="170.5" width="50" height="46" rx="8"></rect>
                <ellipse id="Oval" fill="#BCDDAB" fill-rule="nonzero" cx="207.5" cy="150" rx="44" ry="43.5"></ellipse>
                <rect id="Rectangle" fill="#EEDCDC" fill-rule="nonzero" x="148.5" y="69.5" width="59" height="36" rx="8"></rect>
                <rect id="Rectangle" fill="#F5E2C7" fill-rule="nonzero" x="317.5" y="69.5" width="118" height="158"></rect>
                <line x1="331" y1="78" x2="433.364198" y2="148.418033" id="Line-2" stroke-linecap="square"></line>
                <line x1="316.634409" y1="77.5" x2="433.365591" y2="77.5" id="Line-2" stroke-linecap="square"></line>
                <line x1="332" y1="216.244699" x2="432.727101" y2="150.420848" id="Line-2" stroke-linecap="square"></line>
                <line x1="332.25" y1="69" x2="331.5" y2="225.414179" id="Line-2" stroke-linecap="square"></line>
                <line x1="317.634409" y1="216.5" x2="434.365591" y2="216.5" id="Line-2" stroke-linecap="square"></line>
                <rect id="Rectangle" fill="#C0EBE9" fill-rule="nonzero" x="0.5" y="69.5" width="45" height="174"></rect>
                <line x1="1" y1="222" x2="44.3714286" y2="222.5" id="Line-3" stroke-linecap="square"></line>
                <line x1="1" y1="206" x2="44.3714286" y2="206.5" id="Line-3" stroke-linecap="square"></line>
                <line x1="1" y1="192" x2="44.3714286" y2="192.5" id="Line-3" stroke-linecap="square"></line>
                <line x1="1" y1="174" x2="44.3714286" y2="174.5" id="Line-3" stroke-linecap="square"></line>
                <line x1="1" y1="160" x2="44.3714286" y2="160.5" id="Line-3" stroke-linecap="square"></line>
                <line x1="1" y1="144" x2="44.3714286" y2="144.5" id="Line-3" stroke-linecap="square"></line>
                <line x1="1" y1="80" x2="44.3714286" y2="80.5" id="Line-3" stroke-linecap="square"></line>
                <line x1="1" y1="127" x2="44.3714286" y2="126.5" id="Line-3" stroke-linecap="square"></line>
                <line x1="1" y1="110" x2="44.3714286" y2="110.5" id="Line-3" stroke-linecap="square"></line>
                <ellipse id="Oval" fill="#D8D8D8" fill-rule="nonzero" cx="143.5" cy="156.5" rx="12" ry="10"></ellipse>
                <line x1="1" y1="97" x2="44.3714286" y2="97.5" id="Line-3" stroke-linecap="square"></line>
            </g>
            <rect id="Rectangle" stroke="#979797" stroke-width="5" fill="#F3E8B1" fill-rule="nonzero" x="190.5" y="469.5" width="248" height="183"></rect>
            <rect id="Rectangle" stroke="#979797" fill="#CBF4D8" fill-rule="nonzero" x="216.5" y="494.5" width="77" height="125"></rect>
            <rect id="Rectangle" stroke="#979797" fill="#F7F7F7" fill-rule="nonzero" x="232.5" y="505.5" width="45" height="16"></rect>
            <rect id="Rectangle" stroke="#979797" fill="#F1B37D" fill-rule="nonzero" x="216.5" y="534.5" width="77" height="85"></rect>
            <rect id="Rectangle" stroke="#979797" fill="#FFFFFF" fill-rule="nonzero" x="306.5" y="494.5" width="105" height="19"></rect>
            <ellipse id="Oval" stroke="#979797" fill="#FFFFFF" fill-rule="nonzero" cx="359.5" cy="538" rx="16" ry="15.5"></ellipse>
            <rect id="Rectangle" stroke="#979797" stroke-width="5" fill="#DBD9F6" fill-rule="nonzero" x="425.5" y="21.5" width="196" height="144"></rect>
            <rect id="Rectangle" stroke="#979797" fill="#7CCF96" fill-rule="nonzero" x="443.5" y="37.5" width="61" height="98"></rect>
            <rect id="Rectangle" stroke="#979797" fill="#F7F7F7" fill-rule="nonzero" x="456.5" y="45.5" width="35" height="13"></rect>
            <rect id="Rectangle" stroke="#979797" fill="#7DB4F1" fill-rule="nonzero" x="443.5" y="68.5" width="61" height="67"></rect>
            <rect id="Rectangle" stroke="#979797" fill="#FFFFFF" fill-rule="nonzero" x="515.5" y="37.5" width="82" height="14"></rect>
            <ellipse id="Oval" stroke="#979797" fill="#FFFFFF" fill-rule="nonzero" cx="557" cy="71.5" rx="12.5" ry="12"></ellipse>
            <rect id="Rectangle" stroke="#979797" fill="#E5DFDF" fill-rule="nonzero" x="179.5" y="0.5" width="246" height="169"></rect>
            <rect id="Rectangle" stroke="#979797" fill="#D8D8D8" fill-rule="nonzero" x="179.5" y="125.5" width="135" height="44"></rect>
            <line x1="189.333333" y1="83.3235294" x2="202.666667" y2="93.676471" id="Line" stroke="#979797" stroke-linecap="square"></line>
            <rect id="Rectangle" stroke="#979797" fill="#D8D8D8" fill-rule="nonzero" x="179.5" y="45.5" width="47" height="79"></rect>
            <rect id="Rectangle-2" stroke="#979797" fill="#FFFFFF" fill-rule="nonzero" x="184.5" y="50.5" width="36" height="25" rx="8"></rect>
            <rect id="Rectangle" stroke="#979797" fill="#FFFFFF" fill-rule="nonzero" x="187.5" y="84.5" width="31" height="34" rx="8"></rect>
            <path d="M185,78.5 C184.014204,78.5 183.118654,78.793369 182.471573,79.2786797 C181.884207,79.7192039 181.5,80.321511 181.5,81 C181.5,81.678489 181.884207,82.2807961 182.471573,82.7213203 C183.118654,83.206631 184.014204,83.5 185,83.5 C185.985796,83.5 186.881346,83.206631 187.528427,82.7213203 C188.115793,82.2807961 188.5,81.678489 188.5,81 C188.5,80.321511 188.115793,79.7192039 187.528427,79.2786797 C186.881346,78.793369 185.985796,78.5 185,78.5 Z" id="Oval-2" stroke="#979797" fill="#F7F1F1" fill-rule="nonzero"></path>
            <polygon id="Triangle" stroke="#979797" fill="#FFFFFF" fill-rule="nonzero" points="188.335053 82.631009 184.78473 83.7508193 191.621873 94.026249"></polygon>
            <rect id="Rectangle" stroke="#979797" fill="#D8D8D8" fill-rule="nonzero" x="179.5" y="0.5" width="170" height="44"></rect>
            <rect id="Rectangle" stroke="#979797" fill="#D8D8D8" fill-rule="nonzero" x="315.5" y="125.5" width="50" height="44"></rect>
            <rect id="Rectangle" stroke="#979797" fill="#D8D8D8" fill-rule="nonzero" x="281.5" y="10.5" width="15" height="16" rx="7.5"></rect>
            <rect id="Rectangle" stroke="#979797" fill="#D8D8D8" fill-rule="nonzero" x="262.5" y="7.5" width="52" height="29"></rect>
            <rect id="Rectangle" stroke="#282727" fill="#D8D8D8" fill-rule="nonzero" x="281.5" y="9.5" width="15" height="16"></rect>
            <line x1="281.333333" y1="11.5" x2="296.666667" y2="11.5" id="Line-3" stroke="#131313" stroke-linecap="square"></line>
            <line x1="281.333333" y1="13.5" x2="296.666667" y2="13.5" id="Line-4" stroke="#030202" stroke-linecap="square"></line>
            <line x1="281.333333" y1="15.5" x2="296.666667" y2="15.5" id="Line-5" stroke="#121212" stroke-linecap="square"></line>
            <line x1="281.333333" y1="17.5" x2="296.666667" y2="17.5" id="Line-6" stroke="#131313" stroke-linecap="square"></line>
            <line x1="281.333333" y1="20.5" x2="296.666667" y2="20.5" id="Line-7" stroke="#121212" stroke-linecap="square"></line>
            <line x1="281.333333" y1="21.5" x2="296.666667" y2="21.5" id="Line-8" stroke="#1E1D1D" stroke-linecap="square"></line>
            <line x1="281.333333" y1="24.5" x2="296.666667" y2="24.5" id="Line-9" stroke="#141414" stroke-linecap="square"></line>
            <rect id="Rectangle" stroke="#303030" fill="#D8D8D8" fill-rule="nonzero" x="265.5" y="10.5" width="12" height="23" rx="6"></rect>
            <rect id="Rectangle" stroke="#2F2E2E" fill="#D8D8D8" fill-rule="nonzero" x="300.5" y="10.5" width="12" height="21" rx="6"></rect>
            <circle id="Oval" stroke="#979797" fill="#000000" fill-rule="nonzero" cx="307" cy="15" r="1.5"></circle>
            <ellipse id="Oval" stroke="#979797" fill="#000000" fill-rule="nonzero" cx="307" cy="26.5" rx="1.5" ry="2"></ellipse>
            <ellipse id="Oval" stroke="#979797" fill="#020202" fill-rule="nonzero" cx="271" cy="21.5" rx="2.5" ry="2"></ellipse>
            <rect id="Rectangle" stroke="#979797" fill="#BEB0B0" fill-rule="nonzero" x="179.5" y="0.5" width="41" height="17"></rect>
            <line x1="265.305556" y1="15.5" x2="275.694444" y2="15.5" id="Line-10" stroke="#979797" stroke-linecap="square"></line>
            <line x1="265.305556" y1="28" x2="275.694444" y2="28" id="Line-11" stroke="#979797" stroke-linecap="square"></line>
            <line x1="270.5" y1="11.28125" x2="270.5" y2="19.71875" id="Line-12" stroke="#979797" stroke-linecap="square"></line>
            <line x1="270.5" y1="24.3125" x2="270.5" y2="33.6875" id="Line-13" stroke="#979797" stroke-linecap="square"></line>
            <line x1="265.3" y1="21.5" x2="267.7" y2="21.5" id="Line-14" stroke="#979797" stroke-linecap="square"></line>
            <line x1="274.333333" y1="21.5" x2="275.666667" y2="21.5" id="Line-15" stroke="#979797" stroke-linecap="square"></line>
            <line x1="301.4" y1="15.5" x2="304.6" y2="15.5" id="Line-16" stroke="#979797" stroke-linecap="square"></line>
            <line x1="309.333333" y1="15.5" x2="312.666667" y2="15.5" id="Line-17" stroke="#979797" stroke-linecap="square"></line>
            <line x1="301.4" y1="26.5" x2="304.6" y2="26.5" id="Line-18" stroke="#979797" stroke-linecap="square"></line>
            <line x1="309.3" y1="26.5" x2="311.7" y2="26.5" id="Line-19" stroke="#979797" stroke-linecap="square"></line>
            <line x1="306.5" y1="10.2857143" x2="306.5" y2="13.7142857" id="Line-20" stroke="#979797" stroke-linecap="square"></line>
            <line x1="306.5" y1="17.3076923" x2="306.5" y2="24.6923077" id="Line-21" stroke="#979797" stroke-linecap="square"></line>
            <line x1="306.75" y1="29.3" x2="306.5" y2="32" id="Line-22" stroke="#979797" stroke-linecap="square"></line>
            <line x1="301.34375" y1="20.5" x2="311.65625" y2="20.5" id="Line-23" stroke="#979797" stroke-linecap="square"></line>
            <rect id="Rectangle" stroke="#979797" fill="#FAF0CA" fill-rule="nonzero" x="14.5" y="165.5" width="174" height="181"></rect>
            <rect id="Rectangle" stroke="#979797" fill="#896F6F" fill-rule="nonzero" x="14.5" y="268.5" width="31" height="78"></rect>
            <rect id="Rectangle" stroke="#979797" fill="#A78080" fill-rule="nonzero" x="46.5" y="314.5" width="64" height="32"></rect>
            <rect id="Rectangle" stroke="#979797" fill-opacity="0.8" fill="#766666" fill-rule="nonzero" x="111.5" y="314.5" width="64" height="32"></rect>
            <rect id="Rectangle" stroke="#979797" fill="#D8D8D8" fill-rule="nonzero" x="52.5" y="228.5" width="5" height="29" rx="2.5"></rect>
            <rect id="Rectangle" stroke="#979797" fill="#5D4949" fill-rule="nonzero" x="14.5" y="165.5" width="137" height="40"></rect>
            <rect id="Rectangle" stroke="#979797" fill="#D8D8D8" fill-rule="nonzero" x="58.5" y="217.5" width="58" height="51" rx="8"></rect>
            <rect id="Rectangle" stroke="#979797" fill="#D8D8D8" fill-rule="nonzero" x="117.5" y="228.5" width="5" height="29" rx="2.5"></rect>
            <rect id="Rectangle" stroke="#979797" stroke-width="6" fill="#FFFFFF" fill-rule="nonzero" x="0" y="344" width="188" height="119"></rect>
            <line x1="76.5" y1="344.306452" x2="76.5" y2="362.693548" id="Line-4" stroke="#979797" stroke-linecap="square"></line>
            <rect id="Rectangle" stroke="#979797" fill="#FFFFFF" fill-rule="nonzero" x="88.5" y="350.5" width="24" height="39" rx="8"></rect>
            <ellipse id="Oval" stroke="#979797" fill="#FFFFFF" fill-rule="nonzero" cx="100" cy="372.5" rx="5.5" ry="9"></ellipse>
            <rect id="Rectangle" stroke="#979797" fill="#FFFFFF" fill-rule="nonzero" x="88.5" y="350.5" width="24" height="7" rx="3.5"></rect>
            <ellipse id="Oval" stroke="#979797" fill="#D8D8D8" fill-rule="nonzero" cx="33.5" cy="352" rx="2" ry="1.5"></ellipse>
            <rect id="Rectangle" stroke="#000000" fill="#D8D8D8" fill-rule="nonzero" x="140.5" y="344.5" width="47" height="119"></rect>
            <line x1="33.5" y1="344.315789" x2="33.5" y2="355.684211" id="Line-2" stroke="#979797" stroke-linecap="square"></line>
            <ellipse id="Oval" stroke="#979797" fill="#D8D8D8" fill-rule="nonzero" cx="177" cy="378" rx="2.5" ry="3.5"></ellipse>
            <rect id="Rectangle" stroke="#979797" fill="#FFFFFF" fill-rule="nonzero" x="1.5" y="344.5" width="65" height="45"></rect>
            <rect id="Rectangle-2" stroke="#979797" fill="#FFFFFF" fill-rule="nonzero" x="11.5" y="356.5" width="44" height="21"></rect>
            <path d="M173,349.5 L153,349.5 C150.928932,349.5 149.053932,350.339466 147.696699,351.696699 C146.339466,353.053932 145.5,354.928932 145.5,357 L145.5,450 C145.5,452.071068 146.339466,453.946068 147.696699,455.303301 C149.053932,456.660534 150.928932,457.5 153,457.5 L173,457.5 C175.071068,457.5 176.946068,456.660534 178.303301,455.303301 C179.660534,453.946068 180.5,452.071068 180.5,450 L180.5,357 C180.5,354.928932 179.660534,353.053932 178.303301,351.696699 C176.946068,350.339466 175.071068,349.5 173,349.5 Z M21,341.5 C20.3096441,341.5 19.6846441,341.779822 19.232233,342.232233 C18.779822,342.684644 18.5,343.309644 18.5,344 C18.5,344.690356 18.779822,345.315356 19.232233,345.767767 C19.6846441,346.220178 20.3096441,346.5 21,346.5 C21.6903559,346.5 22.3153559,346.220178 22.767767,345.767767 C23.220178,345.315356 23.5,344.690356 23.5,344 C23.5,343.309644 23.220178,342.684644 22.767767,342.232233 C22.3153559,341.779822 21.6903559,341.5 21,341.5 Z" id="Rectangle-3" stroke="#979797" fill="#FFFFFF" fill-rule="nonzero"></path>
            <line x1="177.5" y1="344.3125" x2="177.5" y2="373.6875" id="Line" stroke="#979797" fill="#FFFFFF" fill-rule="nonzero"></line>
            <line x1="165.25" y1="344.309524" x2="165.25" y2="369.690476" id="Line-3" stroke="#979797" stroke-linecap="square"></line>
            <ellipse id="Oval" stroke="#979797" fill="#FFFFFF" fill-rule="nonzero" cx="165" cy="374" rx="2.5" ry="3.5"></ellipse>
            <rect id="Rectangle" stroke="#979797" fill="#FFFFFF" fill-rule="nonzero" x="22.5" y="347.5" width="21" height="6" rx="3"></rect>
            <rect id="Rectangle" stroke="#979797" fill="#FFFFFF" fill-rule="nonzero" x="31.5" y="348.5" width="4" height="11" rx="2"></rect>
            <rect id="Rectangle" stroke="#979797" fill="#FFFFFF" fill-rule="nonzero" x="72.5" y="363.5" width="8" height="8"></rect>
            <ellipse id="Oval" stroke="#979797" fill="#D8D8D8" fill-rule="nonzero" cx="77" cy="367.5" rx="3.5" ry="4"></ellipse>
            <line x1="73.307692" y1="367.25" x2="80.692308" y2="367.75" id="Line-5" stroke="#979797" stroke-linecap="square"></line>
            <line x1="75.357143" y1="363.321429" x2="79.642857" y2="371.678571" id="Line-6" stroke="#979797" stroke-linecap="square"></line>
            <line x1="76.25" y1="370.681818" x2="77.75" y2="364.318182" id="Line-7" stroke="#979797" stroke-linecap="square"></line>
            <line x1="73.333333" y1="368.666667" x2="80.666667" y2="365.333333" id="Line-8" stroke="#979797" stroke-linecap="square"></line>
            <rect id="Rectangle" stroke="#979797" stroke-width="6" fill="#FFFFFF" fill-rule="nonzero" x="0" y="344" width="188" height="119"></rect>
            <line x1="76.5" y1="344.306452" x2="76.5" y2="362.693548" id="Line-4" stroke="#979797" stroke-linecap="square"></line>
            <rect id="Rectangle" stroke="#979797" fill="#FFFFFF" fill-rule="nonzero" x="88.5" y="350.5" width="24" height="39" rx="8"></rect>
            <ellipse id="Oval" stroke="#979797" fill="#FFFFFF" fill-rule="nonzero" cx="100" cy="372.5" rx="5.5" ry="9"></ellipse>
            <rect id="Rectangle" stroke="#000000" fill="#D8D8D8" fill-rule="nonzero" x="140.5" y="344.5" width="47" height="119"></rect>
            <ellipse id="Oval" stroke="#979797" fill="#D8D8D8" fill-rule="nonzero" cx="177" cy="378" rx="2.5" ry="3.5"></ellipse>
            <rect id="Rectangle" stroke="#979797" fill="#FFFFFF" fill-rule="nonzero" x="1.5" y="344.5" width="65" height="45"></rect>
            <path d="M173,349.5 L153,349.5 C150.928932,349.5 149.053932,350.339466 147.696699,351.696699 C146.339466,353.053932 145.5,354.928932 145.5,357 L145.5,450 C145.5,452.071068 146.339466,453.946068 147.696699,455.303301 C149.053932,456.660534 150.928932,457.5 153,457.5 L173,457.5 C175.071068,457.5 176.946068,456.660534 178.303301,455.303301 C179.660534,453.946068 180.5,452.071068 180.5,450 L180.5,357 C180.5,354.928932 179.660534,353.053932 178.303301,351.696699 C176.946068,350.339466 175.071068,349.5 173,349.5 Z M21,341.5 C20.3096441,341.5 19.6846441,341.779822 19.232233,342.232233 C18.779822,342.684644 18.5,343.309644 18.5,344 C18.5,344.690356 18.779822,345.315356 19.232233,345.767767 C19.6846441,346.220178 20.3096441,346.5 21,346.5 C21.6903559,346.5 22.3153559,346.220178 22.767767,345.767767 C23.220178,345.315356 23.5,344.690356 23.5,344 C23.5,343.309644 23.220178,342.684644 22.767767,342.232233 C22.3153559,341.779822 21.6903559,341.5 21,341.5 Z" id="Rectangle-3" stroke="#979797" fill="#FFFFFF" fill-rule="nonzero"></path>
            <line x1="177.5" y1="344.3125" x2="177.5" y2="373.6875" id="Line" stroke="#979797" fill="#FFFFFF" fill-rule="nonzero"></line>
            <line x1="165.25" y1="344.309524" x2="165.25" y2="369.690476" id="Line-3" stroke="#979797" stroke-linecap="square"></line>
            <ellipse id="Oval" stroke="#979797" fill="#FFFFFF" fill-rule="nonzero" cx="165" cy="374" rx="2.5" ry="3.5"></ellipse>
            <rect id="Rectangle" stroke="#979797" fill="#FFFFFF" fill-rule="nonzero" x="72.5" y="363.5" width="8" height="8"></rect>
            <ellipse id="Oval" stroke="#979797" fill="#D8D8D8" fill-rule="nonzero" cx="77" cy="367.5" rx="3.5" ry="4"></ellipse>
            <line x1="73.307692" y1="367.25" x2="80.692308" y2="367.75" id="Line-5" stroke="#979797" stroke-linecap="square"></line>
            <line x1="75.357143" y1="363.321429" x2="79.642857" y2="371.678571" id="Line-6" stroke="#979797" stroke-linecap="square"></line>
            <line x1="76.25" y1="370.681818" x2="77.75" y2="364.318182" id="Line-7" stroke="#979797" stroke-linecap="square"></line>
            <line x1="73.333333" y1="368.666667" x2="80.666667" y2="365.333333" id="Line-8" stroke="#979797" stroke-linecap="square"></line>
            <rect id="Rectangle-2" stroke="#979797" fill="#FFFFFF" fill-rule="nonzero" x="9.5" y="361.5" width="44" height="21"></rect>
            <rect id="Rectangle" stroke="#979797" fill="#FFFFFF" fill-rule="nonzero" x="30.5" y="356.5" width="4" height="11" rx="2"></rect>
            <rect id="Rectangle" stroke="#979797" stroke-width="6" fill="#FFFFFF" fill-rule="nonzero" x="436" y="464" width="188" height="119"></rect>
            <line x1="512.5" y1="464.306452" x2="512.5" y2="482.693548" id="Line-4" stroke="#979797" stroke-linecap="square"></line>
            <rect id="Rectangle" stroke="#979797" fill="#FFFFFF" fill-rule="nonzero" x="524.5" y="470.5" width="24" height="39" rx="8"></rect>
            <ellipse id="Oval" stroke="#979797" fill="#FFFFFF" fill-rule="nonzero" cx="536" cy="492.5" rx="5.5" ry="9"></ellipse>
            <rect id="Rectangle" stroke="#979797" fill="#FFFFFF" fill-rule="nonzero" x="522.5" y="471.5" width="24" height="7" rx="3.5"></rect>
            <ellipse id="Oval" stroke="#979797" fill="#D8D8D8" fill-rule="nonzero" cx="467.5" cy="473" rx="2" ry="1.5"></ellipse>
            <rect id="Rectangle" stroke="#000000" fill="#D8D8D8" fill-rule="nonzero" x="576.5" y="464.5" width="47" height="119"></rect>
            <line x1="467.5" y1="465.315789" x2="467.5" y2="476.684211" id="Line-2" stroke="#979797" stroke-linecap="square"></line>
            <ellipse id="Oval" stroke="#979797" fill="#D8D8D8" fill-rule="nonzero" cx="613" cy="498" rx="2.5" ry="3.5"></ellipse>
            <rect id="Rectangle" stroke="#979797" fill="#FFFFFF" fill-rule="nonzero" x="437.5" y="464.5" width="65" height="45"></rect>
            <rect id="Rectangle-2" stroke="#979797" fill="#FFFFFF" fill-rule="nonzero" x="447.5" y="476.5" width="44" height="21"></rect>
            <path d="M609,469.5 L589,469.5 C586.928932,469.5 585.053932,470.339466 583.696699,471.696699 C582.339466,473.053932 581.5,474.928932 581.5,477 L581.5,570 C581.5,572.071068 582.339466,573.946068 583.696699,575.303301 C585.053932,576.660534 586.928932,577.5 589,577.5 L609,577.5 C611.071068,577.5 612.946068,576.660534 614.303301,575.303301 C615.660534,573.946068 616.5,572.071068 616.5,570 L616.5,477 C616.5,474.928932 615.660534,473.053932 614.303301,471.696699 C612.946068,470.339466 611.071068,469.5 609,469.5 Z M457,461.5 C456.309644,461.5 455.684644,461.779822 455.232233,462.232233 C454.779822,462.684644 454.5,463.309644 454.5,464 C454.5,464.690356 454.779822,465.315356 455.232233,465.767767 C455.684644,466.220178 456.309644,466.5 457,466.5 C457.690356,466.5 458.315356,466.220178 458.767767,465.767767 C459.220178,465.315356 459.5,464.690356 459.5,464 C459.5,463.309644 459.220178,462.684644 458.767767,462.232233 C458.315356,461.779822 457.690356,461.5 457,461.5 Z" id="Rectangle-3" stroke="#979797" fill="#FFFFFF" fill-rule="nonzero"></path>
            <line x1="613.5" y1="464.3125" x2="613.5" y2="493.6875" id="Line" stroke="#979797" fill="#FFFFFF" fill-rule="nonzero"></line>
            <line x1="601.25" y1="464.309524" x2="601.25" y2="489.690476" id="Line-3" stroke="#979797" stroke-linecap="square"></line>
            <ellipse id="Oval" stroke="#979797" fill="#FFFFFF" fill-rule="nonzero" cx="601" cy="494" rx="2.5" ry="3.5"></ellipse>
            <rect id="Rectangle" stroke="#979797" fill="#FFFFFF" fill-rule="nonzero" x="456.5" y="468.5" width="21" height="6" rx="3"></rect>
            <rect id="Rectangle" stroke="#979797" fill="#FFFFFF" fill-rule="nonzero" x="465.5" y="469.5" width="4" height="11" rx="2"></rect>
            <rect id="Rectangle" stroke="#979797" fill="#FFFFFF" fill-rule="nonzero" x="508.5" y="483.5" width="8" height="8"></rect>
            <ellipse id="Oval" stroke="#979797" fill="#D8D8D8" fill-rule="nonzero" cx="513" cy="487.5" rx="3.5" ry="4"></ellipse>
            <line x1="509.307692" y1="487.25" x2="516.692308" y2="487.75" id="Line-5" stroke="#979797" stroke-linecap="square"></line>
            <line x1="511.357143" y1="483.321429" x2="515.642857" y2="491.678571" id="Line-6" stroke="#979797" stroke-linecap="square"></line>
            <line x1="512.25" y1="490.681818" x2="513.75" y2="484.318182" id="Line-7" stroke="#979797" stroke-linecap="square"></line>
            <line x1="509.333333" y1="488.666667" x2="516.666667" y2="485.333333" id="Line-8" stroke="#979797" stroke-linecap="square"></line>
            <rect id="Rectangle" stroke="#979797" stroke-width="6" fill="#FFFFFF" fill-rule="nonzero" x="436" y="464" width="188" height="119"></rect>
            <line x1="512.5" y1="464.306452" x2="512.5" y2="482.693548" id="Line-4" stroke="#979797" stroke-linecap="square"></line>
            <rect id="Rectangle" stroke="#979797" fill="#FFFFFF" fill-rule="nonzero" x="524.5" y="470.5" width="24" height="39" rx="8"></rect>
            <ellipse id="Oval" stroke="#979797" fill="#FFFFFF" fill-rule="nonzero" cx="536" cy="492.5" rx="5.5" ry="9"></ellipse>
            <rect id="Rectangle" stroke="#000000" fill="#D8D8D8" fill-rule="nonzero" x="576.5" y="464.5" width="47" height="119"></rect>
            <ellipse id="Oval" stroke="#979797" fill="#D8D8D8" fill-rule="nonzero" cx="613" cy="498" rx="2.5" ry="3.5"></ellipse>
            <rect id="Rectangle" stroke="#979797" fill="#FFFFFF" fill-rule="nonzero" x="437.5" y="464.5" width="65" height="45"></rect>
            <path d="M609,469.5 L589,469.5 C586.928932,469.5 585.053932,470.339466 583.696699,471.696699 C582.339466,473.053932 581.5,474.928932 581.5,477 L581.5,570 C581.5,572.071068 582.339466,573.946068 583.696699,575.303301 C585.053932,576.660534 586.928932,577.5 589,577.5 L609,577.5 C611.071068,577.5 612.946068,576.660534 614.303301,575.303301 C615.660534,573.946068 616.5,572.071068 616.5,570 L616.5,477 C616.5,474.928932 615.660534,473.053932 614.303301,471.696699 C612.946068,470.339466 611.071068,469.5 609,469.5 Z M457,461.5 C456.309644,461.5 455.684644,461.779822 455.232233,462.232233 C454.779822,462.684644 454.5,463.309644 454.5,464 C454.5,464.690356 454.779822,465.315356 455.232233,465.767767 C455.684644,466.220178 456.309644,466.5 457,466.5 C457.690356,466.5 458.315356,466.220178 458.767767,465.767767 C459.220178,465.315356 459.5,464.690356 459.5,464 C459.5,463.309644 459.220178,462.684644 458.767767,462.232233 C458.315356,461.779822 457.690356,461.5 457,461.5 Z" id="Rectangle-3" stroke="#979797" fill="#FFFFFF" fill-rule="nonzero"></path>
            <line x1="613.5" y1="464.3125" x2="613.5" y2="493.6875" id="Line" stroke="#979797" fill="#FFFFFF" fill-rule="nonzero"></line>
            <line x1="601.25" y1="464.309524" x2="601.25" y2="489.690476" id="Line-3" stroke="#979797" stroke-linecap="square"></line>
            <ellipse id="Oval" stroke="#979797" fill="#FFFFFF" fill-rule="nonzero" cx="601" cy="494" rx="2.5" ry="3.5"></ellipse>
            <rect id="Rectangle" stroke="#979797" fill="#FFFFFF" fill-rule="nonzero" x="508.5" y="483.5" width="8" height="8"></rect>
            <ellipse id="Oval" stroke="#979797" fill="#D8D8D8" fill-rule="nonzero" cx="513" cy="487.5" rx="3.5" ry="4"></ellipse>
            <line x1="509.307692" y1="487.25" x2="516.692308" y2="487.75" id="Line-5" stroke="#979797" stroke-linecap="square"></line>
            <line x1="511.357143" y1="483.321429" x2="515.642857" y2="491.678571" id="Line-6" stroke="#979797" stroke-linecap="square"></line>
            <line x1="512.25" y1="490.681818" x2="513.75" y2="484.318182" id="Line-7" stroke="#979797" stroke-linecap="square"></line>
            <line x1="509.333333" y1="488.666667" x2="516.666667" y2="485.333333" id="Line-8" stroke="#979797" stroke-linecap="square"></line>
            <rect id="Rectangle-2" stroke="#979797" fill="#FFFFFF" fill-rule="nonzero" x="445.5" y="481.5" width="44" height="21"></rect>
            <rect id="Rectangle" stroke="#979797" fill="#FFFFFF" fill-rule="nonzero" x="466.5" y="476.5" width="4" height="11" rx="2"></rect>
        </g>
        <polygon id="Star" stroke="#979797" fill="#FFFFFF" fill-rule="nonzero" points="67.8386669 419 61.9880291 430.007923 49 431.760389 58.3949249 440.26405 56.1669815 452.326107 67.8386669 446.628236 79.5103523 452.326107 77.2824089 440.26405 86.6773338 431.760389 73.6893047 430.007923"></polygon>
        <polygon id="Star" stroke="#979797" fill="#FFFFFF" fill-rule="nonzero" points="515.838667 538 509.988029 549.007923 497 550.760389 506.394925 559.26405 504.166982 571.326107 515.838667 565.628236 527.510352 571.326107 525.282409 559.26405 534.677334 550.760389 521.689305 549.007923"></polygon>
        <polygon id="Star" stroke="#979797" fill="#E9EACA" fill-rule="nonzero" points="298.604045 548 291.000977 563.405499 274 565.875885 286.302023 577.867393 283.397909 594.799675 298.604045 586.805336 313.810182 594.799675 310.906068 577.867393 323.208091 565.875885 306.207113 563.405499"></polygon>
        <polygon id="Star" stroke="#979797" fill="#CAEAE7" fill-rule="nonzero" points="521.604045 76 514.000977 91.4054988 497 93.8758854 509.302023 105.867393 506.397909 122.799675 521.604045 114.805336 536.810182 122.799675 533.906068 105.867393 546.208091 93.8758854 529.207114 91.4054988"></polygon>
        <polygon id="Star" stroke="#979797" fill="#E3E8D1" fill-rule="nonzero" points="444.226404 295 437.358067 308.91677 422 311.148428 433.113202 321.981122 430.489731 337.277133 444.226404 330.055336 457.963077 337.277133 455.339606 321.981122 466.452808 311.148428 451.094741 308.91677"></polygon>
        <path d="M138,226.993872 L131.547797,238.078003 L117.339265,239.828442 L127.612334,248.318375 L125.163342,260.424245 L138,254.70258 L150.836658,260.424245 L148.387666,248.318375 L158.660735,239.828442 L144.452203,238.078003 L138,226.993872 Z" id="Star" stroke="#979797" fill="#E1D494"></path>
        <polygon id="Star" stroke="#979797" fill="#F2E5E5" fill-rule="nonzero" points="392.726592 133 386.285643 144.915937 372 146.811256 382.333041 156.007636 379.881206 169.059863 392.726592 162.893881 405.571978 169.059863 403.120143 156.007636 413.453184 146.811256 399.167541 144.915937"></polygon>
    </g>
</svg>