<?xml version="1.0" encoding="UTF-8"?>
<svg width="667px" height="667px" viewBox="0 0 667 667" version="1.1" xmlns="http://www.w3.org/2000/svg" xmlns:xlink="http://www.w3.org/1999/xlink">
    <!-- Generator: Sketch 64 (93537) - https://sketch.com -->
    <title>Slice</title>
    <desc>Created with Sketch.</desc>
    <g id="Page-1" stroke="none" stroke-width="1" fill="none" fill-rule="evenodd">
        <g id="2b2b_selection1" transform="translate(0.000000, 7.000000)">
            <rect id="Rectangle" stroke="#979797" stroke-width="5" fill="#F0CCCC" fill-rule="nonzero" x="233.5" y="2.5" width="247" height="182"></rect>
            <rect id="Rectangle" stroke="#979797" fill="#F3EDDE" fill-rule="nonzero" x="256.5" y="22.5" width="77" height="124"></rect>
            <rect id="Rectangle" stroke="#979797" fill="#D4F4EB" fill-rule="nonzero" x="272.5" y="33.5" width="45" height="16"></rect>
            <rect id="Rectangle" stroke="#979797" fill="#E6D5F0" fill-rule="nonzero" x="256.5" y="62.5" width="77" height="84"></rect>
            <rect id="Rectangle" stroke="#979797" fill="#FFFFFF" fill-rule="nonzero" x="346.5" y="22.5" width="104" height="19"></rect>
            <circle id="Oval" stroke="#979797" fill="#FFFFFF" fill-rule="nonzero" cx="399" cy="66" r="15.5"></circle>
            <g id="Group" transform="translate(228.000000, 178.000000)" stroke="#979797">
                <rect id="Rectangle" fill="#E6D9ED" fill-rule="nonzero" x="0.5" y="0.5" width="435" height="297"></rect>
                <rect id="Rectangle" fill="#EEDCDC" fill-rule="nonzero" x="216.5" y="194.5" width="52" height="36" rx="8"></rect>
                <rect id="Rectangle" fill="#EEDCDC" fill-rule="nonzero" x="156.5" y="194.5" width="59" height="36" rx="8"></rect>
                <rect id="Rectangle" fill="#EEDCDC" fill-rule="nonzero" x="208.5" y="69.5" width="59" height="36" rx="8"></rect>
                <rect id="Rectangle" fill="#EEDCDC" fill-rule="nonzero" x="268.5" y="200.5" width="7" height="20" rx="3.5"></rect>
                <rect id="Rectangle" fill="#EEDCDC" fill-rule="nonzero" x="148.5" y="200.5" width="7" height="20" rx="3.5"></rect>
                <line x1="322.636364" y1="83.5" x2="433.363636" y2="83.5" id="Line" stroke-linecap="square"></line>
                <rect id="Rectangle" fill="#D8D8D8" fill-rule="nonzero" x="317.5" y="69.5" width="118" height="14"></rect>
                <rect id="Rectangle" fill="#EEDCDC" fill-rule="nonzero" x="268.5" y="77.5" width="7" height="20" rx="3.5"></rect>
                <rect id="Rectangle" fill="#EEDCDC" fill-rule="nonzero" x="139.5" y="77.5" width="7" height="20" rx="3.5"></rect>
                <rect id="Rectangle" fill="#EEDCDC" fill-rule="nonzero" x="76.5" y="217.5" width="31" height="6" rx="3"></rect>
                <rect id="Rectangle" fill="#EEDCDC" fill-rule="nonzero" x="75.5" y="164.5" width="31" height="6" rx="3"></rect>
                <rect id="Rectangle" fill="#EEDCDC" fill-rule="nonzero" x="75.5" y="134.5" width="31" height="6" rx="3"></rect>
                <rect id="Rectangle" fill="#EEDCDC" fill-rule="nonzero" x="66.5" y="88.5" width="50" height="46" rx="8"></rect>
                <rect id="Rectangle" fill="#EEDCDC" fill-rule="nonzero" x="75.5" y="81.5" width="31" height="6" rx="3"></rect>
                <rect id="Rectangle" fill="#EEDCDC" fill-rule="nonzero" x="66.5" y="170.5" width="50" height="46" rx="8"></rect>
                <ellipse id="Oval" fill="#BCDDAB" fill-rule="nonzero" cx="207.5" cy="150" rx="44" ry="43.5"></ellipse>
                <rect id="Rectangle" fill="#EEDCDC" fill-rule="nonzero" x="148.5" y="69.5" width="59" height="36" rx="8"></rect>
                <rect id="Rectangle" fill="#F5E2C7" fill-rule="nonzero" x="317.5" y="69.5" width="118" height="158"></rect>
                <line x1="331" y1="78" x2="433.364198" y2="148.418033" id="Line-2" stroke-linecap="square"></line>
                <line x1="316.634409" y1="77.5" x2="433.365591" y2="77.5" id="Line-2" stroke-linecap="square"></line>
                <line x1="332" y1="216.244699" x2="432.727101" y2="150.420848" id="Line-2" stroke-linecap="square"></line>
                <line x1="332.25" y1="69" x2="331.5" y2="225.414179" id="Line-2" stroke-linecap="square"></line>
                <line x1="317.634409" y1="216.5" x2="434.365591" y2="216.5" id="Line-2" stroke-linecap="square"></line>
                <rect id="Rectangle" fill="#C0EBE9" fill-rule="nonzero" x="0.5" y="69.5" width="45" height="174"></rect>
                <line x1="1" y1="222" x2="44.3714286" y2="222.5" id="Line-3" stroke-linecap="square"></line>
                <line x1="1" y1="206" x2="44.3714286" y2="206.5" id="Line-3" stroke-linecap="square"></line>
                <line x1="1" y1="192" x2="44.3714286" y2="192.5" id="Line-3" stroke-linecap="square"></line>
                <line x1="1" y1="174" x2="44.3714286" y2="174.5" id="Line-3" stroke-linecap="square"></line>
                <line x1="1" y1="160" x2="44.3714286" y2="160.5" id="Line-3" stroke-linecap="square"></line>
                <line x1="1" y1="144" x2="44.3714286" y2="144.5" id="Line-3" stroke-linecap="square"></line>
                <line x1="1" y1="80" x2="44.3714286" y2="80.5" id="Line-3" stroke-linecap="square"></line>
                <line x1="1" y1="127" x2="44.3714286" y2="126.5" id="Line-3" stroke-linecap="square"></line>
                <line x1="1" y1="110" x2="44.3714286" y2="110.5" id="Line-3" stroke-linecap="square"></line>
                <ellipse id="Oval" fill="#D8D8D8" fill-rule="nonzero" cx="143.5" cy="156.5" rx="12" ry="10"></ellipse>
                <line x1="1" y1="97" x2="44.3714286" y2="97.5" id="Line-3" stroke-linecap="square"></line>
            </g>
            <rect id="Rectangle" stroke="#979797" stroke-width="5" fill="#F3E8B1" fill-rule="nonzero" x="226.5" y="476.5" width="248" height="183"></rect>
            <rect id="Rectangle" stroke="#979797" fill="#CBF4D8" fill-rule="nonzero" x="252.5" y="501.5" width="77" height="125"></rect>
            <rect id="Rectangle" stroke="#979797" fill="#F7F7F7" fill-rule="nonzero" x="268.5" y="512.5" width="45" height="16"></rect>
            <rect id="Rectangle" stroke="#979797" fill="#F1B37D" fill-rule="nonzero" x="252.5" y="541.5" width="77" height="85"></rect>
            <rect id="Rectangle" stroke="#979797" fill="#FFFFFF" fill-rule="nonzero" x="342.5" y="501.5" width="105" height="19"></rect>
            <ellipse id="Oval" stroke="#979797" fill="#FFFFFF" fill-rule="nonzero" cx="395.5" cy="545" rx="16" ry="15.5"></ellipse>
            <rect id="Rectangle" stroke="#979797" fill="#E5DFDF" fill-rule="nonzero" x="0.5" y="176.5" width="227" height="166"></rect>
            <rect id="Rectangle" stroke="#979797" fill="#D8D8D8" fill-rule="nonzero" x="0.5" y="299.5" width="125" height="43"></rect>
            <line x1="9.3095238" y1="258.294118" x2="21.6904762" y2="267.705882" id="Line" stroke="#979797" stroke-linecap="square"></line>
            <rect id="Rectangle" stroke="#979797" fill="#D8D8D8" fill-rule="nonzero" x="0.5" y="220.5" width="43" height="78"></rect>
            <rect id="Rectangle-2" stroke="#979797" fill="#FFFFFF" fill-rule="nonzero" x="5.5" y="225.5" width="33" height="25" rx="8"></rect>
            <rect id="Rectangle" stroke="#979797" fill="#FFFFFF" fill-rule="nonzero" x="7.5" y="259.5" width="29" height="33" rx="8"></rect>
            <path d="M5.5,253.5 C4.6618195,253.5 3.9006214,253.786794 3.350522,254.258308 C2.8304944,254.704046 2.5,255.317248 2.5,256 C2.5,256.682752 2.8304944,257.295954 3.350522,257.741692 C3.9006214,258.213206 4.6618195,258.5 5.5,258.5 C6.3381805,258.5 7.0993786,258.213206 7.649478,257.741692 C8.1695056,257.295954 8.5,256.682752 8.5,256 C8.5,255.317248 8.1695056,254.704046 7.649478,254.258308 C7.0993786,253.786794 6.3381805,253.5 5.5,253.5 Z" id="Oval-2" stroke="#979797" fill="#F7F1F1" fill-rule="nonzero"></path>
            <polygon id="Triangle" stroke="#979797" fill="#FFFFFF" fill-rule="nonzero" points="8.811499 257.64019 5.7651373 258.649088 11.6317619 267.906783"></polygon>
            <rect id="Rectangle" stroke="#979797" fill="#D8D8D8" fill-rule="nonzero" x="0.5" y="176.5" width="157" height="43"></rect>
            <rect id="Rectangle" stroke="#979797" fill="#D8D8D8" fill-rule="nonzero" x="126.5" y="299.5" width="46" height="43"></rect>
            <rect id="Rectangle" stroke="#979797" fill="#D8D8D8" fill-rule="nonzero" x="94.5" y="186.5" width="14" height="16" rx="7"></rect>
            <rect id="Rectangle" stroke="#979797" fill="#D8D8D8" fill-rule="nonzero" x="77.5" y="183.5" width="48" height="28"></rect>
            <rect id="Rectangle" stroke="#282727" fill="#D8D8D8" fill-rule="nonzero" x="94.5" y="185.5" width="14" height="16"></rect>
            <line x1="94.3125" y1="187.25" x2="108.6875" y2="187.25" id="Line-3" stroke="#131313" stroke-linecap="square"></line>
            <line x1="94.3125" y1="189.25" x2="108.6875" y2="189.25" id="Line-4" stroke="#030202" stroke-linecap="square"></line>
            <line x1="94.3125" y1="191.25" x2="108.6875" y2="191.25" id="Line-5" stroke="#121212" stroke-linecap="square"></line>
            <line x1="94.3125" y1="193.5" x2="108.6875" y2="193.5" id="Line-6" stroke="#131313" stroke-linecap="square"></line>
            <line x1="94.3125" y1="196.25" x2="108.6875" y2="196.25" id="Line-7" stroke="#121212" stroke-linecap="square"></line>
            <line x1="94.3125" y1="197.5" x2="108.6875" y2="197.5" id="Line-8" stroke="#1E1D1D" stroke-linecap="square"></line>
            <line x1="94.3125" y1="200.25" x2="108.6875" y2="200.25" id="Line-9" stroke="#141414" stroke-linecap="square"></line>
            <rect id="Rectangle" stroke="#303030" fill="#D8D8D8" fill-rule="nonzero" x="79.5" y="186.5" width="11" height="22" rx="5.5"></rect>
            <rect id="Rectangle" stroke="#2F2E2E" fill="#D8D8D8" fill-rule="nonzero" x="112.5" y="186.5" width="11" height="20" rx="5.5"></rect>
            <circle id="Oval" stroke="#979797" fill="#000000" fill-rule="nonzero" cx="118" cy="191" r="1.5"></circle>
            <circle id="Oval" stroke="#979797" fill="#000000" fill-rule="nonzero" cx="118" cy="202" r="1.5"></circle>
            <ellipse id="Oval" stroke="#979797" fill="#020202" fill-rule="nonzero" cx="85" cy="197.5" rx="2.5" ry="2"></ellipse>
            <rect id="Rectangle" stroke="#979797" fill="#BEB0B0" fill-rule="nonzero" x="0.5" y="176.5" width="38" height="17"></rect>
            <line x1="79.3055556" y1="191.25" x2="89.694444" y2="191.25" id="Line-10" stroke="#979797" stroke-linecap="square"></line>
            <line x1="79.3055556" y1="203.5" x2="89.694444" y2="203.5" id="Line-11" stroke="#979797" stroke-linecap="square"></line>
            <line x1="84.5" y1="187.28125" x2="84.5" y2="195.71875" id="Line-12" stroke="#979797" stroke-linecap="square"></line>
            <line x1="84.5" y1="200.28125" x2="84.5" y2="208.71875" id="Line-13" stroke="#979797" stroke-linecap="square"></line>
            <line x1="79.3" y1="197.5" x2="81.7" y2="197.5" id="Line-14" stroke="#979797" stroke-linecap="square"></line>
            <line x1="88.333333" y1="197.5" x2="89.666667" y2="197.5" id="Line-15" stroke="#979797" stroke-linecap="square"></line>
            <line x1="113.3" y1="191.5" x2="115.7" y2="191.5" id="Line-16" stroke="#979797" stroke-linecap="square"></line>
            <line x1="120.333333" y1="191.5" x2="123.666667" y2="191.5" id="Line-17" stroke="#979797" stroke-linecap="square"></line>
            <line x1="113.3" y1="202.25" x2="115.7" y2="202.25" id="Line-18" stroke="#979797" stroke-linecap="square"></line>
            <line x1="120.3" y1="202.25" x2="122.7" y2="202.25" id="Line-19" stroke="#979797" stroke-linecap="square"></line>
            <line x1="117.5" y1="186.285714" x2="117.5" y2="189.714286" id="Line-20" stroke="#979797" stroke-linecap="square"></line>
            <line x1="117.5" y1="193.307692" x2="117.5" y2="200.692308" id="Line-21" stroke="#979797" stroke-linecap="square"></line>
            <line x1="117.75" y1="204.3" x2="117.5" y2="207" id="Line-22" stroke="#979797" stroke-linecap="square"></line>
            <line x1="113.3125" y1="196.5" x2="122.6875" y2="196.5" id="Line-23" stroke="#979797" stroke-linecap="square"></line>
            <rect id="Rectangle" stroke="#979797" fill="#FAF0CA" fill-rule="nonzero" x="483.5" y="0.5" width="174" height="181"></rect>
            <rect id="Rectangle" stroke="#979797" fill="#896F6F" fill-rule="nonzero" x="483.5" y="103.5" width="31" height="78"></rect>
            <rect id="Rectangle" stroke="#979797" fill="#A78080" fill-rule="nonzero" x="515.5" y="149.5" width="64" height="32"></rect>
            <rect id="Rectangle" stroke="#979797" fill-opacity="0.8" fill="#766666" fill-rule="nonzero" x="580.5" y="149.5" width="64" height="32"></rect>
            <rect id="Rectangle" stroke="#979797" fill="#D8D8D8" fill-rule="nonzero" x="521.5" y="63.5" width="5" height="29" rx="2.5"></rect>
            <rect id="Rectangle" stroke="#979797" fill="#5D4949" fill-rule="nonzero" x="483.5" y="0.5" width="137" height="40"></rect>
            <rect id="Rectangle" stroke="#979797" fill="#D8D8D8" fill-rule="nonzero" x="527.5" y="52.5" width="58" height="51" rx="8"></rect>
            <rect id="Rectangle" stroke="#979797" fill="#D8D8D8" fill-rule="nonzero" x="586.5" y="63.5" width="5" height="29" rx="2.5"></rect>
            <rect id="Rectangle" stroke="#979797" stroke-width="6" fill="#FFFFFF" fill-rule="nonzero" x="479" y="479" width="188" height="119"></rect>
            <line x1="555.5" y1="479.306452" x2="555.5" y2="497.693548" id="Line-4" stroke="#979797" stroke-linecap="square"></line>
            <rect id="Rectangle" stroke="#979797" fill="#FFFFFF" fill-rule="nonzero" x="567.5" y="485.5" width="24" height="39" rx="8"></rect>
            <ellipse id="Oval" stroke="#979797" fill="#FFFFFF" fill-rule="nonzero" cx="579" cy="507.5" rx="5.5" ry="9"></ellipse>
            <rect id="Rectangle" stroke="#979797" fill="#FFFFFF" fill-rule="nonzero" x="567.5" y="485.5" width="24" height="7" rx="3.5"></rect>
            <ellipse id="Oval" stroke="#979797" fill="#D8D8D8" fill-rule="nonzero" cx="512.5" cy="487" rx="2" ry="1.5"></ellipse>
            <rect id="Rectangle" stroke="#000000" fill="#D8D8D8" fill-rule="nonzero" x="619.5" y="479.5" width="47" height="119"></rect>
            <line x1="512.5" y1="479.315789" x2="512.5" y2="490.684211" id="Line-2" stroke="#979797" stroke-linecap="square"></line>
            <ellipse id="Oval" stroke="#979797" fill="#D8D8D8" fill-rule="nonzero" cx="656" cy="513" rx="2.5" ry="3.5"></ellipse>
            <rect id="Rectangle" stroke="#979797" fill="#FFFFFF" fill-rule="nonzero" x="480.5" y="479.5" width="65" height="45"></rect>
            <rect id="Rectangle-2" stroke="#979797" fill="#FFFFFF" fill-rule="nonzero" x="490.5" y="491.5" width="44" height="21"></rect>
            <path d="M652,484.5 L632,484.5 C629.928932,484.5 628.053932,485.339466 626.696699,486.696699 C625.339466,488.053932 624.5,489.928932 624.5,492 L624.5,585 C624.5,587.071068 625.339466,588.946068 626.696699,590.303301 C628.053932,591.660534 629.928932,592.5 632,592.5 L652,592.5 C654.071068,592.5 655.946068,591.660534 657.303301,590.303301 C658.660534,588.946068 659.5,587.071068 659.5,585 L659.5,492 C659.5,489.928932 658.660534,488.053932 657.303301,486.696699 C655.946068,485.339466 654.071068,484.5 652,484.5 Z M500,476.5 C499.309644,476.5 498.684644,476.779822 498.232233,477.232233 C497.779822,477.684644 497.5,478.309644 497.5,479 C497.5,479.690356 497.779822,480.315356 498.232233,480.767767 C498.684644,481.220178 499.309644,481.5 500,481.5 C500.690356,481.5 501.315356,481.220178 501.767767,480.767767 C502.220178,480.315356 502.5,479.690356 502.5,479 C502.5,478.309644 502.220178,477.684644 501.767767,477.232233 C501.315356,476.779822 500.690356,476.5 500,476.5 Z" id="Rectangle-3" stroke="#979797" fill="#FFFFFF" fill-rule="nonzero"></path>
            <line x1="656.5" y1="479.3125" x2="656.5" y2="508.6875" id="Line" stroke="#979797" fill="#FFFFFF" fill-rule="nonzero"></line>
            <line x1="644.25" y1="479.309524" x2="644.25" y2="504.690476" id="Line-3" stroke="#979797" stroke-linecap="square"></line>
            <ellipse id="Oval" stroke="#979797" fill="#FFFFFF" fill-rule="nonzero" cx="644" cy="509" rx="2.5" ry="3.5"></ellipse>
            <rect id="Rectangle" stroke="#979797" fill="#FFFFFF" fill-rule="nonzero" x="501.5" y="482.5" width="21" height="6" rx="3"></rect>
            <rect id="Rectangle" stroke="#979797" fill="#FFFFFF" fill-rule="nonzero" x="510.5" y="483.5" width="4" height="11" rx="2"></rect>
            <rect id="Rectangle" stroke="#979797" fill="#FFFFFF" fill-rule="nonzero" x="551.5" y="498.5" width="8" height="8"></rect>
            <ellipse id="Oval" stroke="#979797" fill="#D8D8D8" fill-rule="nonzero" cx="556" cy="502.5" rx="3.5" ry="4"></ellipse>
            <line x1="552.307692" y1="502.25" x2="559.692308" y2="502.75" id="Line-5" stroke="#979797" stroke-linecap="square"></line>
            <line x1="554.357143" y1="498.321429" x2="558.642857" y2="506.678571" id="Line-6" stroke="#979797" stroke-linecap="square"></line>
            <line x1="555.25" y1="505.681818" x2="556.75" y2="499.318182" id="Line-7" stroke="#979797" stroke-linecap="square"></line>
            <line x1="552.333333" y1="503.666667" x2="559.666667" y2="500.333333" id="Line-8" stroke="#979797" stroke-linecap="square"></line>
            <rect id="Rectangle" stroke="#979797" stroke-width="6" fill="#FFFFFF" fill-rule="nonzero" x="479" y="479" width="188" height="119"></rect>
            <line x1="555.5" y1="479.306452" x2="555.5" y2="497.693548" id="Line-4" stroke="#979797" stroke-linecap="square"></line>
            <rect id="Rectangle" stroke="#979797" fill="#FFFFFF" fill-rule="nonzero" x="567.5" y="485.5" width="24" height="39" rx="8"></rect>
            <ellipse id="Oval" stroke="#979797" fill="#FFFFFF" fill-rule="nonzero" cx="579" cy="507.5" rx="5.5" ry="9"></ellipse>
            <rect id="Rectangle" stroke="#000000" fill="#D8D8D8" fill-rule="nonzero" x="619.5" y="479.5" width="47" height="119"></rect>
            <ellipse id="Oval" stroke="#979797" fill="#D8D8D8" fill-rule="nonzero" cx="656" cy="513" rx="2.5" ry="3.5"></ellipse>
            <rect id="Rectangle" stroke="#979797" fill="#FFFFFF" fill-rule="nonzero" x="480.5" y="479.5" width="65" height="45"></rect>
            <path d="M652,484.5 L632,484.5 C629.928932,484.5 628.053932,485.339466 626.696699,486.696699 C625.339466,488.053932 624.5,489.928932 624.5,492 L624.5,585 C624.5,587.071068 625.339466,588.946068 626.696699,590.303301 C628.053932,591.660534 629.928932,592.5 632,592.5 L652,592.5 C654.071068,592.5 655.946068,591.660534 657.303301,590.303301 C658.660534,588.946068 659.5,587.071068 659.5,585 L659.5,492 C659.5,489.928932 658.660534,488.053932 657.303301,486.696699 C655.946068,485.339466 654.071068,484.5 652,484.5 Z M500,476.5 C499.309644,476.5 498.684644,476.779822 498.232233,477.232233 C497.779822,477.684644 497.5,478.309644 497.5,479 C497.5,479.690356 497.779822,480.315356 498.232233,480.767767 C498.684644,481.220178 499.309644,481.5 500,481.5 C500.690356,481.5 501.315356,481.220178 501.767767,480.767767 C502.220178,480.315356 502.5,479.690356 502.5,479 C502.5,478.309644 502.220178,477.684644 501.767767,477.232233 C501.315356,476.779822 500.690356,476.5 500,476.5 Z" id="Rectangle-3" stroke="#979797" fill="#FFFFFF" fill-rule="nonzero"></path>
            <line x1="656.5" y1="479.3125" x2="656.5" y2="508.6875" id="Line" stroke="#979797" fill="#FFFFFF" fill-rule="nonzero"></line>
            <line x1="644.25" y1="479.309524" x2="644.25" y2="504.690476" id="Line-3" stroke="#979797" stroke-linecap="square"></line>
            <ellipse id="Oval" stroke="#979797" fill="#FFFFFF" fill-rule="nonzero" cx="644" cy="509" rx="2.5" ry="3.5"></ellipse>
            <rect id="Rectangle" stroke="#979797" fill="#FFFFFF" fill-rule="nonzero" x="551.5" y="498.5" width="8" height="8"></rect>
            <ellipse id="Oval" stroke="#979797" fill="#D8D8D8" fill-rule="nonzero" cx="556" cy="502.5" rx="3.5" ry="4"></ellipse>
            <line x1="552.307692" y1="502.25" x2="559.692308" y2="502.75" id="Line-5" stroke="#979797" stroke-linecap="square"></line>
            <line x1="554.357143" y1="498.321429" x2="558.642857" y2="506.678571" id="Line-6" stroke="#979797" stroke-linecap="square"></line>
            <line x1="555.25" y1="505.681818" x2="556.75" y2="499.318182" id="Line-7" stroke="#979797" stroke-linecap="square"></line>
            <line x1="552.333333" y1="503.666667" x2="559.666667" y2="500.333333" id="Line-8" stroke="#979797" stroke-linecap="square"></line>
            <rect id="Rectangle" stroke="#979797" stroke-width="6" fill="#FFFFFF" fill-rule="nonzero" x="37" y="347" width="188" height="119"></rect>
            <line x1="113.5" y1="347.306452" x2="113.5" y2="365.693548" id="Line-4" stroke="#979797" stroke-linecap="square"></line>
            <rect id="Rectangle" stroke="#979797" fill="#FFFFFF" fill-rule="nonzero" x="125.5" y="353.5" width="24" height="39" rx="8"></rect>
            <ellipse id="Oval" stroke="#979797" fill="#FFFFFF" fill-rule="nonzero" cx="137" cy="375.5" rx="5.5" ry="9"></ellipse>
            <rect id="Rectangle" stroke="#979797" fill="#FFFFFF" fill-rule="nonzero" x="125.5" y="353.5" width="24" height="7" rx="3.5"></rect>
            <rect id="Rectangle" stroke="#000000" fill="#D8D8D8" fill-rule="nonzero" x="177.5" y="347.5" width="47" height="119"></rect>
            <ellipse id="Oval" stroke="#979797" fill="#D8D8D8" fill-rule="nonzero" cx="214" cy="381" rx="2.5" ry="3.5"></ellipse>
            <rect id="Rectangle" stroke="#979797" fill="#FFFFFF" fill-rule="nonzero" x="38.5" y="347.5" width="65" height="45"></rect>
            <rect id="Rectangle-2" stroke="#979797" fill="#FFFFFF" fill-rule="nonzero" x="48.5" y="359.5" width="44" height="21"></rect>
            <rect id="Rectangle-2" stroke="#979797" fill="#FFFFFF" fill-rule="nonzero" x="488.5" y="496.5" width="44" height="21"></rect>
            <path d="M210,352.5 L190,352.5 C187.928932,352.5 186.053932,353.339466 184.696699,354.696699 C183.339466,356.053932 182.5,357.928932 182.5,360 L182.5,453 C182.5,455.071068 183.339466,456.946068 184.696699,458.303301 C186.053932,459.660534 187.928932,460.5 190,460.5 L210,460.5 C212.071068,460.5 213.946068,459.660534 215.303301,458.303301 C216.660534,456.946068 217.5,455.071068 217.5,453 L217.5,360 C217.5,357.928932 216.660534,356.053932 215.303301,354.696699 C213.946068,353.339466 212.071068,352.5 210,352.5 Z M58,344.5 C57.3096441,344.5 56.6846441,344.779822 56.232233,345.232233 C55.779822,345.684644 55.5,346.309644 55.5,347 C55.5,347.690356 55.779822,348.315356 56.232233,348.767767 C56.6846441,349.220178 57.3096441,349.5 58,349.5 C58.6903559,349.5 59.3153559,349.220178 59.767767,348.767767 C60.220178,348.315356 60.5,347.690356 60.5,347 C60.5,346.309644 60.220178,345.684644 59.767767,345.232233 C59.3153559,344.779822 58.6903559,344.5 58,344.5 Z" id="Rectangle-3" stroke="#979797" fill="#FFFFFF" fill-rule="nonzero"></path>
            <line x1="214.5" y1="347.3125" x2="214.5" y2="376.6875" id="Line" stroke="#979797" fill="#FFFFFF" fill-rule="nonzero"></line>
            <line x1="202.25" y1="347.309524" x2="202.25" y2="372.690476" id="Line-3" stroke="#979797" stroke-linecap="square"></line>
            <ellipse id="Oval" stroke="#979797" fill="#FFFFFF" fill-rule="nonzero" cx="202" cy="377" rx="2.5" ry="3.5"></ellipse>
            <rect id="Rectangle" stroke="#979797" fill="#FFFFFF" fill-rule="nonzero" x="68.5" y="351.5" width="4" height="11" rx="2"></rect>
            <rect id="Rectangle" stroke="#979797" fill="#FFFFFF" fill-rule="nonzero" x="509.5" y="491.5" width="4" height="11" rx="2"></rect>
            <rect id="Rectangle" stroke="#979797" fill="#FFFFFF" fill-rule="nonzero" x="109.5" y="366.5" width="8" height="8"></rect>
            <ellipse id="Oval" stroke="#979797" fill="#D8D8D8" fill-rule="nonzero" cx="114" cy="370.5" rx="3.5" ry="4"></ellipse>
            <line x1="110.307692" y1="370.25" x2="117.692308" y2="370.75" id="Line-5" stroke="#979797" stroke-linecap="square"></line>
            <line x1="112.357143" y1="366.321429" x2="116.642857" y2="374.678571" id="Line-6" stroke="#979797" stroke-linecap="square"></line>
            <line x1="113.25" y1="373.681818" x2="114.75" y2="367.318182" id="Line-7" stroke="#979797" stroke-linecap="square"></line>
            <line x1="110.333333" y1="371.666667" x2="117.666667" y2="368.333333" id="Line-8" stroke="#979797" stroke-linecap="square"></line>
        </g>
        <polygon id="Star" stroke="#979797" fill="#F8ECF5" fill-rule="nonzero" points="292.604045 87 285.000977 102.405499 268 104.875885 280.302023 116.867393 277.397909 133.799675 292.604045 125.805336 307.810182 133.799675 304.906068 116.867393 317.208091 104.875885 300.207113 102.405499"></polygon>
        <polygon id="Star" stroke="#979797" fill="#F2E5E5" fill-rule="nonzero" points="148.726592 312 142.285643 323.915937 128 325.811256 138.333041 335.007636 135.881206 348.059863 148.726592 341.893881 161.571978 348.059863 159.120143 335.007636 169.453184 325.811256 155.167541 323.915937"></polygon>
        <polygon id="Star" stroke="#979797" fill="#E3E8D1" fill-rule="nonzero" points="435.226404 316 428.358067 329.91677 413 332.148428 424.113202 342.981122 421.489731 358.277133 435.226404 351.055336 448.963077 358.277133 446.339606 342.981122 457.452808 332.148428 442.094741 329.91677"></polygon>
        <polygon id="Star" stroke="#979797" fill="#E9EACA" fill-rule="nonzero" points="292.604045 564 285.000977 579.405499 268 581.875885 280.302023 593.867393 277.397909 610.799675 292.604045 602.805336 307.810182 610.799675 304.906068 593.867393 317.208091 581.875885 300.207113 579.405499"></polygon>
        <polygon id="Star" stroke="#979797" fill="#FFFFFF" fill-rule="nonzero" points="63.8386669 429 57.9880291 440.007923 45 441.760389 54.3949249 450.26405 52.1669815 462.326107 63.8386669 456.628236 75.5103523 462.326107 73.2824089 450.26405 82.6773338 441.760389 69.6893047 440.007923"></polygon>
        <polygon id="Star" stroke="#979797" fill="#FFFFFF" fill-rule="nonzero" points="503.838667 564 497.988029 575.007923 485 576.760389 494.394925 585.26405 492.166982 597.326107 503.838667 591.628236 515.510352 597.326107 513.282409 585.26405 522.677334 576.760389 509.689305 575.007923"></polygon>
        <path d="M556,67.9938716 L549.547797,79.0780027 L535.339265,80.8284419 L545.612334,89.3183748 L543.163342,101.424245 L556,95.7025802 L568.836658,101.424245 L566.387666,89.3183748 L576.660735,80.8284419 L562.452203,79.0780027 L556,67.9938716 Z" id="Star" stroke="#979797" fill="#E1D494"></path>
    </g>
</svg>