<?xml version="1.0" encoding="UTF-8"?>
<svg width="839px" height="614px" viewBox="0 0 839 614" version="1.1" xmlns="http://www.w3.org/2000/svg" xmlns:xlink="http://www.w3.org/1999/xlink">
    <!-- Generator: Sketch 64 (93537) - https://sketch.com -->
    <title>Slice</title>
    <desc>Created with Sketch.</desc>
    <g id="Page-1" stroke="none" stroke-width="1" fill="none" fill-rule="evenodd">
        <g id="2b2b_selection4" transform="translate(0.000000, 10.000000)">
            <rect id="Rectangle" stroke="#979797" stroke-width="5" fill="#F0CCCC" fill-rule="nonzero" x="173.5" y="421.5" width="247" height="182"></rect>
            <rect id="Rectangle" stroke="#979797" fill="#F3EDDE" fill-rule="nonzero" x="196.5" y="441.5" width="77" height="124"></rect>
            <rect id="Rectangle" stroke="#979797" fill="#D4F4EB" fill-rule="nonzero" x="212.5" y="452.5" width="45" height="16"></rect>
            <rect id="Rectangle" stroke="#979797" fill="#E6D5F0" fill-rule="nonzero" x="196.5" y="481.5" width="77" height="84"></rect>
            <rect id="Rectangle" stroke="#979797" fill="#FFFFFF" fill-rule="nonzero" x="286.5" y="441.5" width="104" height="19"></rect>
            <circle id="Oval" stroke="#979797" fill="#FFFFFF" fill-rule="nonzero" cx="339" cy="485" r="15.5"></circle>
            <g id="Group" transform="translate(175.000000, 124.000000)" stroke="#979797">
                <rect id="Rectangle" fill="#E6D9ED" fill-rule="nonzero" x="0.5" y="0.5" width="435" height="297"></rect>
                <rect id="Rectangle" fill="#EEDCDC" fill-rule="nonzero" x="216.5" y="194.5" width="52" height="36" rx="8"></rect>
                <rect id="Rectangle" fill="#EEDCDC" fill-rule="nonzero" x="156.5" y="194.5" width="59" height="36" rx="8"></rect>
                <rect id="Rectangle" fill="#EEDCDC" fill-rule="nonzero" x="208.5" y="69.5" width="59" height="36" rx="8"></rect>
                <rect id="Rectangle" fill="#EEDCDC" fill-rule="nonzero" x="268.5" y="200.5" width="7" height="20" rx="3.5"></rect>
                <rect id="Rectangle" fill="#EEDCDC" fill-rule="nonzero" x="148.5" y="200.5" width="7" height="20" rx="3.5"></rect>
                <line x1="322.636364" y1="83.5" x2="433.363636" y2="83.5" id="Line" stroke-linecap="square"></line>
                <rect id="Rectangle" fill="#D8D8D8" fill-rule="nonzero" x="317.5" y="69.5" width="118" height="14"></rect>
                <rect id="Rectangle" fill="#EEDCDC" fill-rule="nonzero" x="268.5" y="77.5" width="7" height="20" rx="3.5"></rect>
                <rect id="Rectangle" fill="#EEDCDC" fill-rule="nonzero" x="139.5" y="77.5" width="7" height="20" rx="3.5"></rect>
                <rect id="Rectangle" fill="#EEDCDC" fill-rule="nonzero" x="76.5" y="217.5" width="31" height="6" rx="3"></rect>
                <rect id="Rectangle" fill="#EEDCDC" fill-rule="nonzero" x="75.5" y="164.5" width="31" height="6" rx="3"></rect>
                <rect id="Rectangle" fill="#EEDCDC" fill-rule="nonzero" x="75.5" y="134.5" width="31" height="6" rx="3"></rect>
                <rect id="Rectangle" fill="#EEDCDC" fill-rule="nonzero" x="66.5" y="88.5" width="50" height="46" rx="8"></rect>
                <rect id="Rectangle" fill="#EEDCDC" fill-rule="nonzero" x="75.5" y="81.5" width="31" height="6" rx="3"></rect>
                <rect id="Rectangle" fill="#EEDCDC" fill-rule="nonzero" x="66.5" y="170.5" width="50" height="46" rx="8"></rect>
                <ellipse id="Oval" fill="#BCDDAB" fill-rule="nonzero" cx="207.5" cy="150" rx="44" ry="43.5"></ellipse>
                <rect id="Rectangle" fill="#EEDCDC" fill-rule="nonzero" x="148.5" y="69.5" width="59" height="36" rx="8"></rect>
                <rect id="Rectangle" fill="#F5E2C7" fill-rule="nonzero" x="317.5" y="69.5" width="118" height="158"></rect>
                <line x1="331" y1="78" x2="433.364198" y2="148.418033" id="Line-2" stroke-linecap="square"></line>
                <line x1="316.634409" y1="77.5" x2="433.365591" y2="77.5" id="Line-2" stroke-linecap="square"></line>
                <line x1="332" y1="216.244699" x2="432.727101" y2="150.420848" id="Line-2" stroke-linecap="square"></line>
                <line x1="332.25" y1="69" x2="331.5" y2="225.414179" id="Line-2" stroke-linecap="square"></line>
                <line x1="317.634409" y1="216.5" x2="434.365591" y2="216.5" id="Line-2" stroke-linecap="square"></line>
                <rect id="Rectangle" fill="#C0EBE9" fill-rule="nonzero" x="0.5" y="69.5" width="45" height="174"></rect>
                <line x1="1" y1="222" x2="44.3714286" y2="222.5" id="Line-3" stroke-linecap="square"></line>
                <line x1="1" y1="206" x2="44.3714286" y2="206.5" id="Line-3" stroke-linecap="square"></line>
                <line x1="1" y1="192" x2="44.3714286" y2="192.5" id="Line-3" stroke-linecap="square"></line>
                <line x1="1" y1="174" x2="44.3714286" y2="174.5" id="Line-3" stroke-linecap="square"></line>
                <line x1="1" y1="160" x2="44.3714286" y2="160.5" id="Line-3" stroke-linecap="square"></line>
                <line x1="1" y1="144" x2="44.3714286" y2="144.5" id="Line-3" stroke-linecap="square"></line>
                <line x1="1" y1="80" x2="44.3714286" y2="80.5" id="Line-3" stroke-linecap="square"></line>
                <line x1="1" y1="127" x2="44.3714286" y2="126.5" id="Line-3" stroke-linecap="square"></line>
                <line x1="1" y1="110" x2="44.3714286" y2="110.5" id="Line-3" stroke-linecap="square"></line>
                <ellipse id="Oval" fill="#D8D8D8" fill-rule="nonzero" cx="143.5" cy="156.5" rx="12" ry="10"></ellipse>
                <line x1="1" y1="97" x2="44.3714286" y2="97.5" id="Line-3" stroke-linecap="square"></line>
            </g>
            <rect id="Rectangle" stroke="#979797" stroke-width="5" fill="#C5CFCE" fill-rule="nonzero" x="420.5" y="423.5" width="190" height="140"></rect>
            <rect id="Rectangle" stroke="#979797" fill="#DCDAD5" fill-rule="nonzero" x="438.5" y="437.5" width="59" height="96"></rect>
            <rect id="Rectangle" stroke="#979797" fill="#F7F7F7" fill-rule="nonzero" x="449.5" y="445.5" width="35" height="12"></rect>
            <rect id="Rectangle" stroke="#979797" fill="#A2ABAD" fill-rule="nonzero" x="438.5" y="468.5" width="59" height="65"></rect>
            <rect id="Rectangle" stroke="#979797" fill="#FFFFFF" fill-rule="nonzero" x="507.5" y="437.5" width="80" height="14"></rect>
            <ellipse id="Oval" stroke="#979797" fill="#FFFFFF" fill-rule="nonzero" cx="548.5" cy="471" rx="12" ry="12.5"></ellipse>
            <rect id="Rectangle" stroke="#979797" fill="#E5DFDF" fill-rule="nonzero" x="611.5" y="119.5" width="227" height="184"></rect>
            <rect id="Rectangle" stroke="#979797" fill="#D8D8D8" fill-rule="nonzero" x="611.5" y="255.5" width="125" height="48"></rect>
            <line x1="620.309524" y1="211.323529" x2="632.690476" y2="221.676471" id="Line" stroke="#979797" stroke-linecap="square"></line>
            <rect id="Rectangle" stroke="#979797" fill="#D8D8D8" fill-rule="nonzero" x="611.5" y="169.5" width="43" height="86"></rect>
            <rect id="Rectangle-2" stroke="#979797" fill="#FFFFFF" fill-rule="nonzero" x="616.5" y="174.5" width="33" height="28" rx="8"></rect>
            <rect id="Rectangle" stroke="#979797" fill="#FFFFFF" fill-rule="nonzero" x="618.5" y="212.5" width="29" height="37" rx="8"></rect>
            <path d="M611.5,187.5 C610.66182,187.5 609.900621,187.786794 609.350522,188.258308 C608.830494,188.704046 608.5,189.317248 608.5,190 C608.5,190.682752 608.830494,191.295954 609.350522,191.741692 C609.900621,192.213206 610.66182,192.5 611.5,192.5 C612.33818,192.5 613.099379,192.213206 613.649478,191.741692 C614.169506,191.295954 614.5,190.682752 614.5,190 C614.5,189.317248 614.169506,188.704046 613.649478,188.258308 C613.099379,187.786794 612.33818,187.5 611.5,187.5 Z" id="Oval-2" stroke="#979797" fill="#F7F1F1" fill-rule="nonzero"></path>
            <polygon id="Triangle" stroke="#979797" fill="#FFFFFF" fill-rule="nonzero" points="614.811499 191.64019 611.765137 192.649088 617.631762 201.906783"></polygon>
            <rect id="Rectangle" stroke="#979797" fill="#D8D8D8" fill-rule="nonzero" x="611.5" y="119.5" width="157" height="48"></rect>
            <rect id="Rectangle" stroke="#979797" fill="#D8D8D8" fill-rule="nonzero" x="737.5" y="255.5" width="46" height="48"></rect>
            <rect id="Rectangle" stroke="#979797" fill="#D8D8D8" fill-rule="nonzero" x="705.5" y="130.5" width="14" height="18" rx="7"></rect>
            <rect id="Rectangle" stroke="#979797" fill="#D8D8D8" fill-rule="nonzero" x="688.5" y="127.5" width="48" height="31"></rect>
            <rect id="Rectangle" stroke="#282727" fill="#D8D8D8" fill-rule="nonzero" x="705.5" y="129.5" width="14" height="18"></rect>
            <line x1="705.3125" y1="133.5" x2="719.6875" y2="133.5" id="Line-4" stroke="#030202" stroke-linecap="square"></line>
            <line x1="705.3125" y1="136.25" x2="719.6875" y2="136.25" id="Line-5" stroke="#121212" stroke-linecap="square"></line>
            <line x1="705.3125" y1="138.5" x2="719.6875" y2="138.5" id="Line-6" stroke="#131313" stroke-linecap="square"></line>
            <line x1="705.3125" y1="141.5" x2="719.6875" y2="141.5" id="Line-7" stroke="#121212" stroke-linecap="square"></line>
            <line x1="705.3125" y1="142.5" x2="719.6875" y2="142.5" id="Line-8" stroke="#1E1D1D" stroke-linecap="square"></line>
            <line x1="705.3125" y1="146.25" x2="719.6875" y2="146.25" id="Line-9" stroke="#141414" stroke-linecap="square"></line>
            <rect id="Rectangle" stroke="#303030" fill="#D8D8D8" fill-rule="nonzero" x="690.5" y="130.5" width="11" height="25" rx="5.5"></rect>
            <rect id="Rectangle" stroke="#2F2E2E" fill="#D8D8D8" fill-rule="nonzero" x="723.5" y="130.5" width="11" height="22" rx="5.5"></rect>
            <ellipse id="Oval" stroke="#979797" fill="#000000" fill-rule="nonzero" cx="729" cy="135.5" rx="1.5" ry="2"></ellipse>
            <circle id="Oval" stroke="#979797" fill="#000000" fill-rule="nonzero" cx="729" cy="148" r="1.5"></circle>
            <circle id="Oval" stroke="#979797" fill="#020202" fill-rule="nonzero" cx="696" cy="143" r="2.5"></circle>
            <rect id="Rectangle" stroke="#979797" fill="#BEB0B0" fill-rule="nonzero" x="611.5" y="120.5" width="38" height="19"></rect>
            <line x1="690.305556" y1="136.25" x2="700.694444" y2="136.25" id="Line-10" stroke="#979797" stroke-linecap="square"></line>
            <line x1="690.305556" y1="149.5" x2="700.694444" y2="149.5" id="Line-11" stroke="#979797" stroke-linecap="square"></line>
            <line x1="695.5" y1="131.3125" x2="695.5" y2="140.6875" id="Line-12" stroke="#979797" stroke-linecap="square"></line>
            <line x1="695.5" y1="146.3125" x2="695.5" y2="155.6875" id="Line-13" stroke="#979797" stroke-linecap="square"></line>
            <line x1="690.3" y1="142.5" x2="692.7" y2="142.5" id="Line-14" stroke="#979797" stroke-linecap="square"></line>
            <line x1="699.333333" y1="142.5" x2="700.666667" y2="142.5" id="Line-15" stroke="#979797" stroke-linecap="square"></line>
            <line x1="724.3" y1="136.5" x2="726.7" y2="136.5" id="Line-16" stroke="#979797" stroke-linecap="square"></line>
            <line x1="731.333333" y1="136.5" x2="734.666667" y2="136.5" id="Line-17" stroke="#979797" stroke-linecap="square"></line>
            <line x1="724.3" y1="148.25" x2="726.7" y2="148.25" id="Line-18" stroke="#979797" stroke-linecap="square"></line>
            <line x1="731.3" y1="148.25" x2="733.7" y2="148.25" id="Line-19" stroke="#979797" stroke-linecap="square"></line>
            <line x1="728.5" y1="130.357143" x2="728.5" y2="134.642857" id="Line-20" stroke="#979797" stroke-linecap="square"></line>
            <line x1="728.5" y1="138.346154" x2="728.5" y2="146.653846" id="Line-21" stroke="#979797" stroke-linecap="square"></line>
            <line x1="728.75" y1="150.3" x2="728.5" y2="153" id="Line-22" stroke="#979797" stroke-linecap="square"></line>
            <line x1="724.3125" y1="141.5" x2="733.6875" y2="141.5" id="Line-23" stroke="#979797" stroke-linecap="square"></line>
            <rect id="Rectangle" stroke="#979797" fill="#FAF0CA" fill-rule="nonzero" x="0.5" y="124.5" width="174" height="181"></rect>
            <rect id="Rectangle" stroke="#979797" fill="#896F6F" fill-rule="nonzero" x="0.5" y="227.5" width="31" height="78"></rect>
            <rect id="Rectangle" stroke="#979797" fill="#A78080" fill-rule="nonzero" x="32.5" y="273.5" width="64" height="32"></rect>
            <rect id="Rectangle" stroke="#979797" fill-opacity="0.8" fill="#766666" fill-rule="nonzero" x="97.5" y="273.5" width="64" height="32"></rect>
            <rect id="Rectangle" stroke="#979797" fill="#D8D8D8" fill-rule="nonzero" x="38.5" y="187.5" width="5" height="29" rx="2.5"></rect>
            <rect id="Rectangle" stroke="#979797" fill="#5D4949" fill-rule="nonzero" x="0.5" y="124.5" width="137" height="40"></rect>
            <rect id="Rectangle" stroke="#979797" fill="#D8D8D8" fill-rule="nonzero" x="44.5" y="176.5" width="58" height="51" rx="8"></rect>
            <rect id="Rectangle" stroke="#979797" fill="#D8D8D8" fill-rule="nonzero" x="103.5" y="187.5" width="5" height="29" rx="2.5"></rect>
            <rect id="Rectangle" stroke="#979797" stroke-width="6" fill="#FFFFFF" fill-rule="nonzero" x="419" y="3" width="188" height="119"></rect>
            <rect id="Rectangle" stroke="#979797" fill="#FFFFFF" fill-rule="nonzero" x="507.5" y="9.5" width="24" height="39" rx="8"></rect>
            <ellipse id="Oval" stroke="#979797" fill="#FFFFFF" fill-rule="nonzero" cx="519" cy="31.5" rx="5.5" ry="9"></ellipse>
            <rect id="Rectangle" stroke="#979797" fill="#FFFFFF" fill-rule="nonzero" x="420.5" y="3.5" width="65" height="45"></rect>
            <rect id="Rectangle-2" stroke="#979797" fill="#FFFFFF" fill-rule="nonzero" x="430.5" y="15.5" width="44" height="21"></rect>
            <path d="M592,8.5 L572,8.5 C569.928932,8.5 568.053932,9.3394661 566.696699,10.6966991 C565.339466,12.0539322 564.5,13.9289322 564.5,16 L564.5,109 C564.5,111.071068 565.339466,112.946068 566.696699,114.303301 C568.053932,115.660534 569.928932,116.5 572,116.5 L592,116.5 C594.071068,116.5 595.946068,115.660534 597.303301,114.303301 C598.660534,112.946068 599.5,111.071068 599.5,109 L599.5,16 C599.5,13.9289322 598.660534,12.0539322 597.303301,10.6966991 C595.946068,9.3394661 594.071068,8.5 592,8.5 Z M440,0.5 C439.309644,0.5 438.684644,0.77982203 438.232233,1.23223305 C437.779822,1.68464406 437.5,2.30964406 437.5,3 C437.5,3.69035594 437.779822,4.31535594 438.232233,4.76776695 C438.684644,5.22017797 439.309644,5.5 440,5.5 C440.690356,5.5 441.315356,5.22017797 441.767767,4.76776695 C442.220178,4.31535594 442.5,3.69035594 442.5,3 C442.5,2.30964406 442.220178,1.68464406 441.767767,1.23223305 C441.315356,0.77982203 440.690356,0.5 440,0.5 Z" id="Rectangle-3" stroke="#979797" fill="#FFFFFF" fill-rule="nonzero"></path>
            <rect id="Rectangle" stroke="#979797" fill="#FFFFFF" fill-rule="nonzero" x="491.5" y="22.5" width="8" height="8"></rect>
            <ellipse id="Oval" stroke="#979797" fill="#D8D8D8" fill-rule="nonzero" cx="496" cy="26.5" rx="3.5" ry="4"></ellipse>
            <line x1="492.307692" y1="26.25" x2="499.692308" y2="26.75" id="Line-5" stroke="#979797" stroke-linecap="square"></line>
            <line x1="494.357143" y1="22.3214286" x2="498.642857" y2="30.6785714" id="Line-6" stroke="#979797" stroke-linecap="square"></line>
            <line x1="495.25" y1="29.6818182" x2="496.75" y2="23.3181818" id="Line-7" stroke="#979797" stroke-linecap="square"></line>
            <line x1="492.333333" y1="27.6666667" x2="499.666667" y2="24.3333333" id="Line-8" stroke="#979797" stroke-linecap="square"></line>
            <rect id="Rectangle" stroke="#979797" stroke-width="6" fill="#FFFFFF" fill-rule="nonzero" x="419" y="3" width="188" height="119"></rect>
            <rect id="Rectangle" stroke="#979797" fill="#FFFFFF" fill-rule="nonzero" x="507.5" y="9.5" width="24" height="39" rx="8"></rect>
            <ellipse id="Oval" stroke="#979797" fill="#FFFFFF" fill-rule="nonzero" cx="519" cy="31.5" rx="5.5" ry="9"></ellipse>
            <rect id="Rectangle" stroke="#979797" fill="#FFFFFF" fill-rule="nonzero" x="420.5" y="3.5" width="65" height="45"></rect>
            <path d="M592,8.5 L572,8.5 C569.928932,8.5 568.053932,9.3394661 566.696699,10.6966991 C565.339466,12.0539322 564.5,13.9289322 564.5,16 L564.5,109 C564.5,111.071068 565.339466,112.946068 566.696699,114.303301 C568.053932,115.660534 569.928932,116.5 572,116.5 L592,116.5 C594.071068,116.5 595.946068,115.660534 597.303301,114.303301 C598.660534,112.946068 599.5,111.071068 599.5,109 L599.5,16 C599.5,13.9289322 598.660534,12.0539322 597.303301,10.6966991 C595.946068,9.3394661 594.071068,8.5 592,8.5 Z M440,0.5 C439.309644,0.5 438.684644,0.77982203 438.232233,1.23223305 C437.779822,1.68464406 437.5,2.30964406 437.5,3 C437.5,3.69035594 437.779822,4.31535594 438.232233,4.76776695 C438.684644,5.22017797 439.309644,5.5 440,5.5 C440.690356,5.5 441.315356,5.22017797 441.767767,4.76776695 C442.220178,4.31535594 442.5,3.69035594 442.5,3 C442.5,2.30964406 442.220178,1.68464406 441.767767,1.23223305 C441.315356,0.77982203 440.690356,0.5 440,0.5 Z" id="Rectangle-3" stroke="#979797" fill="#FFFFFF" fill-rule="nonzero"></path>
            <rect id="Rectangle" stroke="#979797" fill="#FFFFFF" fill-rule="nonzero" x="491.5" y="22.5" width="8" height="8"></rect>
            <ellipse id="Oval" stroke="#979797" fill="#D8D8D8" fill-rule="nonzero" cx="496" cy="26.5" rx="3.5" ry="4"></ellipse>
            <line x1="492.307692" y1="26.25" x2="499.692308" y2="26.75" id="Line-5" stroke="#979797" stroke-linecap="square"></line>
            <line x1="494.357143" y1="22.3214286" x2="498.642857" y2="30.6785714" id="Line-6" stroke="#979797" stroke-linecap="square"></line>
            <line x1="495.25" y1="29.6818182" x2="496.75" y2="23.3181818" id="Line-7" stroke="#979797" stroke-linecap="square"></line>
            <line x1="492.333333" y1="27.6666667" x2="499.666667" y2="24.3333333" id="Line-8" stroke="#979797" stroke-linecap="square"></line>
            <rect id="Rectangle-2" stroke="#979797" fill="#FFFFFF" fill-rule="nonzero" x="428.5" y="20.5" width="44" height="21"></rect>
            <rect id="Rectangle" stroke="#979797" fill="#FFFFFF" fill-rule="nonzero" x="449.5" y="15.5" width="4" height="11" rx="2"></rect>
            <rect id="Rectangle" stroke="#979797" stroke-width="6" fill="#FFFFFF" fill-rule="nonzero" x="613" y="303" width="188" height="119"></rect>
            <line x1="689.5" y1="303.306452" x2="689.5" y2="321.693548" id="Line-4" stroke="#979797" stroke-linecap="square"></line>
            <rect id="Rectangle" stroke="#979797" fill="#FFFFFF" fill-rule="nonzero" x="701.5" y="309.5" width="24" height="39" rx="8"></rect>
            <ellipse id="Oval" stroke="#979797" fill="#FFFFFF" fill-rule="nonzero" cx="713" cy="331.5" rx="5.5" ry="9"></ellipse>
            <rect id="Rectangle" stroke="#000000" fill="#D8D8D8" fill-rule="nonzero" x="753.5" y="303.5" width="47" height="119"></rect>
            <ellipse id="Oval" stroke="#979797" fill="#D8D8D8" fill-rule="nonzero" cx="790" cy="337" rx="2.5" ry="3.5"></ellipse>
            <rect id="Rectangle" stroke="#979797" fill="#FFFFFF" fill-rule="nonzero" x="614.5" y="303.5" width="65" height="45"></rect>
            <rect id="Rectangle-2" stroke="#979797" fill="#FFFFFF" fill-rule="nonzero" x="624.5" y="315.5" width="44" height="21"></rect>
            <path d="M786,308.5 L766,308.5 C763.928932,308.5 762.053932,309.339466 760.696699,310.696699 C759.339466,312.053932 758.5,313.928932 758.5,316 L758.5,409 C758.5,411.071068 759.339466,412.946068 760.696699,414.303301 C762.053932,415.660534 763.928932,416.5 766,416.5 L786,416.5 C788.071068,416.5 789.946068,415.660534 791.303301,414.303301 C792.660534,412.946068 793.5,411.071068 793.5,409 L793.5,316 C793.5,313.928932 792.660534,312.053932 791.303301,310.696699 C789.946068,309.339466 788.071068,308.5 786,308.5 Z M634,300.5 C633.309644,300.5 632.684644,300.779822 632.232233,301.232233 C631.779822,301.684644 631.5,302.309644 631.5,303 C631.5,303.690356 631.779822,304.315356 632.232233,304.767767 C632.684644,305.220178 633.309644,305.5 634,305.5 C634.690356,305.5 635.315356,305.220178 635.767767,304.767767 C636.220178,304.315356 636.5,303.690356 636.5,303 C636.5,302.309644 636.220178,301.684644 635.767767,301.232233 C635.315356,300.779822 634.690356,300.5 634,300.5 Z" id="Rectangle-3" stroke="#979797" fill="#FFFFFF" fill-rule="nonzero"></path>
            <line x1="790.5" y1="303.3125" x2="790.5" y2="332.6875" id="Line" stroke="#979797" fill="#FFFFFF" fill-rule="nonzero"></line>
            <line x1="778.25" y1="303.309524" x2="778.25" y2="328.690476" id="Line-3" stroke="#979797" stroke-linecap="square"></line>
            <ellipse id="Oval" stroke="#979797" fill="#FFFFFF" fill-rule="nonzero" cx="778" cy="333" rx="2.5" ry="3.5"></ellipse>
            <rect id="Rectangle" stroke="#979797" fill="#FFFFFF" fill-rule="nonzero" x="685.5" y="322.5" width="8" height="8"></rect>
            <ellipse id="Oval" stroke="#979797" fill="#D8D8D8" fill-rule="nonzero" cx="690" cy="326.5" rx="3.5" ry="4"></ellipse>
            <line x1="686.307692" y1="326.25" x2="693.692308" y2="326.75" id="Line-5" stroke="#979797" stroke-linecap="square"></line>
            <line x1="688.357143" y1="322.321429" x2="692.642857" y2="330.678571" id="Line-6" stroke="#979797" stroke-linecap="square"></line>
            <line x1="689.25" y1="329.681818" x2="690.75" y2="323.318182" id="Line-7" stroke="#979797" stroke-linecap="square"></line>
            <line x1="686.333333" y1="327.666667" x2="693.666667" y2="324.333333" id="Line-8" stroke="#979797" stroke-linecap="square"></line>
            <rect id="Rectangle" stroke="#979797" stroke-width="6" fill="#FFFFFF" fill-rule="nonzero" x="613" y="303" width="188" height="119"></rect>
            <line x1="689.5" y1="303.306452" x2="689.5" y2="321.693548" id="Line-4" stroke="#979797" stroke-linecap="square"></line>
            <rect id="Rectangle" stroke="#979797" fill="#FFFFFF" fill-rule="nonzero" x="701.5" y="309.5" width="24" height="39" rx="8"></rect>
            <ellipse id="Oval" stroke="#979797" fill="#FFFFFF" fill-rule="nonzero" cx="713" cy="331.5" rx="5.5" ry="9"></ellipse>
            <rect id="Rectangle" stroke="#000000" fill="#D8D8D8" fill-rule="nonzero" x="753.5" y="303.5" width="47" height="119"></rect>
            <ellipse id="Oval" stroke="#979797" fill="#D8D8D8" fill-rule="nonzero" cx="790" cy="337" rx="2.5" ry="3.5"></ellipse>
            <rect id="Rectangle" stroke="#979797" fill="#FFFFFF" fill-rule="nonzero" x="614.5" y="303.5" width="65" height="45"></rect>
            <path d="M786,308.5 L766,308.5 C763.928932,308.5 762.053932,309.339466 760.696699,310.696699 C759.339466,312.053932 758.5,313.928932 758.5,316 L758.5,409 C758.5,411.071068 759.339466,412.946068 760.696699,414.303301 C762.053932,415.660534 763.928932,416.5 766,416.5 L786,416.5 C788.071068,416.5 789.946068,415.660534 791.303301,414.303301 C792.660534,412.946068 793.5,411.071068 793.5,409 L793.5,316 C793.5,313.928932 792.660534,312.053932 791.303301,310.696699 C789.946068,309.339466 788.071068,308.5 786,308.5 Z M634,300.5 C633.309644,300.5 632.684644,300.779822 632.232233,301.232233 C631.779822,301.684644 631.5,302.309644 631.5,303 C631.5,303.690356 631.779822,304.315356 632.232233,304.767767 C632.684644,305.220178 633.309644,305.5 634,305.5 C634.690356,305.5 635.315356,305.220178 635.767767,304.767767 C636.220178,304.315356 636.5,303.690356 636.5,303 C636.5,302.309644 636.220178,301.684644 635.767767,301.232233 C635.315356,300.779822 634.690356,300.5 634,300.5 Z" id="Rectangle-3" stroke="#979797" fill="#FFFFFF" fill-rule="nonzero"></path>
            <line x1="790.5" y1="303.3125" x2="790.5" y2="332.6875" id="Line" stroke="#979797" fill="#FFFFFF" fill-rule="nonzero"></line>
            <line x1="778.25" y1="303.309524" x2="778.25" y2="328.690476" id="Line-3" stroke="#979797" stroke-linecap="square"></line>
            <ellipse id="Oval" stroke="#979797" fill="#FFFFFF" fill-rule="nonzero" cx="778" cy="333" rx="2.5" ry="3.5"></ellipse>
            <rect id="Rectangle" stroke="#979797" fill="#FFFFFF" fill-rule="nonzero" x="685.5" y="322.5" width="8" height="8"></rect>
            <ellipse id="Oval" stroke="#979797" fill="#D8D8D8" fill-rule="nonzero" cx="690" cy="326.5" rx="3.5" ry="4"></ellipse>
            <line x1="686.307692" y1="326.25" x2="693.692308" y2="326.75" id="Line-5" stroke="#979797" stroke-linecap="square"></line>
            <line x1="688.357143" y1="322.321429" x2="692.642857" y2="330.678571" id="Line-6" stroke="#979797" stroke-linecap="square"></line>
            <line x1="689.25" y1="329.681818" x2="690.75" y2="323.318182" id="Line-7" stroke="#979797" stroke-linecap="square"></line>
            <line x1="686.333333" y1="327.666667" x2="693.666667" y2="324.333333" id="Line-8" stroke="#979797" stroke-linecap="square"></line>
            <rect id="Rectangle-2" stroke="#979797" fill="#FFFFFF" fill-rule="nonzero" x="622.5" y="320.5" width="44" height="21"></rect>
            <rect id="Rectangle" stroke="#979797" fill="#FFFFFF" fill-rule="nonzero" x="643.5" y="315.5" width="4" height="11" rx="2"></rect>
        </g>
        <polygon id="Star" stroke="#979797" fill="#F8ECF5" fill-rule="nonzero" points="234.604045 513 227.000977 528.405499 210 530.875885 222.302023 542.867393 219.397909 559.799675 234.604045 551.805336 249.810182 559.799675 246.906068 542.867393 259.208091 530.875885 242.207113 528.405499"></polygon>
        <polygon id="Star" stroke="#979797" fill="#FFFFFF" fill-rule="nonzero" points="445.838667 90 439.988029 101.007923 427 102.760389 436.394925 111.26405 434.166982 123.326107 445.838667 117.628236 457.510352 123.326107 455.282409 111.26405 464.677334 102.760389 451.689305 101.007923"></polygon>
        <polygon id="Star" stroke="#979797" fill="#F2E5E5" fill-rule="nonzero" points="760.726592 267 754.285643 278.915937 740 280.811256 750.333041 290.007636 747.881206 303.059863 760.726592 296.893881 773.571978 303.059863 771.120143 290.007636 781.453184 280.811256 767.167541 278.915937"></polygon>
        <path d="M74,194.993872 L67.5477973,206.078003 L53.3392652,207.828442 L63.6123338,216.318375 L61.1633418,228.424245 L74,222.70258 L86.8366582,228.424245 L84.3876662,216.318375 L94.6607348,207.828442 L80.4522027,206.078003 L74,194.993872 Z" id="Star" stroke="#979797" fill="#E1D494"></path>
        <polygon id="Star" stroke="#979797" fill="#E3E8D1" fill-rule="nonzero" points="383.226404 261 376.358067 274.91677 361 277.148428 372.113202 287.981122 369.489731 303.277133 383.226404 296.055336 396.963077 303.277133 394.339606 287.981122 405.452808 277.148428 390.094741 274.91677"></polygon>
        <polygon id="Star" stroke="#979797" fill="#FFFFFF" fill-rule="nonzero" points="637.838667 391 631.988029 402.007923 619 403.760389 628.394925 412.26405 626.166982 424.326107 637.838667 418.628236 649.510352 424.326107 647.282409 412.26405 656.677334 403.760389 643.689305 402.007923"></polygon>
        <polygon id="Star" stroke="#979797" fill="#88A89F" fill-rule="nonzero" points="470.604045 490 463.000977 505.405499 446 507.875885 458.302023 519.867393 455.397909 536.799675 470.604045 528.805336 485.810182 536.799675 482.906068 519.867393 495.208091 507.875885 478.207113 505.405499"></polygon>
    </g>
</svg>