<?xml version="1.0" encoding="UTF-8"?>
<svg width="360px" height="309px" viewBox="0 0 360 309" version="1.1" xmlns="http://www.w3.org/2000/svg" xmlns:xlink="http://www.w3.org/1999/xlink">
    <!-- Generator: Sketch 64 (93537) - https://sketch.com -->
    <title>Slice</title>
    <desc>Created with Sketch.</desc>
    <g id="Page-1" stroke="none" stroke-width="1" fill="none" fill-rule="evenodd">
        <g id="studio4" transform="translate(6.000000, 0.000000)">
            <rect id="Rectangle" stroke="#979797" stroke-width="5" fill="#DBD9F6" fill-rule="nonzero" x="0.5" y="122.5" width="247" height="182"></rect>
            <rect id="Rectangle" stroke="#979797" fill="#7CCF96" fill-rule="nonzero" x="23.5" y="142.5" width="77" height="124"></rect>
            <rect id="Rectangle" stroke="#979797" fill="#F7F7F7" fill-rule="nonzero" x="39.5" y="153.5" width="45" height="16"></rect>
            <rect id="Rectangle" stroke="#979797" fill="#7DB4F1" fill-rule="nonzero" x="23.5" y="182.5" width="77" height="84"></rect>
            <rect id="Rectangle" stroke="#979797" fill="#FFFFFF" fill-rule="nonzero" x="113.5" y="142.5" width="104" height="19"></rect>
            <circle id="Oval" stroke="#979797" fill="#FFFFFF" fill-rule="nonzero" cx="166" cy="186" r="15.5"></circle>
            <rect id="Rectangle" stroke="#979797" stroke-width="6" fill="#FFFFFF" fill-rule="nonzero" x="1" y="9" width="176" height="111"></rect>
            <line x1="78.25" y1="10.2903226" x2="78.25" y2="27.7096774" id="Line-4" stroke="#979797" stroke-linecap="square"></line>
            <rect id="Rectangle" stroke="#979797" fill="#FFFFFF" fill-rule="nonzero" x="88.5" y="15.5" width="22" height="36" rx="8"></rect>
            <ellipse id="Oval" stroke="#979797" fill="#FFFFFF" fill-rule="nonzero" cx="99.5" cy="36.5" rx="5" ry="8"></ellipse>
            <rect id="Rectangle" stroke="#979797" fill="#FFFFFF" fill-rule="nonzero" x="88.5" y="15.5" width="22" height="7" rx="3.5"></rect>
            <ellipse id="Oval" stroke="#979797" fill="#D8D8D8" fill-rule="nonzero" cx="37.5" cy="17" rx="2" ry="1.5"></ellipse>
            <rect id="Rectangle" stroke="#000000" fill="#D8D8D8" fill-rule="nonzero" x="137.5" y="10.5" width="44" height="111"></rect>
            <line x1="37.5" y1="10.2894737" x2="37.5" y2="20.7105263" id="Line-2" stroke="#979797" stroke-linecap="square"></line>
            <rect id="Rectangle" stroke="#979797" fill="#FFFFFF" fill-rule="nonzero" x="6.5" y="10.5" width="62" height="41"></rect>
            <rect id="Rectangle-2" stroke="#979797" fill="#FFFFFF" fill-rule="nonzero" x="16.5" y="21.5" width="42" height="19"></rect>
            <path d="M168,14.5 L151,14.5 C148.928932,14.5 147.053932,15.3394661 145.696699,16.6966991 C144.339466,18.0539322 143.5,19.9289322 143.5,22 L143.5,108 C143.5,110.071068 144.339466,111.946068 145.696699,113.303301 C147.053932,114.660534 148.928932,115.5 151,115.5 L168,115.5 C170.071068,115.5 171.946068,114.660534 173.303301,113.303301 C174.660534,111.946068 175.5,110.071068 175.5,108 L175.5,22 C175.5,19.9289322 174.660534,18.0539322 173.303301,16.6966991 C171.946068,15.3394661 170.071068,14.5 168,14.5 Z M26,7.5 C25.2979416,7.5 24.6597463,7.7321983 24.1987719,8.1163437 C23.7738416,8.4704522 23.5,8.9564147 23.5,9.5 C23.5,10.0435853 23.7738416,10.5295478 24.1987719,10.8836563 C24.6597463,11.2678017 25.2979416,11.5 26,11.5 C26.7020584,11.5 27.3402537,11.2678017 27.8012281,10.8836563 C28.2261584,10.5295478 28.5,10.0435853 28.5,9.5 C28.5,8.9564147 28.2261584,8.4704522 27.8012281,8.1163437 C27.3402537,7.7321983 26.7020584,7.5 26,7.5 Z" id="Rectangle-3" stroke="#979797" fill="#FFFFFF" fill-rule="nonzero"></path>
            <line x1="160.5" y1="10.2857143" x2="160.5" y2="33.7142857" id="Line-3" stroke="#979797" stroke-linecap="square"></line>
            <ellipse id="Oval" stroke="#979797" fill="#FFFFFF" fill-rule="nonzero" cx="160" cy="38" rx="2.5" ry="3.5"></ellipse>
            <rect id="Rectangle" stroke="#979797" fill="#FFFFFF" fill-rule="nonzero" x="26.5" y="13.5" width="20" height="5" rx="2.5"></rect>
            <rect id="Rectangle" stroke="#979797" fill="#FFFFFF" fill-rule="nonzero" x="35.5" y="13.5" width="4" height="11" rx="2"></rect>
            <rect id="Rectangle" stroke="#979797" fill="#FFFFFF" fill-rule="nonzero" x="74.5" y="27.5" width="7" height="8"></rect>
            <ellipse id="Oval" stroke="#979797" fill="#D8D8D8" fill-rule="nonzero" cx="78" cy="31.5" rx="3.5" ry="3"></ellipse>
            <line x1="75.2692308" y1="31.25" x2="81.7307692" y2="31.75" id="Line-5" stroke="#979797" stroke-linecap="square"></line>
            <line x1="77.2857143" y1="27.2857143" x2="80.7142857" y2="34.7142857" id="Line-6" stroke="#979797" stroke-linecap="square"></line>
            <line x1="77.25" y1="34.6818182" x2="78.75" y2="28.3181818" id="Line-7" stroke="#979797" stroke-linecap="square"></line>
            <line x1="75.2916667" y1="32.75" x2="81.7083333" y2="30.25" id="Line-8" stroke="#979797" stroke-linecap="square"></line>
            <rect id="Rectangle" stroke="#979797" fill="#E5DFDF" fill-rule="nonzero" x="182.5" y="0.5" width="171" height="123"></rect>
            <line x1="190.357143" y1="83.2941176" x2="204.642857" y2="92.705882" id="Line" stroke="#979797" stroke-linecap="square"></line>
            <rect id="Rectangle" stroke="#979797" fill="#D8D8D8" fill-rule="nonzero" x="181.5" y="44.5" width="46" height="79"></rect>
            <rect id="Rectangle-2" stroke="#979797" fill="#FFFFFF" fill-rule="nonzero" x="187.5" y="49.5" width="35" height="25" rx="8"></rect>
            <rect id="Rectangle" stroke="#979797" fill="#FFFFFF" fill-rule="nonzero" x="188.5" y="84.5" width="32" height="32" rx="8"></rect>
            <path d="M186.5,78.5 C185.66182,78.5 184.900621,78.7867942 184.350522,79.258308 C183.830494,79.7040458 183.5,80.3172483 183.5,81 C183.5,81.6827517 183.830494,82.2959542 184.350522,82.741692 C184.900621,83.2132058 185.66182,83.5 186.5,83.5 C187.33818,83.5 188.099379,83.2132058 188.649478,82.741692 C189.169506,82.2959542 189.5,81.6827517 189.5,81 C189.5,80.3172483 189.169506,79.7040458 188.649478,79.258308 C188.099379,78.7867942 187.33818,78.5 186.5,78.5 Z" id="Oval-2" stroke="#979797" fill="#F7F1F1" fill-rule="nonzero"></path>
            <polygon id="Triangle" stroke="#979797" fill="#FFFFFF" fill-rule="nonzero" points="190.811499 82.6401897 187.765137 83.6490879 193.631762 92.906783"></polygon>
            <rect id="Rectangle" stroke="#979797" fill="#D8D8D8" fill-rule="nonzero" x="181.5" y="0.5" width="171" height="43"></rect>
            <rect id="Rectangle" stroke="#979797" fill="#D8D8D8" fill-rule="nonzero" x="283.5" y="10.5" width="16" height="16" rx="8"></rect>
            <rect id="Rectangle" stroke="#979797" fill="#D8D8D8" fill-rule="nonzero" x="265.5" y="7.5" width="51" height="29"></rect>
            <rect id="Rectangle" stroke="#282727" fill="#D8D8D8" fill-rule="nonzero" x="283.5" y="9.5" width="16" height="16"></rect>
            <line x1="284.333333" y1="11.5" x2="299.666667" y2="11.5" id="Line-3" stroke="#131313" stroke-linecap="square"></line>
            <line x1="284.333333" y1="13.5" x2="299.666667" y2="13.5" id="Line-4" stroke="#030202" stroke-linecap="square"></line>
            <line x1="284.333333" y1="15.25" x2="299.666667" y2="15.25" id="Line-5" stroke="#121212" stroke-linecap="square"></line>
            <line x1="284.333333" y1="17.5" x2="299.666667" y2="17.5" id="Line-6" stroke="#131313" stroke-linecap="square"></line>
            <line x1="284.333333" y1="20.5" x2="299.666667" y2="20.5" id="Line-7" stroke="#121212" stroke-linecap="square"></line>
            <line x1="284.333333" y1="21.5" x2="299.666667" y2="21.5" id="Line-8" stroke="#1E1D1D" stroke-linecap="square"></line>
            <line x1="284.333333" y1="24.25" x2="299.666667" y2="24.25" id="Line-9" stroke="#141414" stroke-linecap="square"></line>
            <rect id="Rectangle" stroke="#303030" fill="#D8D8D8" fill-rule="nonzero" x="267.5" y="10.5" width="12" height="22" rx="6"></rect>
            <rect id="Rectangle" stroke="#2F2E2E" fill="#D8D8D8" fill-rule="nonzero" x="304.5" y="10.5" width="11" height="21" rx="5.5"></rect>
            <ellipse id="Oval" stroke="#979797" fill="#000000" fill-rule="nonzero" cx="310" cy="15.5" rx="1.5" ry="1"></ellipse>
            <circle id="Oval" stroke="#979797" fill="#000000" fill-rule="nonzero" cx="310" cy="25" r="1.5"></circle>
            <ellipse id="Oval" stroke="#979797" fill="#020202" fill-rule="nonzero" cx="274.5" cy="21.5" rx="3" ry="2"></ellipse>
            <rect id="Rectangle" stroke="#979797" fill="#BEB0B0" fill-rule="nonzero" x="181.5" y="0.5" width="42" height="17"></rect>
            <line x1="267.333333" y1="15.25" x2="278.666667" y2="15.25" id="Line-10" stroke="#979797" stroke-linecap="square"></line>
            <line x1="267.333333" y1="28.25" x2="278.666667" y2="28.25" id="Line-11" stroke="#979797" stroke-linecap="square"></line>
            <line x1="273.5" y1="11.28125" x2="273.5" y2="19.71875" id="Line-12" stroke="#979797" stroke-linecap="square"></line>
            <line x1="273.5" y1="24.28125" x2="273.5" y2="32.71875" id="Line-13" stroke="#979797" stroke-linecap="square"></line>
            <line x1="267.4" y1="21.5" x2="270.6" y2="21.5" id="Line-14" stroke="#979797" stroke-linecap="square"></line>
            <line x1="278.166667" y1="21.5" x2="278.833333" y2="21.5" id="Line-15" stroke="#979797" stroke-linecap="square"></line>
            <line x1="304.4" y1="15.5" x2="307.6" y2="15.5" id="Line-16" stroke="#979797" stroke-linecap="square"></line>
            <line x1="304.4" y1="26.25" x2="307.6" y2="26.25" id="Line-18" stroke="#979797" stroke-linecap="square"></line>
            <line x1="310.25" y1="17.2692308" x2="310.25" y2="23.7307692" id="Line-21" stroke="#979797" stroke-linecap="square"></line>
            <line x1="304.34375" y1="21.25" x2="314.65625" y2="21.25" id="Line-23" stroke="#979797" stroke-linecap="square"></line>
            <line x1="310.5" y1="11.5" x2="310.5" y2="16.5" id="Line-19" stroke="#979797" stroke-linecap="square"></line>
            <line x1="310.5" y1="26.5" x2="310.5" y2="31.5" id="Line-20" stroke="#979797" stroke-linecap="square"></line>
            <line x1="312.5" y1="15.5" x2="315.5" y2="15.5" id="Line-22" stroke="#979797" stroke-linecap="square"></line>
            <line x1="312.5" y1="25.5" x2="315.5" y2="25.5" id="Line-24" stroke="#979797" stroke-linecap="square"></line>
        </g>
        <path d="M67.5,195.229857 L59.7647264,212.613056 L42.346374,215.420204 L54.9540055,229.050269 L51.9903675,248.214623 L67.5,239.171211 L83.0096325,248.214623 L80.0459945,229.050269 L92.653626,215.420204 L75.2352736,212.613056 L67.5,195.229857 Z" id="Star" stroke="#979797" fill="#CFECC2"></path>
        <polygon id="Star" stroke="#979797" fill="#FFFFFF" fill-rule="nonzero" points="29.8386669 82 23.9880291 93.007923 11 94.760389 20.3949249 103.26405 18.1669815 115.326107 29.8386669 109.628236 41.5103523 115.326107 39.2824089 103.26405 48.6773338 94.760389 35.6893047 93.007923"></polygon>
        <polygon id="Star" stroke="#979797" fill="#F2E5E5" fill-rule="nonzero" points="249 14 245.270907 21.9307702 237 23.1922186 242.982483 29.3129607 241.562953 38 249 33.8961694 256.437047 38 255.017517 29.3129607 261 23.1922186 252.729093 21.9307702"></polygon>
    </g>
</svg>