<?xml version="1.0" encoding="UTF-8"?>
<svg width="468px" height="215px" viewBox="0 0 468 215" version="1.1" xmlns="http://www.w3.org/2000/svg" xmlns:xlink="http://www.w3.org/1999/xlink">
    <!-- Generator: Sketch 64 (93537) - https://sketch.com -->
    <title>Slice</title>
    <desc>Created with Sketch.</desc>
    <g id="Page-1" stroke="none" stroke-width="1" fill="none" fill-rule="evenodd">
        <g id="studio2" transform="translate(14.000000, 0.000000)">
            <rect id="Rectangle" stroke="#979797" stroke-width="5" fill="#F3E8B1" fill-rule="nonzero" x="184.5" y="2.5" width="269" height="209"></rect>
            <rect id="Rectangle" stroke="#979797" fill="#CBF4D8" fill-rule="nonzero" x="207.5" y="22.5" width="77" height="125"></rect>
            <rect id="Rectangle" stroke="#979797" fill="#F7F7F7" fill-rule="nonzero" x="223.5" y="33.5" width="45" height="16"></rect>
            <rect id="Rectangle" stroke="#979797" fill="#F1B37D" fill-rule="nonzero" x="207.5" y="62.5" width="77" height="85"></rect>
            <rect id="Rectangle" stroke="#979797" fill="#FFFFFF" fill-rule="nonzero" x="297.5" y="22.5" width="105" height="19"></rect>
            <ellipse id="Oval" stroke="#979797" fill="#FFFFFF" fill-rule="nonzero" cx="350.5" cy="66" rx="16" ry="15.5"></ellipse>
            <rect id="Rectangle" stroke="#979797" stroke-width="6" fill="#FFFFFF" fill-rule="nonzero" x="1" y="102" width="178" height="112"></rect>
            <line x1="73.5" y1="102.290323" x2="73.5" y2="119.709677" id="Line-4" stroke="#979797" stroke-linecap="square"></line>
            <rect id="Rectangle" stroke="#979797" fill="#FFFFFF" fill-rule="nonzero" x="83.5" y="107.5" width="22" height="36" rx="8"></rect>
            <ellipse id="Oval" stroke="#979797" fill="#FFFFFF" fill-rule="nonzero" cx="94.5" cy="128.5" rx="5" ry="8"></ellipse>
            <rect id="Rectangle" stroke="#979797" fill="#FFFFFF" fill-rule="nonzero" x="83.5" y="107.5" width="22" height="7" rx="3.5"></rect>
            <ellipse id="Oval" stroke="#979797" fill="#D8D8D8" fill-rule="nonzero" cx="32.5" cy="109" rx="2" ry="1.5"></ellipse>
            <rect id="Rectangle" stroke="#000000" fill="#D8D8D8" fill-rule="nonzero" x="133.5" y="102.5" width="44" height="112"></rect>
            <line x1="32.5" y1="102.289474" x2="32.5" y2="112.710526" id="Line-2" stroke="#979797" stroke-linecap="square"></line>
            <rect id="Rectangle" stroke="#979797" fill="#FFFFFF" fill-rule="nonzero" x="0.5" y="102.5" width="63" height="41"></rect>
            <rect id="Rectangle-2" stroke="#979797" fill="#FFFFFF" fill-rule="nonzero" x="11.5" y="113.5" width="41" height="19"></rect>
            <path d="M163,106.5 L146,106.5 C143.928932,106.5 142.053932,107.339466 140.696699,108.696699 C139.339466,110.053932 138.5,111.928932 138.5,114 L138.5,201 C138.5,203.071068 139.339466,204.946068 140.696699,206.303301 C142.053932,207.660534 143.928932,208.5 146,208.5 L163,208.5 C165.071068,208.5 166.946068,207.660534 168.303301,206.303301 C169.660534,204.946068 170.5,203.071068 170.5,201 L170.5,114 C170.5,111.928932 169.660534,110.053932 168.303301,108.696699 C166.946068,107.339466 165.071068,106.5 163,106.5 Z M21,99.5 C20.2979416,99.5 19.6597463,99.7321983 19.1987719,100.116344 C18.7738416,100.470452 18.5,100.956415 18.5,101.5 C18.5,102.043585 18.7738416,102.529548 19.1987719,102.883656 C19.6597463,103.267802 20.2979416,103.5 21,103.5 C21.7020584,103.5 22.3402537,103.267802 22.8012281,102.883656 C23.2261584,102.529548 23.5,102.043585 23.5,101.5 C23.5,100.956415 23.2261584,100.470452 22.8012281,100.116344 C22.3402537,99.7321983 21.7020584,99.5 21,99.5 Z" id="Rectangle-3" stroke="#979797" fill="#FFFFFF" fill-rule="nonzero"></path>
            <line x1="156.5" y1="102.285714" x2="156.5" y2="125.714286" id="Line-3" stroke="#979797" stroke-linecap="square"></line>
            <ellipse id="Oval" stroke="#979797" fill="#FFFFFF" fill-rule="nonzero" cx="156" cy="130" rx="2.5" ry="3.5"></ellipse>
            <rect id="Rectangle" stroke="#979797" fill="#FFFFFF" fill-rule="nonzero" x="21.5" y="105.5" width="20" height="5" rx="2.5"></rect>
            <rect id="Rectangle" stroke="#979797" fill="#FFFFFF" fill-rule="nonzero" x="30.5" y="105.5" width="4" height="11" rx="2"></rect>
            <rect id="Rectangle" stroke="#979797" fill="#FFFFFF" fill-rule="nonzero" x="69.5" y="119.5" width="7" height="8"></rect>
            <ellipse id="Oval" stroke="#979797" fill="#D8D8D8" fill-rule="nonzero" cx="73" cy="123.5" rx="3.5" ry="3"></ellipse>
            <line x1="70.2692308" y1="123.25" x2="76.7307692" y2="123.75" id="Line-5" stroke="#979797" stroke-linecap="square"></line>
            <line x1="72.2857143" y1="119.285714" x2="75.7142857" y2="126.714286" id="Line-6" stroke="#979797" stroke-linecap="square"></line>
            <line x1="72.25" y1="126.681818" x2="73.75" y2="120.318182" id="Line-7" stroke="#979797" stroke-linecap="square"></line>
            <line x1="70.2916667" y1="124.75" x2="76.7083333" y2="122.25" id="Line-8" stroke="#979797" stroke-linecap="square"></line>
            <line x1="180.5" y1="49.5" x2="185.5" y2="49.5" id="Line-17" stroke="#979797" stroke-linecap="square"></line>
            <rect id="Rectangle" stroke="#979797" fill="#E5DFDF" fill-rule="nonzero" x="41.5" y="0.5" width="142" height="97"></rect>
            <line x1="47.3095238" y1="65.2352941" x2="59.6904762" y2="72.7647059" id="Line" stroke="#979797" stroke-linecap="square"></line>
            <rect id="Rectangle" stroke="#979797" fill="#D8D8D8" fill-rule="nonzero" x="40.5" y="34.5" width="39" height="63"></rect>
            <rect id="Rectangle-2" stroke="#979797" fill="#FFFFFF" fill-rule="nonzero" x="45.5" y="38.5" width="29" height="20" rx="8"></rect>
            <rect id="Rectangle" stroke="#979797" fill="#FFFFFF" fill-rule="nonzero" x="46.5" y="66.5" width="27" height="25" rx="8"></rect>
            <path d="M44,61.5 C43.2979416,61.5 42.6597463,61.7321983 42.1987719,62.1163437 C41.7738416,62.4704522 41.5,62.9564147 41.5,63.5 C41.5,64.0435853 41.7738416,64.5295478 42.1987719,64.8836563 C42.6597463,65.2678017 43.2979416,65.5 44,65.5 C44.7020584,65.5 45.3402537,65.2678017 45.8012281,64.8836563 C46.2261584,64.5295478 46.5,64.0435853 46.5,63.5 C46.5,62.9564147 46.2261584,62.4704522 45.8012281,62.1163437 C45.3402537,61.7321983 44.7020584,61.5 44,61.5 Z" id="Oval-2" stroke="#979797" fill="#F7F1F1" fill-rule="nonzero"></path>
            <polygon id="Triangle" stroke="#979797" fill="#FFFFFF" fill-rule="nonzero" points="47.7620482 64.6684402 45.7175643 65.442263 49.6547919 72.5428953"></polygon>
            <rect id="Rectangle" stroke="#979797" fill="#D8D8D8" fill-rule="nonzero" x="40.5" y="0.5" width="142" height="33"></rect>
            <rect id="Rectangle" stroke="#979797" fill="#D8D8D8" fill-rule="nonzero" x="125.5" y="8.5" width="13" height="12" rx="6"></rect>
            <rect id="Rectangle" stroke="#979797" fill="#D8D8D8" fill-rule="nonzero" x="110.5" y="5.5" width="42" height="23"></rect>
            <rect id="Rectangle" stroke="#282727" fill="#D8D8D8" fill-rule="nonzero" x="125.5" y="7.5" width="13" height="12"></rect>
            <line x1="126.270833" y1="9.25" x2="138.729167" y2="9.25" id="Line-3" stroke="#131313" stroke-linecap="square"></line>
            <line x1="126.270833" y1="10.5" x2="138.729167" y2="10.5" id="Line-4" stroke="#030202" stroke-linecap="square"></line>
            <line x1="126.270833" y1="12.25" x2="138.729167" y2="12.25" id="Line-5" stroke="#121212" stroke-linecap="square"></line>
            <line x1="126.270833" y1="13.5" x2="138.729167" y2="13.5" id="Line-6" stroke="#131313" stroke-linecap="square"></line>
            <line x1="126.270833" y1="16.25" x2="138.729167" y2="16.25" id="Line-7" stroke="#121212" stroke-linecap="square"></line>
            <line x1="126.270833" y1="16.5" x2="138.729167" y2="16.5" id="Line-8" stroke="#1E1D1D" stroke-linecap="square"></line>
            <line x1="126.270833" y1="19.5" x2="138.729167" y2="19.5" id="Line-9" stroke="#141414" stroke-linecap="square"></line>
            <rect id="Rectangle" stroke="#303030" fill="#D8D8D8" fill-rule="nonzero" x="112.5" y="8.5" width="10" height="17" rx="5"></rect>
            <rect id="Rectangle" stroke="#2F2E2E" fill="#D8D8D8" fill-rule="nonzero" x="143.5" y="8.5" width="9" height="16" rx="4.5"></rect>
            <circle id="Oval" stroke="#979797" fill="#000000" fill-rule="nonzero" cx="147.5" cy="12" r="1"></circle>
            <circle id="Oval" stroke="#979797" fill="#000000" fill-rule="nonzero" cx="147.5" cy="19.5" r="1"></circle>
            <ellipse id="Oval" stroke="#979797" fill="#020202" fill-rule="nonzero" cx="118" cy="17" rx="2.5" ry="1.5"></ellipse>
            <rect id="Rectangle" stroke="#979797" fill="#BEB0B0" fill-rule="nonzero" x="40.5" y="0.5" width="35" height="13"></rect>
            <line x1="112.277778" y1="12.25" x2="121.722222" y2="12.25" id="Line-10" stroke="#979797" stroke-linecap="square"></line>
            <line x1="112.277778" y1="22.5" x2="121.722222" y2="22.5" id="Line-11" stroke="#979797" stroke-linecap="square"></line>
            <line x1="117.5" y1="9.21875" x2="117.5" y2="15.78125" id="Line-12" stroke="#979797" stroke-linecap="square"></line>
            <line x1="117.5" y1="19.21875" x2="117.5" y2="25.78125" id="Line-13" stroke="#979797" stroke-linecap="square"></line>
            <line x1="112.3" y1="16.5" x2="114.7" y2="16.5" id="Line-14" stroke="#979797" stroke-linecap="square"></line>
            <line x1="121.166667" y1="16.5" x2="121.833333" y2="16.5" id="Line-15" stroke="#979797" stroke-linecap="square"></line>
            <line x1="143.3" y1="12.25" x2="145.7" y2="12.25" id="Line-16" stroke="#979797" stroke-linecap="square"></line>
            <line x1="143.3" y1="20.5" x2="145.7" y2="20.5" id="Line-18" stroke="#979797" stroke-linecap="square"></line>
            <line x1="148.25" y1="13.2307692" x2="148.25" y2="18.7692308" id="Line-21" stroke="#979797" stroke-linecap="square"></line>
            <line x1="143.28125" y1="16.5" x2="151.71875" y2="16.5" id="Line-23" stroke="#979797" stroke-linecap="square"></line>
            <line x1="148.25" y1="9.33333333" x2="148.25" y2="12.6666667" id="Line-19" stroke="#979797" stroke-linecap="square"></line>
            <line x1="148.25" y1="20.4166667" x2="148.25" y2="24.5833333" id="Line-20" stroke="#979797" stroke-linecap="square"></line>
            <line x1="149.5" y1="12.25" x2="152.5" y2="12.25" id="Line-22" stroke="#979797" stroke-linecap="square"></line>
            <line x1="149.5" y1="20.25" x2="152.5" y2="20.25" id="Line-24" stroke="#979797" stroke-linecap="square"></line>
        </g>
        <polygon id="Star" stroke="#979797" fill="#E9EACA" fill-rule="nonzero" points="257.604045 79 250.000977 94.4054988 233 96.8758854 245.302023 108.867393 242.397909 125.799675 257.604045 117.805336 272.810182 125.799675 269.906068 108.867393 282.208091 96.8758854 265.207114 94.4054988"></polygon>
        <polygon id="Star" stroke="#979797" fill="#F2E5E5" fill-rule="nonzero" points="104 6 100.270907 13.9307702 92 15.1922186 97.9824834 21.3129607 96.5629533 30 104 25.8961694 111.437047 30 110.017517 21.3129607 116 15.1922186 107.729093 13.9307702"></polygon>
        <polygon id="Star" stroke="#979797" fill="#FFFFFF" fill-rule="nonzero" points="39.8386669 174 33.9880291 185.007923 21 186.760389 30.3949249 195.26405 28.1669815 207.326107 39.8386669 201.628236 51.5103523 207.326107 49.2824089 195.26405 58.6773338 186.760389 45.6893047 185.007923"></polygon>
    </g>
</svg>