<?xml version="1.0" encoding="UTF-8"?>
<svg width="512px" height="245px" viewBox="0 0 512 245" version="1.1" xmlns="http://www.w3.org/2000/svg" xmlns:xlink="http://www.w3.org/1999/xlink">
    <!-- Generator: Sketch 64 (93537) - https://sketch.com -->
    <title>Slice</title>
    <desc>Created with Sketch.</desc>
    <g id="Page-1" stroke="none" stroke-width="1" fill="none" fill-rule="evenodd">
        <g id="studio3" transform="translate(0.000000, -1.000000)">
            <rect id="Rectangle" stroke="#979797" stroke-width="5" fill="#F0CCCC" fill-rule="nonzero" x="0.5" y="1.5" width="329" height="243"></rect>
            <rect id="Rectangle" stroke="#979797" fill="#F3EDDE" fill-rule="nonzero" x="32.5" y="29.5" width="102" height="164"></rect>
            <rect id="Rectangle" stroke="#979797" fill="#D4F4EB" fill-rule="nonzero" x="52.5" y="42.5" width="60" height="22"></rect>
            <rect id="Rectangle" stroke="#979797" fill="#E6D5F0" fill-rule="nonzero" x="32.5" y="82.5" width="102" height="111"></rect>
            <rect id="Rectangle" stroke="#979797" fill="#FFFFFF" fill-rule="nonzero" x="150.5" y="29.5" width="138" height="25"></rect>
            <circle id="Oval" stroke="#979797" fill="#FFFFFF" fill-rule="nonzero" cx="220.5" cy="86.5" r="21"></circle>
            <line x1="301.5" y1="208.302083" x2="301.5" y2="236.697917" id="Line" stroke="#979797" fill="#FFFFFF" fill-rule="nonzero"></line>
            <rect id="Rectangle" stroke="#979797" fill="#E5DFDF" fill-rule="nonzero" x="334.5" y="108.5" width="177" height="132"></rect>
            <line x1="342.380952" y1="197.323529" x2="357.619048" y2="207.676471" id="Line" stroke="#979797" stroke-linecap="square"></line>
            <rect id="Rectangle" stroke="#979797" fill="#D8D8D8" fill-rule="nonzero" x="333.5" y="155.5" width="48" height="85"></rect>
            <rect id="Rectangle-2" stroke="#979797" fill="#FFFFFF" fill-rule="nonzero" x="339.5" y="161.5" width="36" height="26" rx="8"></rect>
            <rect id="Rectangle" stroke="#979797" fill="#FFFFFF" fill-rule="nonzero" x="340.5" y="198.5" width="33" height="34" rx="8"></rect>
            <path d="M338.5,191.5 C337.671573,191.5 336.921573,191.835786 336.37868,192.37868 C335.835786,192.921573 335.5,193.671573 335.5,194.5 C335.5,195.328427 335.835786,196.078427 336.37868,196.62132 C336.921573,197.164214 337.671573,197.5 338.5,197.5 C339.328427,197.5 340.078427,197.164214 340.62132,196.62132 C341.164214,196.078427 341.5,195.328427 341.5,194.5 C341.5,193.671573 341.164214,192.921573 340.62132,192.37868 C340.078427,191.835786 339.328427,191.5 338.5,191.5 Z" id="Oval-2" stroke="#979797" fill="#F7F1F1" fill-rule="nonzero"></path>
            <polygon id="Triangle" stroke="#979797" fill="#FFFFFF" fill-rule="nonzero" points="342.805713 196.654186 339.739503 197.742192 345.644352 207.725779"></polygon>
            <rect id="Rectangle" stroke="#979797" fill="#D8D8D8" fill-rule="nonzero" x="333.5" y="108.5" width="177" height="46"></rect>
            <rect id="Rectangle" stroke="#979797" fill="#D8D8D8" fill-rule="nonzero" x="438.5" y="119.5" width="17" height="17" rx="8"></rect>
            <rect id="Rectangle" stroke="#979797" fill="#D8D8D8" fill-rule="nonzero" x="420.5" y="116.5" width="52" height="31"></rect>
            <rect id="Rectangle" stroke="#282727" fill="#D8D8D8" fill-rule="nonzero" x="438.5" y="118.5" width="17" height="17"></rect>
            <line x1="439.354167" y1="124.5" x2="455.645833" y2="124.5" id="Line-5" stroke="#121212" stroke-linecap="square"></line>
            <line x1="439.354167" y1="126.5" x2="455.645833" y2="126.5" id="Line-6" stroke="#131313" stroke-linecap="square"></line>
            <line x1="439.354167" y1="130" x2="455.645833" y2="130" id="Line-7" stroke="#121212" stroke-linecap="square"></line>
            <line x1="439.354167" y1="131.5" x2="455.645833" y2="131.5" id="Line-8" stroke="#1E1D1D" stroke-linecap="square"></line>
            <line x1="439.354167" y1="134.25" x2="455.645833" y2="134.25" id="Line-9" stroke="#141414" stroke-linecap="square"></line>
            <rect id="Rectangle" stroke="#303030" fill="#D8D8D8" fill-rule="nonzero" x="422.5" y="119.5" width="12" height="23" rx="6"></rect>
            <rect id="Rectangle" stroke="#2F2E2E" fill="#D8D8D8" fill-rule="nonzero" x="460.5" y="119.5" width="11" height="22" rx="5.5"></rect>
            <ellipse id="Oval" stroke="#979797" fill="#000000" fill-rule="nonzero" cx="466" cy="124.5" rx="1.5" ry="1"></ellipse>
            <circle id="Oval" stroke="#979797" fill="#000000" fill-rule="nonzero" cx="466" cy="135" r="1.5"></circle>
            <ellipse id="Oval" stroke="#979797" fill="#020202" fill-rule="nonzero" cx="429.5" cy="131" rx="3" ry="2.5"></ellipse>
            <rect id="Rectangle" stroke="#979797" fill="#BEB0B0" fill-rule="nonzero" x="333.5" y="108.5" width="43" height="18"></rect>
            <line x1="422.333333" y1="124.5" x2="433.666667" y2="124.5" id="Line-10" stroke="#979797" stroke-linecap="square"></line>
            <line x1="422.333333" y1="138.5" x2="433.666667" y2="138.5" id="Line-11" stroke="#979797" stroke-linecap="square"></line>
            <line x1="428.5" y1="120.28125" x2="428.5" y2="128.71875" id="Line-12" stroke="#979797" stroke-linecap="square"></line>
            <line x1="428.5" y1="134.28125" x2="428.5" y2="142.71875" id="Line-13" stroke="#979797" stroke-linecap="square"></line>
            <line x1="422.4" y1="131.5" x2="425.6" y2="131.5" id="Line-14" stroke="#979797" stroke-linecap="square"></line>
            <line x1="433.166667" y1="131.5" x2="433.833333" y2="131.5" id="Line-15" stroke="#979797" stroke-linecap="square"></line>
            <line x1="460.4" y1="124.5" x2="463.6" y2="124.5" id="Line-16" stroke="#979797" stroke-linecap="square"></line>
            <line x1="460.4" y1="136.25" x2="463.6" y2="136.25" id="Line-18" stroke="#979797" stroke-linecap="square"></line>
            <line x1="466.5" y1="126.307692" x2="466.5" y2="133.692308" id="Line-21" stroke="#979797" stroke-linecap="square"></line>
            <line x1="460.34375" y1="131.25" x2="470.65625" y2="131.25" id="Line-23" stroke="#979797" stroke-linecap="square"></line>
            <line x1="466.5" y1="120.5" x2="466.5" y2="125.5" id="Line-19" stroke="#979797" stroke-linecap="square"></line>
            <line x1="466.5" y1="136.5" x2="466.5" y2="141.5" id="Line-20" stroke="#979797" stroke-linecap="square"></line>
            <line x1="468.5" y1="124.5" x2="471.5" y2="124.5" id="Line-22" stroke="#979797" stroke-linecap="square"></line>
            <line x1="468.5" y1="135.5" x2="471.5" y2="135.5" id="Line-24" stroke="#979797" stroke-linecap="square"></line>
            <rect id="Rectangle" stroke="#979797" stroke-width="6" fill="#FFFFFF" fill-rule="nonzero" x="333" y="2" width="174" height="110"></rect>
            <line x1="409.25" y1="3.2903226" x2="409.25" y2="20.7096774" id="Line-4" stroke="#979797" stroke-linecap="square"></line>
            <rect id="Rectangle" stroke="#979797" fill="#FFFFFF" fill-rule="nonzero" x="419.5" y="8.5" width="22" height="36" rx="8"></rect>
            <ellipse id="Oval" stroke="#979797" fill="#FFFFFF" fill-rule="nonzero" cx="430.5" cy="29.5" rx="5" ry="8"></ellipse>
            <rect id="Rectangle" stroke="#979797" fill="#FFFFFF" fill-rule="nonzero" x="419.5" y="8.5" width="22" height="7" rx="3.5"></rect>
            <ellipse id="Oval" stroke="#979797" fill="#D8D8D8" fill-rule="nonzero" cx="369.5" cy="10" rx="2" ry="1.5"></ellipse>
            <rect id="Rectangle" stroke="#000000" fill="#D8D8D8" fill-rule="nonzero" x="468.5" y="3.5" width="43" height="110"></rect>
            <line x1="369.25" y1="3.2894737" x2="369.25" y2="13.7105263" id="Line-2" stroke="#979797" stroke-linecap="square"></line>
            <rect id="Rectangle" stroke="#979797" fill="#FFFFFF" fill-rule="nonzero" x="338.5" y="3.5" width="61" height="41"></rect>
            <rect id="Rectangle-2" stroke="#979797" fill="#FFFFFF" fill-rule="nonzero" x="348.5" y="14.5" width="41" height="19"></rect>
            <path d="M498,7.5 L481,7.5 C478.928932,7.5 477.053932,8.3394661 475.696699,9.6966991 C474.339466,11.0539322 473.5,12.9289322 473.5,15 L473.5,100 C473.5,102.071068 474.339466,103.946068 475.696699,105.303301 C477.053932,106.660534 478.928932,107.5 481,107.5 L498,107.5 C500.071068,107.5 501.946068,106.660534 503.303301,105.303301 C504.660534,103.946068 505.5,102.071068 505.5,100 L505.5,15 C505.5,12.9289322 504.660534,11.0539322 503.303301,9.6966991 C501.946068,8.3394661 500.071068,7.5 498,7.5 Z M358,0.5 C357.297942,0.5 356.659746,0.7321983 356.198772,1.1163437 C355.773842,1.4704522 355.5,1.9564147 355.5,2.5 C355.5,3.0435853 355.773842,3.5295478 356.198772,3.8836563 C356.659746,4.2678017 357.297942,4.5 358,4.5 C358.702058,4.5 359.340254,4.2678017 359.801228,3.8836563 C360.226158,3.5295478 360.5,3.0435853 360.5,2.5 C360.5,1.9564147 360.226158,1.4704522 359.801228,1.1163437 C359.340254,0.7321983 358.702058,0.5 358,0.5 Z" id="Rectangle-3" stroke="#979797" fill="#FFFFFF" fill-rule="nonzero"></path>
            <line x1="491.25" y1="3.2857143" x2="491.25" y2="26.7142857" id="Line-3" stroke="#979797" stroke-linecap="square"></line>
            <ellipse id="Oval" stroke="#979797" fill="#FFFFFF" fill-rule="nonzero" cx="491" cy="31" rx="2.5" ry="3.5"></ellipse>
            <rect id="Rectangle" stroke="#979797" fill="#FFFFFF" fill-rule="nonzero" x="358.5" y="6.5" width="20" height="5" rx="2.5"></rect>
            <rect id="Rectangle" stroke="#979797" fill="#FFFFFF" fill-rule="nonzero" x="367.5" y="6.5" width="4" height="11" rx="2"></rect>
            <rect id="Rectangle" stroke="#979797" fill="#FFFFFF" fill-rule="nonzero" x="405.5" y="20.5" width="7" height="8"></rect>
            <ellipse id="Oval" stroke="#979797" fill="#D8D8D8" fill-rule="nonzero" cx="409" cy="24.5" rx="3.5" ry="3"></ellipse>
            <line x1="406.269231" y1="24.25" x2="412.730769" y2="24.75" id="Line-5" stroke="#979797" stroke-linecap="square"></line>
            <line x1="408.285714" y1="20.2857143" x2="411.714286" y2="27.7142857" id="Line-6" stroke="#979797" stroke-linecap="square"></line>
            <line x1="408.25" y1="27.6818182" x2="409.75" y2="21.3181818" id="Line-7" stroke="#979797" stroke-linecap="square"></line>
            <line x1="406.291667" y1="25.75" x2="412.708333" y2="23.25" id="Line-8" stroke="#979797" stroke-linecap="square"></line>
        </g>
        <polygon id="Star" stroke="#979797" fill="#F8ECF5" fill-rule="nonzero" points="76.6040454 122 69.0009773 137.405499 52 139.875885 64.3020227 151.867393 61.3979091 168.799675 76.6040454 160.805336 91.8101817 168.799675 88.9060681 151.867393 101.208091 139.875885 84.2071135 137.405499"></polygon>
        <polygon id="Star" stroke="#979797" fill="#F8ECF5" fill-rule="nonzero" points="397.5 115 392.710237 127.838005 382 129.896675 389.75 139.889667 387.920473 154 397.5 147.338005 407.079527 154 405.25 139.889667 413 129.896675 402.289763 127.838005"></polygon>
        <polygon id="Star" stroke="#979797" fill="#FFFFFF" fill-rule="nonzero" points="362.838667 71 356.988029 82.007923 344 83.760389 353.394925 92.26405 351.166982 104.326107 362.838667 98.628236 374.510352 104.326107 372.282409 92.26405 381.677334 83.760389 368.689305 82.007923"></polygon>
    </g>
</svg>