<?xml version="1.0" encoding="UTF-8"?>
<svg width="252px" height="429px" viewBox="0 0 252 429" version="1.1" xmlns="http://www.w3.org/2000/svg" xmlns:xlink="http://www.w3.org/1999/xlink">
    <!-- Generator: Sketch 64 (93537) - https://sketch.com -->
    <title>Slice</title>
    <desc>Created with Sketch.</desc>
    <g id="Page-1" stroke="none" stroke-width="1" fill="none" fill-rule="evenodd">
        <g id="studio_1" transform="translate(4.000000, -1.000000)">
            <rect id="Rectangle" stroke="#979797" stroke-width="5" fill="#C5CFCE" fill-rule="nonzero" x="0.5" y="116.5" width="247" height="182"></rect>
            <rect id="Rectangle" stroke="#979797" fill="#DCDAD5" fill-rule="nonzero" x="32.5" y="141.5" width="77" height="124"></rect>
            <rect id="Rectangle" stroke="#979797" fill="#F7F7F7" fill-rule="nonzero" x="48.5" y="152.5" width="45" height="16"></rect>
            <rect id="Rectangle" stroke="#979797" fill="#A2ABAD" fill-rule="nonzero" x="32.5" y="181.5" width="77" height="84"></rect>
            <rect id="Rectangle" stroke="#979797" fill="#FFFFFF" fill-rule="nonzero" x="122.5" y="141.5" width="104" height="19"></rect>
            <circle id="Oval" stroke="#979797" fill="#FFFFFF" fill-rule="nonzero" cx="175" cy="185" r="15.5"></circle>
            <rect id="Rectangle" stroke="#979797" stroke-width="6" fill="#FFFFFF" fill-rule="nonzero" x="2" y="2" width="174" height="110"></rect>
            <line x1="78.25" y1="3.29032258" x2="78.25" y2="20.7096774" id="Line-4" stroke="#979797" stroke-linecap="square"></line>
            <rect id="Rectangle" stroke="#979797" fill="#FFFFFF" fill-rule="nonzero" x="88.5" y="8.5" width="22" height="36" rx="8"></rect>
            <ellipse id="Oval" stroke="#979797" fill="#FFFFFF" fill-rule="nonzero" cx="99.5" cy="29.5" rx="5" ry="8"></ellipse>
            <rect id="Rectangle" stroke="#979797" fill="#FFFFFF" fill-rule="nonzero" x="88.5" y="8.5" width="22" height="7" rx="3.5"></rect>
            <ellipse id="Oval" stroke="#979797" fill="#D8D8D8" fill-rule="nonzero" cx="38.5" cy="10" rx="2" ry="1.5"></ellipse>
            <rect id="Rectangle" stroke="#000000" fill="#D8D8D8" fill-rule="nonzero" x="137.5" y="3.5" width="43" height="110"></rect>
            <line x1="38.25" y1="3.28947368" x2="38.25" y2="13.7105263" id="Line-2" stroke="#979797" stroke-linecap="square"></line>
            <rect id="Rectangle" stroke="#979797" fill="#FFFFFF" fill-rule="nonzero" x="7.5" y="3.5" width="61" height="41"></rect>
            <rect id="Rectangle-2" stroke="#979797" fill="#FFFFFF" fill-rule="nonzero" x="17.5" y="14.5" width="41" height="19"></rect>
            <path d="M167,7.5 L150,7.5 C147.928932,7.5 146.053932,8.33946609 144.696699,9.69669914 C143.339466,11.0539322 142.5,12.9289322 142.5,15 L142.5,100 C142.5,102.071068 143.339466,103.946068 144.696699,105.303301 C146.053932,106.660534 147.928932,107.5 150,107.5 L167,107.5 C169.071068,107.5 170.946068,106.660534 172.303301,105.303301 C173.660534,103.946068 174.5,102.071068 174.5,100 L174.5,15 C174.5,12.9289322 173.660534,11.0539322 172.303301,9.69669914 C170.946068,8.33946609 169.071068,7.5 167,7.5 Z M27,0.5 C26.2979416,0.5 25.6597463,0.73219829 25.1987719,1.11634369 C24.7738416,1.47045222 24.5,1.95641471 24.5,2.5 C24.5,3.04358529 24.7738416,3.52954778 25.1987719,3.88365631 C25.6597463,4.26780171 26.2979416,4.5 27,4.5 C27.7020584,4.5 28.3402537,4.26780171 28.8012281,3.88365631 C29.2261584,3.52954778 29.5,3.04358529 29.5,2.5 C29.5,1.95641471 29.2261584,1.47045222 28.8012281,1.11634369 C28.3402537,0.73219829 27.7020584,0.5 27,0.5 Z" id="Rectangle-3" stroke="#979797" fill="#FFFFFF" fill-rule="nonzero"></path>
            <line x1="160.25" y1="3.28571429" x2="160.25" y2="26.7142857" id="Line-3" stroke="#979797" stroke-linecap="square"></line>
            <ellipse id="Oval" stroke="#979797" fill="#FFFFFF" fill-rule="nonzero" cx="160" cy="31" rx="2.5" ry="3.5"></ellipse>
            <rect id="Rectangle" stroke="#979797" fill="#FFFFFF" fill-rule="nonzero" x="27.5" y="6.5" width="20" height="5" rx="2.5"></rect>
            <rect id="Rectangle" stroke="#979797" fill="#FFFFFF" fill-rule="nonzero" x="36.5" y="6.5" width="4" height="11" rx="2"></rect>
            <rect id="Rectangle" stroke="#979797" fill="#FFFFFF" fill-rule="nonzero" x="74.5" y="20.5" width="7" height="8"></rect>
            <ellipse id="Oval" stroke="#979797" fill="#D8D8D8" fill-rule="nonzero" cx="78" cy="24.5" rx="3.5" ry="3"></ellipse>
            <line x1="75.2692308" y1="24.25" x2="81.7307692" y2="24.75" id="Line-5" stroke="#979797" stroke-linecap="square"></line>
            <line x1="77.2857143" y1="20.2857143" x2="80.7142857" y2="27.7142857" id="Line-6" stroke="#979797" stroke-linecap="square"></line>
            <line x1="77.25" y1="27.6818182" x2="78.75" y2="21.3181818" id="Line-7" stroke="#979797" stroke-linecap="square"></line>
            <line x1="75.2916667" y1="25.75" x2="81.7083333" y2="23.25" id="Line-8" stroke="#979797" stroke-linecap="square"></line>
            <rect id="Rectangle" stroke="#979797" fill="#E5DFDF" fill-rule="nonzero" x="2.5" y="301.5" width="171" height="123"></rect>
            <line x1="10.3571429" y1="384.294118" x2="24.6428571" y2="393.705882" id="Line" stroke="#979797" stroke-linecap="square"></line>
            <rect id="Rectangle" stroke="#979797" fill="#D8D8D8" fill-rule="nonzero" x="1.5" y="345.5" width="46" height="79"></rect>
            <rect id="Rectangle-2" stroke="#979797" fill="#FFFFFF" fill-rule="nonzero" x="7.5" y="350.5" width="35" height="25" rx="8"></rect>
            <rect id="Rectangle" stroke="#979797" fill="#FFFFFF" fill-rule="nonzero" x="8.5" y="385.5" width="32" height="32" rx="8"></rect>
            <path d="M6.5,379.5 C5.66181953,379.5 4.90062136,379.786794 4.35052195,380.258308 C3.83049444,380.704046 3.5,381.317248 3.5,382 C3.5,382.682752 3.83049444,383.295954 4.35052195,383.741692 C4.90062136,384.213206 5.66181953,384.5 6.5,384.5 C7.33818047,384.5 8.0993786,384.213206 8.649478,383.741692 C9.1695056,383.295954 9.5,382.682752 9.5,382 C9.5,381.317248 9.1695056,380.704046 8.649478,380.258308 C8.0993786,379.786794 7.33818047,379.5 6.5,379.5 Z" id="Oval-2" stroke="#979797" fill="#F7F1F1" fill-rule="nonzero"></path>
            <polygon id="Triangle" stroke="#979797" fill="#FFFFFF" fill-rule="nonzero" points="10.811499 383.64019 7.76513733 384.649088 13.6317619 393.906783"></polygon>
            <rect id="Rectangle" stroke="#979797" fill="#D8D8D8" fill-rule="nonzero" x="1.5" y="301.5" width="171" height="43"></rect>
            <rect id="Rectangle" stroke="#979797" fill="#D8D8D8" fill-rule="nonzero" x="103.5" y="311.5" width="16" height="16" rx="8"></rect>
            <rect id="Rectangle" stroke="#979797" fill="#D8D8D8" fill-rule="nonzero" x="85.5" y="308.5" width="51" height="29"></rect>
            <rect id="Rectangle" stroke="#282727" fill="#D8D8D8" fill-rule="nonzero" x="103.5" y="310.5" width="16" height="16"></rect>
            <line x1="104.333333" y1="312.5" x2="119.666667" y2="312.5" id="Line-3" stroke="#131313" stroke-linecap="square"></line>
            <line x1="104.333333" y1="314.5" x2="119.666667" y2="314.5" id="Line-4" stroke="#030202" stroke-linecap="square"></line>
            <line x1="104.333333" y1="316.25" x2="119.666667" y2="316.25" id="Line-5" stroke="#121212" stroke-linecap="square"></line>
            <line x1="104.333333" y1="318.5" x2="119.666667" y2="318.5" id="Line-6" stroke="#131313" stroke-linecap="square"></line>
            <line x1="104.333333" y1="321.5" x2="119.666667" y2="321.5" id="Line-7" stroke="#121212" stroke-linecap="square"></line>
            <line x1="104.333333" y1="322.5" x2="119.666667" y2="322.5" id="Line-8" stroke="#1E1D1D" stroke-linecap="square"></line>
            <line x1="104.333333" y1="325.25" x2="119.666667" y2="325.25" id="Line-9" stroke="#141414" stroke-linecap="square"></line>
            <rect id="Rectangle" stroke="#303030" fill="#D8D8D8" fill-rule="nonzero" x="87.5" y="311.5" width="12" height="22" rx="6"></rect>
            <rect id="Rectangle" stroke="#2F2E2E" fill="#D8D8D8" fill-rule="nonzero" x="124.5" y="311.5" width="11" height="21" rx="5.5"></rect>
            <ellipse id="Oval" stroke="#979797" fill="#000000" fill-rule="nonzero" cx="130" cy="316.5" rx="1.5" ry="1"></ellipse>
            <circle id="Oval" stroke="#979797" fill="#000000" fill-rule="nonzero" cx="130" cy="326" r="1.5"></circle>
            <ellipse id="Oval" stroke="#979797" fill="#020202" fill-rule="nonzero" cx="94.5" cy="322.5" rx="3" ry="2"></ellipse>
            <rect id="Rectangle" stroke="#979797" fill="#BEB0B0" fill-rule="nonzero" x="1.5" y="301.5" width="42" height="17"></rect>
            <line x1="87.3333333" y1="316.25" x2="98.666667" y2="316.25" id="Line-10" stroke="#979797" stroke-linecap="square"></line>
            <line x1="87.3333333" y1="329.25" x2="98.666667" y2="329.25" id="Line-11" stroke="#979797" stroke-linecap="square"></line>
            <line x1="93.5" y1="312.28125" x2="93.5" y2="320.71875" id="Line-12" stroke="#979797" stroke-linecap="square"></line>
            <line x1="93.5" y1="325.28125" x2="93.5" y2="333.71875" id="Line-13" stroke="#979797" stroke-linecap="square"></line>
            <line x1="87.4" y1="322.5" x2="90.6" y2="322.5" id="Line-14" stroke="#979797" stroke-linecap="square"></line>
            <line x1="98.166667" y1="322.5" x2="98.833333" y2="322.5" id="Line-15" stroke="#979797" stroke-linecap="square"></line>
            <line x1="124.4" y1="316.5" x2="127.6" y2="316.5" id="Line-16" stroke="#979797" stroke-linecap="square"></line>
            <line x1="124.4" y1="327.25" x2="127.6" y2="327.25" id="Line-18" stroke="#979797" stroke-linecap="square"></line>
            <line x1="130.25" y1="318.269231" x2="130.25" y2="324.730769" id="Line-21" stroke="#979797" stroke-linecap="square"></line>
            <line x1="124.34375" y1="322.25" x2="134.65625" y2="322.25" id="Line-23" stroke="#979797" stroke-linecap="square"></line>
            <line x1="130.5" y1="312.5" x2="130.5" y2="317.5" id="Line-19" stroke="#979797" stroke-linecap="square"></line>
            <line x1="130.5" y1="327.5" x2="130.5" y2="332.5" id="Line-20" stroke="#979797" stroke-linecap="square"></line>
            <line x1="132.5" y1="316.5" x2="135.5" y2="316.5" id="Line-22" stroke="#979797" stroke-linecap="square"></line>
            <line x1="132.5" y1="326.5" x2="135.5" y2="326.5" id="Line-24" stroke="#979797" stroke-linecap="square"></line>
        </g>
        <path d="M73,199.129776 L65.3969319,214.535274 L48.3959546,217.005661 L60.6979773,228.997169 L57.7938637,245.929451 L73,237.935112 L88.2061363,245.929451 L85.3020227,228.997169 L97.6040454,217.005661 L80.6030681,214.535274 L73,199.129776 Z" id="Star" stroke="#979797" fill="#88A89F"></path>
        <polygon id="Star" stroke="#979797" fill="#FFFFFF" fill-rule="nonzero" points="32.8386669 73 26.9880291 84.007923 14 85.760389 23.3949249 94.26405 21.1669815 106.326107 32.8386669 100.628236 44.5103523 106.326107 42.2824089 94.26405 51.6773338 85.760389 38.6893047 84.007923"></polygon>
        <polygon id="Star" stroke="#979797" fill="#F2E5E5" fill-rule="nonzero" points="26 316 22.2709071 324.591668 14 325.958237 19.9824834 332.589041 18.5629533 342 26 337.554184 33.4370467 342 32.0175166 332.589041 38 325.958237 29.7290929 324.591668"></polygon>
    </g>
</svg>